<?xml version="1.0" standalone="no"?>
<!DOCTYPE svg PUBLIC "-//W3C//DTD SVG 1.1//EN" "http://www.w3.org/Graphics/SVG/1.1/DTD/svg11.dtd" >
<svg xmlns="http://www.w3.org/2000/svg">
<metadata></metadata>
<defs>
<font id="renaissance_regular" horiz-adv-x="688" >
<font-face units-per-em="2048" ascent="1638" descent="-410" />
<missing-glyph horiz-adv-x="626" />
<glyph horiz-adv-x="2048" />
<glyph horiz-adv-x="2048" />
<glyph unicode="&#xd;" horiz-adv-x="2048" />
<glyph unicode=" "  horiz-adv-x="626" />
<glyph unicode="&#x09;" horiz-adv-x="626" />
<glyph unicode="&#xa0;" horiz-adv-x="626" />
<glyph unicode="!" horiz-adv-x="645" d="M184 47q0 45 32 89t79 44q31 0 44 -19.5t17 -54.5q0 -35 -35.5 -78.5t-72.5 -43.5q-23 0 -43.5 18t-20.5 45zM352 283l92 174q80 154 172 356l158 363q18 47 45 68.5t74 21.5q33 0 52.5 -10.5t19.5 -38.5q0 -20 -103 -181q-47 -76 -93 -147.5t-107 -159.5l-142 -215 l-65 -127q-45 -88 -72 -115l-18 -2z" />
<glyph unicode="&#x22;" horiz-adv-x="989" d="M815 1047l4 8l23 14l24 10q41 18 76 60q12 14 27 35q8 12 26 45l2 18l-4 12l-39 27q-16 12 -20 43q0 39 31.5 80t72.5 41q25 0 44.5 -19.5t21.5 -48.5q0 -94 -94 -196q-74 -84 -181 -140zM1044 1044l7 11q43 25 69.5 44t38.5 29q70 59 70 105l-4 16l-6 11 q-29 14 -40.5 23t-13.5 40q0 37 34 78t71 41q29 0 47 -19.5t18 -54.5q0 -76 -105.5 -204t-176.5 -128z" />
<glyph unicode="#" horiz-adv-x="1050" d="M49 403v132h209l51 376h-209v136h230l55 401h135l-55 -401h242l57 401h135l-57 -401h162v-134h-181l-53 -378h180v-132h-198l-58 -403h-135l57 403h-241l-58 -403h-135l58 403h-191zM393 535h242l53 378h-242z" />
<glyph unicode="$" horiz-adv-x="987" d="M41 -96q6 14 22 22l11 -8q6 -16 20.5 -30.5t32.5 -18.5q61 0 121 43q35 29 88 98q-92 31 -154 86q-71 66 -71 156q0 119 90 185.5t213 66.5q49 0 94 -13.5t96 -37.5l49 88q-57 45 -98 107.5t-41 131.5q0 123 109 199q100 66 231 65l86 -6q43 61 72.5 86t56.5 36t55 11 l31 -6q10 -6 10 -20l-2 -6l-8 -4l-8 -5l-25 5l-20 6q-25 0 -53.5 -22.5t-79.5 -86.5q66 -23 106 -57q51 -45 51 -105q0 -78 -69 -129q-31 -20 -67 -32.5t-77 -12.5q-70 0 -129 33l-45 -90q92 -92 140 -150q76 -100 75 -182q0 -158 -143 -246q-121 -74 -289 -73l-86 6l-71 8 q-31 -39 -53.5 -63.5t-43.5 -40.5q-63 -53 -127 -54q-33 0 -51 11q-20 6 -45 34zM141 244q0 -84 66 -144q53 -47 145 -71l97 143q-41 6 -82 31q-49 31 -50 67q0 14 13 37q12 16 30 27l17 -10l2 -9l-6 -8l-15 -8q-23 -12 -24 -27q0 -41 45 -61l82 -21l127 228l-58 22 q-25 8 -47 12.5t-53 4.5q-106 0 -190 -49q-98 -59 -99 -164zM379 23l80 -13l61 -4q129 0 215 47q113 63 113 176q0 78 -57 160q-27 41 -117 129l-47 -82q33 -23 51 -53.5t18 -71.5q0 -74 -73 -114q-59 -31 -148 -31zM487 186h23q63 0 113.5 34t50.5 97q0 23 -18.5 47.5 t-45.5 38.5zM606 850q0 -63 51 -127l58 -66l49 88l-29 37q-12 23 -12 45q0 14 13.5 42t27.5 28q6 0 12 -2q0 -2 2 -2l4 -8l-2 -6q-39 -12 -39 -66q0 -12 15 -33l16 -16l152 252l-33 6l-23 4q-100 0 -172 -39q-90 -47 -90 -137zM801 748q34 -25 69 -25q74 0 129 35 q70 45 70 110q0 49 -35 84q-18 20 -78 54l-82 -127z" />
<glyph unicode="%" horiz-adv-x="1331" d="M197 432q0 131 76.5 259t193.5 198l61 31q37 18 64 18q61 0 94 -59q6 -10 16.5 -42t10.5 -73q0 -168 -113 -338q-127 -193 -285 -193q-68 0 -98 70q-20 51 -20 129zM246 334q0 -37 16 -59.5t51 -22.5q96 0 226 252q119 238 118 350q0 23 -17 43.5t-46 22.5 q-90 0 -225 -246q-123 -227 -123 -340zM424 -47q0 39 188 278q164 207 373 453q196 229 266 299l15 6q10 -10 10 -18l-2 -15q-180 -178 -346 -376q-80 -96 -154 -192.5t-158 -213.5l-90 -129q-74 -104 -88 -106l-8 4zM905 156q0 158 121 327q131 187 281 187q61 0 94 -66 q23 -51 22 -121q0 -154 -118 -327q-129 -190 -277 -191q-68 0 -100 64q-23 49 -23 127zM954 72q0 -33 18.5 -59.5t53.5 -26.5q92 0 221 252q121 236 121 344q0 25 -17.5 49t-45.5 24q-84 0 -217.5 -242.5t-133.5 -340.5z" />
<glyph unicode="&#x26;" horiz-adv-x="1288" d="M174 186q0 188 129 398q123 193 293 305q37 25 57 35q41 20 62 30q80 35 129 35q63 0 102 -40t39 -107l-2 -31q76 80 107 123q55 79 55 151q0 43 -49 61.5t-54 49.5q0 33 26 54.5t58 21.5q37 0 62.5 -25.5t25.5 -66.5q0 -233 -301 -459q-246 -180 -522 -252 q-45 -86 -85 -198.5t-40 -204.5q0 -133 85 -215t220 -82q106 0 215 61q76 43 177 141q117 117 204 262q111 178 111 306q0 55 -25.5 95t-78.5 40q-86 0 -195 -82q-92 -70 -152 -156l131 2l41 2q33 0 49.5 -4t16.5 -16l-8 -12l-45 -7l-47 -2l-93 4l-65 5q-59 -78 -107 -156 q-61 -109 -61 -172q0 -66 53 -66q45 0 105 66q47 53 71 108l17 13l10 -4l2 -11q-18 -57 -81.5 -123.5t-119.5 -66.5q-49 0 -72.5 33.5t-23.5 91.5q0 72 35 150.5t82 136.5h-86l-41 -2q-29 0 -35 12q0 18 14 20l172 -2l138 131q150 125 286 125q78 0 121 -63q35 -53 35 -140 q0 -258 -235.5 -499.5t-493.5 -241.5q-188 0 -305 123q-55 61 -84 139t-29 176zM410 498q168 37 313 139q188 129 188 266q0 25 -16 47q-10 20 -41 23q-104 0 -254 -189q-33 -39 -79 -108.5t-111 -177.5z" />
<glyph unicode="'" horiz-adv-x="729" d="M852 1079q0 74 112.5 217.5t182.5 143.5l8 -15q-84 -51 -136 -100t-52 -106l12 -21l39 -22q12 -12 16 -43q0 -43 -38 -86t-83 -43q-29 0 -43 20t-18 55z" />
<glyph unicode="(" horiz-adv-x="903" d="M205 -68q0 305 184 639t447 508q51 33 147 77t147 44q14 0 17 -14q-14 -10 -25 -15l-24 -4q-72 -18 -137 -69q-178 -127 -379 -439q-164 -260 -267 -522q-12 -33 -24 -71.5t-23 -79.5q-23 -94 -22 -158q0 -37 4 -51l4 -29l-8 -10h-13q-10 4 -22 82z" />
<glyph unicode=")" horiz-adv-x="905" d="M-219 -260l16 10q78 18 125 43q43 18 103 72q188 158 415 573q236 435 236 660l-4 84q0 14 16 12l8 -12l15 -95l6 -98q0 -313 -190.5 -650t-463.5 -511q-102 -61 -225 -94l-41 -10q-10 0 -16 16z" />
<glyph unicode="*" horiz-adv-x="557" d="M276 1262q0 12 12.5 21t35.5 13q10 -2 18 -6t24.5 -13t41.5 -13q16 0 28 22l-8 19q-8 12 -53 26.5t-45 38.5q0 18 18.5 39t42.5 21h15q31 -23 30 -50l-2 -28l6 -37q6 -12 27 -15l10 5l15 18l-7 88q0 14 10.5 22.5t34.5 12.5q20 0 40 -13.5t20 -33.5q0 -18 -45 -44 t-45 -59q0 -12 28 -14l11 2l39 31q29 25 51 28q18 0 26.5 -12t12.5 -41q0 -18 -13.5 -32.5t-29.5 -16.5q-2 0 -9.5 2t-25 14.5t-39.5 16.5l-14 -4q-16 -8 -21 -19q6 -25 22.5 -32t47.5 -7q23 -8 28 -32q0 -16 -24 -39q-25 -18 -47 -19q-25 0 -33 52q0 45 -25 63l-12 -4 q-16 -16 -20 -33q0 -16 10 -39l10 -31q0 -12 -13.5 -23t-31.5 -11t-38.5 13t-22.5 36q0 18 38.5 41.5t38.5 56.5q0 12 -20 14q-25 0 -68 -43q-18 -18 -39 -22q-18 0 -30 22q-11 28 -11 48z" />
<glyph unicode="+" horiz-adv-x="987" d="M158 340v55h338v338h55v-338h336v-55h-334v-340h-55v340h-340z" />
<glyph unicode="," horiz-adv-x="301" d="M-27 -227l4 6q55 27 102.5 62.5t74.5 88.5l14 35v8q-6 18 -34 36t-32 50q0 43 35 91q39 45 82 45q68 0 68 -76q0 -72 -113 -217.5t-184 -145.5q-15 1 -17 17z" />
<glyph unicode="-" horiz-adv-x="645" d="M172 389q6 18 33 27l55 8q55 0 191 -14l116 -9l33 5l27 6l8 -4l2 -9q0 -20 -19.5 -27t-54.5 -7q-20 0 -57 2t-84 8l-129 12l-55 -8l-50 -6z" />
<glyph unicode="." horiz-adv-x="301" d="M98 51q0 45 38 91t81 46q27 0 41 -20.5t18 -50.5q0 -41 -40 -88q-18 -20 -38 -32.5t-40 -12.5q-29 0 -45 16q-10 16 -15 51z" />
<glyph unicode="/" d="M111 10q12 25 22 43q20 35 74 123l186 297l121 189l88 137l94 135l64 86q47 60 76 78l8 2l8 -2q4 -4 4 -17q-12 -18 -20 -32q-18 -29 -68 -95l-109 -141q-213 -281 -395 -610l-63 -113q-47 -80 -68 -100q-20 0 -22 20z" />
<glyph unicode="0" horiz-adv-x="729" d="M145 201q0 154 70 307.5t186 259.5q20 18 54 45q45 37 88 64q92 55 168 55q84 0 127 -86q31 -66 30 -162q0 -221 -161 -465q-178 -268 -390 -268q-92 0 -137 82q-35 66 -35 168zM211 94q0 -51 22.5 -86t69.5 -35l16 2q104 14 201 158q41 61 129 238q47 96 94 215 q55 147 56 221q0 41 -25 78q-27 33 -69 33q-68 0 -130 -64l-57 -72q-37 -49 -83 -133t-101 -203q-123 -262 -123 -352z" />
<glyph unicode="1" horiz-adv-x="729" d="M145 8l7 8l8 7l37 -7q41 0 84 52q14 16 24 35.5t29 56.5l215 514l22 57l17 60q-12 37 -58 36l-55 -4l-6 2q-12 0 -18 19l6 10l6 6l24 4l39 -4q74 0 125 12.5t105 53.5l20 16l12 -4l5 -8l-29 -66l-37 -80l-262 -600l-31 -65q-10 -29 -14 -64l4 -14q6 -14 16 -18l45 -5 l29 2q12 -4 12 -18l-2 -8l-18 -10l-148 10l-112 -4l-80 -6l-12 4q-10 6 -9 20z" />
<glyph unicode="2" horiz-adv-x="729" d="M10 0q0 20 3 32.5t12.5 36t37.5 64.5q70 115 203 193l223 106q125 61 177 133q6 10 21 39t26 53q23 57 22 99q0 61 -50 101t-116 40q-51 0 -103 -33t-52 -82q0 -20 43 -51q18 -10 22 -31q0 -29 -24.5 -54t-57.5 -30q-39 0 -63 25q-20 27 -21 68q0 92 88 150.5t189 58.5 q115 0 186 -46q88 -57 88 -163q0 -162 -157 -246l-330 -123q-207 -80 -287 -211l68 29q34 10 71 10q49 0 117 -25q147 -55 193 -55q43 0 77 41q25 29 50 80l14 6l16 -10l-26 -51l-27 -45q-35 -57 -61 -89q-45 -45 -97 -45q-59 0 -168.5 74t-181.5 74q-27 0 -49.5 -19.5 t-22.5 -46.5q0 -12 11 -28l24 -25q-6 -16 -18 -24l-33 -15q-35 4 -37 35z" />
<glyph unicode="3" horiz-adv-x="729" d="M84 131q0 49 27.5 85t76.5 36q29 0 53.5 -17.5t24.5 -48.5q0 -35 -55 -59q-55 -18 -55 -57q0 -43 55 -74q45 -23 98 -23q109 0 197 119q41 57 61.5 111.5t20.5 113.5q0 57 -39 90t-98 33l-60 -10l-39 -4q-23 0 -22 31q0 29 45 28l45 -4l47 -4q117 0 216 89t99 208 q0 59 -42 89t-105 30q-53 0 -112.5 -29.5t-59.5 -83.5q0 -20 30.5 -37.5t30.5 -46.5q0 -33 -28.5 -56.5t-57.5 -23.5q-35 0 -57.5 23t-22.5 59q0 98 95 160q84 51 190 51q104 0 174 -39q90 -49 90 -145q0 -106 -106 -176q-80 -49 -205 -74l-57 -8q-31 -2 -33 -10l16 -11 l29 -10q66 -20 112 -78.5t46 -124.5q0 -121 -134 -204q-117 -74 -249 -74q-96 0 -160 41q-82 51 -82 135z" />
<glyph unicode="4" horiz-adv-x="729" d="M86 291q14 16 28.5 29.5t84.5 72.5q139 119 209 195q115 119 114 174q0 20 -8 37l-22 59q0 29 20 42t55 18q37 0 59.5 -16.5t22.5 -51.5q0 -72 -190 -260q-41 -41 -264 -236h329l275 557l8 -2l53 2l90 9q14 0 17 -11l-15 -10q-41 -12 -61 -51l-123 -246l-123 -246h109 q37 0 49 15l22 32h11l10 -6q-8 -31 -23 -55l-26 -55l-6 -6l-183 -2l-73 -148l-33 -72l6 -20q25 -10 49 -14l61 -2l11 -5l6 -8v-8q-6 -8 -10 -10l-15 -6q-23 0 -35 4l-24 6l-123 6l-90 -6l-92 -6l-8 4l-7 10l-4 4l2 8l7 7l10 2l37 -2q74 0 110 67l96 189h-389z" />
<glyph unicode="5" horiz-adv-x="729" d="M98 109q0 43 28 78.5t71 35.5q29 0 53 -22q25 -18 26 -47q0 -29 -24 -54q-25 -20 -53 -18l-13 -6l-10 -27q0 -33 32 -51t71 -18q119 0 225 163q96 150 96 279q0 47 -29 84q-25 37 -73 37q-61 0 -117 -58l-113 -131q-12 6 -16 11l-6 18q0 12 43 92l117 203q20 37 47 102 l43 115l131 -12l127 -6l100 2q33 0 68 24l26 29q10 14 16.5 17t10.5 5l14 -8q-4 -18 -16 -39l-27 -45q-45 -63 -84 -86q-45 -20 -117 -20l-118 2l-142 16q-59 -143 -147 -291q72 53 113 70q18 6 38.5 10t45.5 4q86 0 141 -56t55 -142q0 -154 -138 -283t-296 -129 q-80 0 -133 35q-66 43 -66 117z" />
<glyph unicode="6" horiz-adv-x="729" d="M162 209q0 246 176 473q190 246 428 246q76 0 129 -31q63 -39 63 -111q0 -45 -31.5 -79.5t-74.5 -34.5q-31 0 -49.5 17.5t-18.5 45.5q0 33 23.5 50.5t58.5 17.5l15 8l8 27q0 31 -43 50t-74 19q-162 0 -303 -209q-92 -137 -164 -360q72 111 117 162q86 96 164 96 q70 0 114 -70q37 -59 37 -135q0 -158 -127 -296t-282 -138q-90 0 -133 84q-16 35 -24.5 74t-8.5 94zM240 74q0 -37 19 -69t60 -32q111 0 222 203q100 184 100 307q0 39 -16.5 64.5t-51.5 25.5q-100 0 -221 -200q-113 -190 -112 -299z" />
<glyph unicode="7" horiz-adv-x="729" d="M162 35q0 29 20 69l39 62q68 100 219 207q213 147 246 178q25 20 51 49q18 20 46 51t40 47q25 37 37 56l-41 -13l-39 -4q-45 0 -112 13q-156 29 -191 28q-80 0 -119 -39l-69 -106q-6 2 -9.5 6t-3.5 6q12 72 89 175.5t145 103.5q59 0 131 -50q156 -109 180 -112 q23 0 41 20q10 16 15 49q-6 12 -25 19l-31 14l-6 8l-4 13q0 23 24.5 41t51.5 22q37 0 37 -41q0 -156 -160 -319l-275 -254q-37 -41 -63.5 -74t-44.5 -57q-43 -68 -62 -160l-8 -45q-6 -16 -32 -35l-25 -10q-45 0 -68.5 19.5t-23.5 62.5z" />
<glyph unicode="8" horiz-adv-x="729" d="M106 158q0 104 121 193t238 102l-62 108q-30 66 -30 121q0 106 93 178t204 72q86 0 144 -47t58 -133q0 -100 -151 -189q-14 -8 -57 -26.5t-80 -32.5q53 -63 86 -119q51 -86 51 -137q0 -131 -93 -215t-227 -84q-104 0 -190 49q-104 59 -105 160zM199 137q0 -72 51 -121 q53 -43 129 -43q88 0 153.5 53.5t65.5 139.5q0 57 -36 132t-83 134q-115 -25 -192 -100q-88 -84 -88 -195zM487 741q0 -29 2.5 -43t15.5 -52t64 -118q129 61 181 127q43 55 43 125q0 53 -41 94t-97 41q-72 0 -120 -50t-48 -124z" />
<glyph unicode="9" horiz-adv-x="729" d="M35 90q0 47 32.5 86t77.5 39q27 0 45.5 -19.5t18.5 -50.5q0 -39 -39 -53l-45 -6l-16 -12l-5 -19q0 -37 35 -57q41 -20 80 -21q162 0 303 203q111 162 160 355q-37 -53 -61 -89q-33 -43 -54 -65q-85 -92 -157 -92t-114 63.5t-42 141.5q0 158 126 296t284 138q92 0 135 -80 q33 -66 32 -166q0 -244 -176 -475q-188 -248 -424 -248q-76 0 -127 29q-70 39 -69 102zM354 412q0 -43 13.5 -72t54.5 -29q104 0 223 207q109 188 109 307q0 37 -23.5 62.5t-58.5 25.5q-104 0 -217 -200q-100 -184 -101 -301z" />
<glyph unicode=":" horiz-adv-x="387" d="M154 61q0 41 36.5 88.5t77.5 47.5q25 0 41 -23q18 -18 19 -47q0 -45 -38 -92t-79 -47q-25 0 -43 20q-12 20 -14 53zM408 492q0 49 33.5 93t84.5 44q16 0 32.5 -19.5t16.5 -54.5q0 -45 -34.5 -86t-77.5 -41q-20 0 -35.5 18.5t-19.5 45.5z" />
<glyph unicode=";" horiz-adv-x="387" d="M23 -219q53 25 118 80q76 66 76 112q0 10 -45 47q-18 14 -22 39q0 51 35.5 93.5t86.5 42.5q31 0 45.5 -28t14.5 -58q0 -68 -116 -209.5t-179 -141.5q-12 1 -14 15v8zM416 500q0 45 33.5 89t80.5 44q25 0 43.5 -19.5t18.5 -46.5q0 -41 -38 -88t-79 -47q-20 0 -39.5 22.5 t-19.5 45.5z" />
<glyph unicode="&#x3c;" horiz-adv-x="1150" d="M72 434v123l995 449v-134l-831 -376l831 -379v-133z" />
<glyph unicode="=" horiz-adv-x="987" d="M104 451v57h838v-57h-838zM106 231v58h836v-58h-836z" />
<glyph unicode="&#x3e;" horiz-adv-x="1150" d="M84 -16v133l831 379l-831 376v134l995 -449v-123z" />
<glyph unicode="?" horiz-adv-x="946" d="M248 59q0 39 33.5 81t74.5 42q23 0 38.5 -18.5t19.5 -46.5q0 -41 -32 -85t-73 -44q-25 0 -45 20q-12 18 -16 51zM387 293q0 63 172 203q268 217 320 268q172 172 172 328q0 66 -45 108q-45 39 -115 39q-76 0 -147.5 -50t-71.5 -122q0 -20 27.5 -43t29.5 -47 q0 -43 -30.5 -74t-73.5 -31q-33 0 -56.5 27t-23.5 64q0 115 117.5 203.5t238.5 88.5q109 0 186.5 -68.5t77.5 -176.5q0 -158 -186 -295q-41 -31 -346 -201q-186 -102 -187 -180q0 -10 13 -27l26 -18l4 -8q-12 -43 -59 -43q-18 0 -33 16q-6 12 -10 39z" />
<glyph unicode="@" horiz-adv-x="1986" d="M285 709q0 303 216 519t523 216q272 0 467 -168q207 -176 207 -445q0 -195 -133 -372q-145 -193 -334 -193q-53 0 -90 35t-37 88q-51 -53 -113.5 -88t-126.5 -35q-121 0 -203.5 92.5t-82.5 221.5q0 205 120 364q133 176 332 176q80 0 135 -41q53 -35 90 -112l39 123h133 l-141 -482l-22 -88l-15 -69q0 -29 7.5 -42.5t35.5 -15.5q119 0 203 158q74 135 74 264q0 227 -158 366.5t-389 139.5q-258 0 -425 -180t-167 -445q0 -260 175 -436t433 -176q137 0 262 58.5t213 164.5h132q-92 -160 -258 -252t-353 -92q-311 0 -530 216t-219 530zM739 596 q0 -80 43 -134t121 -54q117 0 211 139q43 66 62.5 125t19.5 127q0 70 -47 123q-45 57 -113 57q-123 0 -215 -131q-82 -123 -82 -252z" />
<glyph unicode="A" horiz-adv-x="1890" d="M250 399q0 195 172 334q160 129 364 129q135 0 234 -65q115 -74 115 -201q74 6 150.5 10t162.5 4l192 219q53 57 109.5 111.5t103.5 91.5q115 90 224 150q123 66 254 90l53 8q18 6 18 18l-6 11q-29 0 -51 8l-88 24q-203 49 -412 50q-238 0 -452 -99q-266 -123 -267 -336 q0 -68 50 -110q25 -20 53 -30.5t65 -10.5q109 0 225.5 90t116.5 199q0 18 -14 34l-35 27l-8 14l6 9l8 4q23 0 47 -43q16 -41 21 -76q0 -117 -107.5 -201t-228.5 -84q-104 0 -181 74t-77 176q0 201 221 318q178 92 406 92q121 0 242.5 -14.5t242.5 -45.5l148 -39 q86 -22 146 -22h5q18 0 47 12l53 29q12 -8 17 -12l6 -21q0 -35 -25 -53q-25 -12 -65 -12l-49 2q-115 0 -248 -107q-84 -68 -195 -201l-84 -116l-125 -209q96 0 166 20q115 31 115 96q0 12 -12 25l-21 25q0 23 15.5 35t40.5 16q39 0 38 -49q0 -102 -135 -156 q-98 -37 -225 -37q-35 -70 -57.5 -122t-34.5 -91q-39 -123 -39 -229q0 -63 14 -101q23 -57 74 -57q63 0 111 78l69 127l13 6l8 -4l4 -6q-16 -66 -76 -137q-70 -82 -131 -82q-82 0 -137 120q-43 98 -43 197q0 59 4 84t18 68l56 143l-148 -4l-170 -223q-86 -106 -172 -185 q-106 -92 -237 -153q43 -41 94 -62.5t104 -21.5q68 0 106 22.5t72 77.5l11 4l6 -2l4 -6l2 -10l-4 -17q-45 -45 -87 -68.5t-102 -23.5q-31 0 -60.5 6.5t-64.5 20.5q-55 23 -108 74l-105 -25l-73 -4q-193 0 -320 102q-143 113 -143 299zM406 119q111 -80 249 -80h60q25 6 35 8 q47 10 98 33q-45 90 -45 166l2 49q-92 18 -129 39q-70 39 -70 106q0 27 12.5 45.5t30.5 34.5l17 4l6 -2l8 -12l-33 -33q-18 -16 -22 -39q0 -61 69 -88q49 -18 123 -18q35 113 101.5 167t183.5 85l2 28q0 94 -80 150q-72 45 -172 45q-186 0 -369 -139q-198 -149 -198 -326 q0 -135 121 -223zM817 246q0 -35 12.5 -81t34.5 -75q137 53 299 221l260 277h-118l-99 -6l-69 -9q-31 -135 -99.5 -190t-214.5 -86zM817 346q0 -8 16 -8h7q191 43 252 223l2 19q-6 6 -11 6q-37 0 -151.5 -103.5t-114.5 -136.5zM1526 621l139 2q49 117 168 247 q143 156 401 330l15 8q16 12 20 25l-53 -12q-63 -20 -132 -57.5t-132 -88.5q-104 -80 -232 -219q-70 -78 -194 -235z" />
<glyph unicode="B" horiz-adv-x="1931" d="M223 319q0 158 142 269q131 96 299 96q68 0 125 -12.5t110 -40.5q127 -66 127 -189q0 -106 -96 -176q-84 -59 -199 -59q-78 0 -135 35q-72 43 -72 112q0 43 35 75t76 32q18 0 27 -10l-7 -17l-12 -2l-35 4q-27 0 -47 -22q-12 -18 -16 -54q0 -57 59 -90q47 -24 110 -24h5 q100 0 184 51q100 59 101 154q0 86 -99 135q-82 41 -178 41q-164 0 -305 -80q-166 -96 -166 -252q0 -123 125 -203q107 -67 238 -67h4q199 0 362 125q127 94 268 292l217 328q102 147 205 266q61 70 117.5 125.5t124.5 108.5q-180 102 -375 102q-236 0 -444 -133 q-240 -152 -240 -373q0 -82 61.5 -135t143.5 -53q106 0 222 114.5t116 221.5q0 53 -32 87t-83 34q-59 0 -113.5 -43t-54.5 -105q4 -33 10 -49l-14 -12l-8 2q-12 23 -12 45q0 76 59 126t139 50q70 0 111 -48t41 -122q0 -141 -107.5 -230.5t-251.5 -89.5q-115 0 -201.5 80 t-86.5 201q0 225 239 358q199 109 445 109q70 0 124 -6t109 -23q106 -25 228 -94q98 80 215 135q137 66 243 66q61 0 101.5 -25.5t40.5 -87.5q0 -98 -98.5 -164.5t-196.5 -66.5q-33 0 -66 18.5t-37 52.5q0 31 27 43l14 -10l-14 -33q0 -14 16 -28q12 -6 37 -10 q72 0 178.5 71.5t106.5 138.5q0 35 -30 55.5t-71 20.5q-111 0 -229 -63q-68 -37 -203 -137q66 -49 101 -109q37 -55 37 -131q0 -158 -129 -248q-96 -63 -281 -88q96 -12 169 -92t73 -182q0 -150 -133.5 -284t-280.5 -134q-82 0 -130 53t-48 133q0 104 89 200.5t195 96.5 q25 0 54 -12l8 -10l-10 -19q-18 0 -43 8l-33 11q-66 0 -152 -111q-43 -57 -62.5 -101t-19.5 -81q0 -61 29 -99t88 -38q113 0 234 178q110 165 110 286q0 84 -47 133.5t-131 49.5l-25 -2l-32 2q-12 2 -17 18l4 19q18 31 37 30l25 -16q20 -16 53 -16q117 0 215 131 q92 123 92 243q0 45 -14 82t-47 78q-100 -100 -209 -248q-84 -117 -180 -272q-190 -313 -211 -338q-129 -184 -264 -277q-167 -114 -377 -114h-4q-176 0 -318 73q-168 90 -168 256z" />
<glyph unicode="C" horiz-adv-x="1245" d="M233 254q0 229 175.5 512t418.5 471q267 205 500 205q117 0 196 -67.5t79 -186.5q0 -141 -117 -269t-258 -128q-94 0 -154.5 52t-60.5 142q0 92 74.5 166t168.5 74q25 0 53.5 -10.5t37.5 -34.5l-11 -15l-6 2q-12 18 -29 27l-30 8q-82 0 -150 -86q-31 -43 -47 -86t-16 -90 q0 -51 35 -86q39 -33 88 -33q123 0 242.5 147.5t119.5 272.5q0 88 -53 129q-51 45 -139 45q-174 0 -375 -168q-164 -137 -336 -373q-131 -186 -223 -368q-37 -80 -72 -182.5t-35 -178.5q0 -129 86 -221t219 -92q203 0 396 254q182 242 182 449q0 74 -42 123t-118 49 q-141 0 -261 -153t-120 -296q0 -55 32 -93t91 -38q61 0 98 49l58 103l8 6l6 -2q12 -6 12 -19l-6 -14l-12 -12q-20 -35 -33.5 -52.5t-34.5 -38.5q-44 -38 -103 -38h-3q-72 0 -121 63q-45 68 -45 145q0 150 130 280t286 130q111 0 178.5 -79t67.5 -193q0 -233 -196 -441.5 t-429 -208.5q-180 0 -291 131.5t-111 317.5z" />
<glyph unicode="D" horiz-adv-x="1675" d="M252 61q0 61 64.5 94t132.5 33q70 0 163 -20q100 -18 174 -45q147 80 328 336l160 233q104 152 164 226q31 41 50 63.5t58 65.5q-92 129 -254 197.5t-336 68.5q-231 0 -430 -125q-229 -143 -229 -363q0 -123 79 -199.5t204 -76.5q145 0 280 108.5t135 253.5q0 70 -47 112 t-114 42q-84 0 -164 -59q-80 -55 -80 -138q0 -57 51 -75v-9l-12 -10q-23 0 -42.5 35t-19.5 61q0 90 81 149.5t175 59.5q96 0 157.5 -59t61.5 -158q0 -139 -141 -250q-131 -100 -278 -100q-154 0 -262.5 99.5t-108.5 254.5q0 231 205 385q184 135 432 135q199 0 385 -81.5 t293 -239.5q168 168 340 268q213 119 413 119q61 0 123 -11t62 -48q-16 -47 -62 -47q-6 4 -11 8t-15 18q-16 29 -29 37l-35 12l-41 4q-174 0 -381 -161q-156 -119 -299 -308q39 -57 63.5 -162.5t24.5 -191.5q0 -244 -141 -422q-154 -190 -393 -190q-90 0 -199 30 q-53 12 -192 70q-43 -18 -106.5 -40.5t-110.5 -37.5q-94 -24 -199 -24h-8q-45 0 -82 16t-37 57zM324 20q33 -6 47 -8t47 -2q82 0 170 29q70 20 160 63q-146 62 -293 62q-59 0 -109 -21q-67 -29 -67 -76q0 -34 45 -47zM836 111q82 -31 161 -50q41 -8 78 -12t82 -4 q227 0 377 205q135 184 135 422q0 78 -12 139q-8 61 -45 121l-344 -453q-197 -238 -432 -368z" />
<glyph unicode="E" horiz-adv-x="1245" d="M217 295q0 246 240 405q195 129 469 160q-51 33 -86 97.5t-35 125.5q0 188 203 285q156 72 370 72q121 0 209 -47q115 -59 115 -166q0 -119 -113 -195q-99 -65 -223 -65h-4q-78 0 -145 30q-84 41 -84 113q0 61 59 102q66 39 129 39q43 0 57 -4q23 -2 39 -20l2 -6l-2 -9 l-6 -4l-6 -2l-39 13q-29 12 -49 12q-61 0 -109.5 -30t-48.5 -87q0 -39 36 -66.5t112 -27.5q115 0 229 55q137 70 137 174q0 78 -84 121q-37 16 -72.5 24.5t-82.5 8.5q-170 0 -347 -125q-192 -136 -192 -297q0 -82 63 -119l52 4h45h57q104 0 152.5 -10t68.5 -33l4 -10 q0 -20 -47 -29l-92 -4q-61 0 -108.5 11.5t-65.5 17.5t-57 27q-225 0 -433 -217.5t-208 -448.5q0 -133 89 -206t228 -73q184 0 384 194t200 378q0 74 -52.5 112.5t-130.5 38.5q-129 0 -257 -131t-128 -258q0 -51 31 -90t86 -39q57 0 93 32t55 91l8 8l8 2l14 -10 q-31 -66 -71.5 -102.5t-104.5 -36.5q-68 0 -117 50t-49 120q0 147 141.5 266t290.5 119q102 0 172 -69.5t70 -172.5q0 -207 -203 -373q-189 -153 -408 -153h-3q-190 0 -322.5 118.5t-132.5 309.5z" />
<glyph unicode="F" horiz-adv-x="1589" d="M236 455q0 190 141 319t334 129q156 0 264 -84q123 -92 123 -241q0 -125 -87 -215.5t-212 -90.5q-90 0 -168 50q-82 57 -82 145q0 74 52 123t130 49l35 -6l6 -6l-2 -6q-4 -8 -8 -11l-8 -4l-39 8q-57 0 -100.5 -41t-43.5 -100q0 -70 53.5 -112t123.5 -42q125 0 223 83 t98 204q0 109 -98 182q-86 61 -207 62q-180 0 -336 -126t-156 -306q0 -176 154 -299q143 -109 328 -109q88 0 171 24.5t154 80.5l-12 57l-6 57q0 147 123 252q90 78 260 131q35 68 72 133q31 55 57 99q88 139 180 219q115 98 236 98l49 -6l37 -4q10 -4 16 -18l-2 -9l-21 -6 q-14 0 -39.5 11.5t-37.5 11.5q-154 0 -279 -180q-72 -104 -156 -320q70 12 132 45q92 43 92 90q0 10 -13 35l-10 31q0 16 13.5 25.5t33.5 11.5q47 0 47 -48q0 -74 -116 -145q-76 -43 -189 -72q-72 -233 -133 -340q-98 -178 -258 -245q35 -45 92 -78q59 -27 121 -27 q39 0 80 25l45 22q10 0 20 -18q0 -16 -55 -33l-86 -14q-141 0 -239 112q-68 -29 -148 -43q-39 -8 -73.5 -12t-75.5 -4q-240 0 -410 125q-190 139 -190 371zM836 1223q0 94 85 148t185 54q41 0 59.5 -2t54 -15t107.5 -54l113 32q33 6 54.5 8.5t64.5 2.5q238 0 512 -80 l202 -57q121 -31 211 -31q72 0 113 20q57 29 57 90q0 80 -92 123q-68 31 -166 31q-76 0 -121 -13.5t-73 -62.5l-15 -18l-8 -2q-18 0 -18 26q0 41 102 72q72 18 143 18q98 0 177 -38q98 -49 98 -140q0 -92 -101 -153q-88 -53 -184 -54q-125 0 -291 56l-329 110 q-164 55 -299 56q-43 0 -64.5 -3.5t-58.5 -13.5q133 -115 133 -293q0 -104 -49 -184q-59 -96 -158 -96q-92 0 -144.5 79t-52.5 173q0 109 62 194q49 66 158 140q-84 59 -205 59q-94 0 -167 -53.5t-73 -145.5q0 -25 11.5 -46t39.5 -44l4 -16l-6 -10h-8l-12 2q-51 51 -51 131z M1079 244l2 -62q4 -25 17 -49q96 66 192 203q69 103 137 248q-135 -39 -231 -117q-117 -96 -117 -223zM1102 1012q0 -82 45 -158q47 -72 127 -72q88 0 133 88q33 72 33 168q0 88 -25.5 160t-87.5 125q-100 -43 -162.5 -122.5t-62.5 -188.5z" />
<glyph unicode="G" horiz-adv-x="1548" d="M162 176q0 111 92 193t205 82q127 0 233 -82q53 -41 80 -90.5t27 -114.5q0 -78 -56 -131q-55 -49 -139 -49q-49 0 -98 36q-45 39 -45 91q0 25 18 24l8 -6l2 -8l-2 -25q0 -45 48.5 -68.5t97.5 -23.5q53 0 98 48t45 100q0 111 -87 178t-197 67q-119 0 -207 -85t-88 -203 q0 -172 182 -297q164 -111 346 -111q154 0 283 86q106 68 209 211q68 92 161 256l82 147q47 86 88 146l21 31l16 30l-10 6l-8 -2q-20 -14 -51 -51l-50 -61q-88 -111 -194 -191q-141 -106 -240 -106q-106 0 -172 104q-55 90 -55 207q0 358 385 657q362 283 731 283 q94 0 154 -39q72 -47 71 -135q0 -166 -172 -307q-162 -131 -336 -131q-78 0 -133 34.5t-55 110.5q0 94 90 172t186 78q45 0 77 -13.5t40 -54.5l-6 -8l-16 -6l-4 6q0 25 -17 39q-25 20 -69 21q-92 0 -177.5 -73t-85.5 -165q0 -55 42 -83t98 -28q152 0 319 138 q178 145 178 290q0 68 -44 100t-111 32q-197 0 -459 -175q-244 -164 -422 -401q-188 -254 -188 -453q0 -72 37 -127q39 -51 110 -51q123 0 268 133l228 248q117 133 172 133q23 0 28 -22l-4 -17l-18 -18l-19 -14q-49 -39 -85.5 -95.5t-67.5 -123.5l-178 -467 q-111 -231 -379 -299l-74 -15l-78 -6q-258 0 -444 125q-215 141 -215 389z" />
<glyph unicode="H" horiz-adv-x="2021" d="M223 367q0 168 133 271t306 103q133 0 225 -59q108 -67 108 -193q0 -100 -89 -163.5t-189 -63.5q-78 0 -135 29q-78 37 -78 104l4 15l4 10l8 2h8l7 -2l2 -27v-22q0 -43 65 -68q25 -6 47.5 -10t55.5 -4q96 0 180 55q92 61 92 156q0 96 -96 149q-39 20 -85 32.5t-98 12.5 q-166 0 -297 -82q-151 -91 -151 -250q0 -162 149 -256q125 -77 297 -77h4q66 0 125.5 12t141.5 43l-9 45l-2 53q0 154 177 287q121 94 317 166l106 199q61 113 136 214t147 158q39 31 90 64l105 63q-6 25 -190.5 48.5t-256.5 23.5q-88 0 -143 -6q-20 0 -54 -6.5t-73 -16.5 q-156 -37 -273 -147q-131 -125 -131 -275q0 -66 37 -120q35 -47 107 -72q-12 53 -13 106q0 123 90.5 229.5t208.5 106.5q72 0 117 -48t45 -118q0 -137 -121 -227q-113 -82 -254 -82l-34 2q29 -37 61 -63q35 -20 78 -21q18 0 37 10l20 13q6 -2 11 -19q-17 -22 -57 -22h-3 q-117 0 -172 108q-102 35 -167.5 116t-65.5 187q0 203 227 314q182 88 408 88l169 -6q43 0 92.5 -10.5t69.5 -14.5l129 -27q45 -8 74 -12t59 -4q27 0 56 27l32 26q33 0 33 -39q0 -41 -41 -59l-80 -16q-156 -37 -292 -254q-96 -150 -168 -369l301 78l104 166q57 82 121 157 q104 119 246 230q180 137 293 137q69 0 69 -64q0 -39 -24 -81q-23 -47 -54 -82q-113 -150 -272 -258q-117 -80 -330 -181l-164 -325q-94 -213 -94 -344q0 -55 17.5 -83t46.5 -32q51 0 98 66l90 163h12l5 -16l-25 -53q-37 -74 -70 -113q-54 -65 -108 -65h-2q-68 0 -101 100 q-24 71 -24 152v6q0 90 24.5 178t122.5 313l-295 -76q-119 -266 -215 -381q-123 -147 -358 -251q49 -66 113 -103q33 -16 65.5 -24.5t79.5 -8.5q80 0 137.5 32t89.5 104l15 6q12 -12 14 -21q-12 -59 -99 -101t-157 -42q-88 0 -159.5 39t-121.5 114q-115 -28 -218 -28h-7 q-205 0 -358 84q-190 104 -191 291zM973 143q0 -18 10 -51q109 37 256 221q99 125 195 293q-164 -45 -299 -155q-80 -66 -121 -134.5t-41 -144.5v-29zM1065 844l2 -45l16 -49l27 -5h29q113 0 216 98.5t103 215.5q0 55 -34.5 90t-88.5 35q-104 0 -187 -116t-83 -224z M2079 815q199 96 321 184q152 109 262 258l37 62q19 37 19 57q0 55 -60 56q-127 0 -325 -248q-86 -111 -254 -369z" />
<glyph unicode="I" horiz-adv-x="1589" d="M227 389q0 178 150 289q135 98 321 98q139 0 240 -63q119 -76 119 -207q0 -115 -91.5 -191.5t-205.5 -76.5q-82 0 -146 41q-75 50 -75 122q0 37 29.5 60.5t70.5 34.5l29 -13l2 -6q-8 -10 -13 -12h-30q-27 0 -47.5 -18.5t-22.5 -47.5q0 -53 51 -90q55 -33 113 -33 q104 0 203 74q53 41 79.5 84t26.5 96q0 90 -78 136.5t-176 46.5q-170 0 -319 -107q-166 -117 -166 -280q0 -154 158 -244q135 -76 299 -76q254 0 460 193q145 133 326 426q219 358 285 440q94 119 223 199l139 73l2 6q-6 6 -29 13l-75 22q-86 23 -200 39.5t-200 16.5 q-260 0 -477 -115q-266 -143 -266 -379q0 -84 74 -145q74 -55 166 -56q125 0 243.5 102.5t118.5 223.5q0 53 -37 95t-94 42q-76 0 -153.5 -65.5t-77.5 -139.5q0 -57 53 -71l8 -11l2 -6q-4 -8 -8 -8l-6 -2q-29 0 -51 29q-16 29 -21 61q0 84 82 157t174 73q76 0 123 -53.5 t47 -131.5q0 -133 -116.5 -229t-256.5 -96q-127 0 -229.5 90t-102.5 217q0 231 222 360q182 104 436 105q274 0 520 -68l84 -27l40 -8t46 -8q25 0 53 21l52 32l10 -4q18 -10 18 -28q0 -35 -24 -54q-14 -8 -62 -18q-150 -25 -264 -121q-88 -74 -176 -221q-29 -47 -54.5 -98.5 t-78.5 -165.5q-121 -260 -203 -383q-117 -170 -277.5 -259t-416.5 -89q-213 0 -377 92q-195 111 -195 315z" />
<glyph unicode="J" horiz-adv-x="1718" d="M166 125q0 227 201 391q188 154 421 154q154 0 267 -72q135 -86 135 -229q0 -160 -156 -265q-141 -94 -307 -94q-82 0 -149 37q-82 45 -82 123q0 57 43 100t106 43q61 0 82 -45v-10l-4 -8l-12 -6l-9 8q-6 27 -22 37l-33 6q-53 0 -94 -32t-41 -83q0 -68 61 -108 q61 -37 138 -37q145 0 287.5 113.5t142.5 259.5q0 109 -84 165q-74 49 -189 50q-217 0 -424 -174q-217 -182 -217 -394q0 -172 166 -276q141 -86 330 -86q113 0 210 30.5t185 96.5q139 102 268 305q63 104 195 375q-119 29 -203 108q-98 92 -98 203q0 229 317 367 q131 55 519 141l106 27q63 18 94 53l25 28q18 18 31 19q18 0 26 -14l8 -37q0 -29 -16 -43q-6 -10 -45 -19l-66 -10l-53 -18q-41 -16 -84 -47t-76 -64q-102 -96 -219 -324q-92 -182 -153 -364l24 -2q84 0 150 67l30 37l7 2l8 -4l6 -12q-8 -51 -96 -84q-68 -25 -135 -25 q-76 -227 -154 -372q-98 -178 -229 -279q-145 -111 -373 -156l-76 -12l-76 -6q-244 0 -411 109q-203 129 -203 356zM1389 766q0 -90 55 -164q55 -66 147 -82q100 203 146 279q88 160 168 258q90 116 221 225l2 6l-8 4q-31 0 -62 -8l-63 -16q-166 -43 -269 -88 q-150 -63 -235 -156q-102 -113 -102 -258z" />
<glyph unicode="K" horiz-adv-x="2062" d="M137 375q0 168 146 287q137 108 311 108q131 0 227 -63q117 -74 117 -199q0 -109 -90 -186.5t-203 -77.5q-78 0 -135 32q-74 41 -74 115q0 43 30 73t73 30l18 -9q0 -16 -14 -18l-23 6q-29 0 -48 -26.5t-19 -57.5q0 -51 51 -80.5t108 -29.5q106 0 204.5 73.5t98.5 179.5 q0 86 -86 135.5t-182 49.5q-162 0 -311 -107q-162 -119 -162 -274q0 -143 154 -236q129 -77 282 -77h4q283 0 508 227q106 113 348 493q207 334 369 465q41 33 94.5 57.5t134.5 47.5l3 6l-31 14l-27 8q-117 35 -248 58q-55 10 -116.5 16t-124.5 6q-115 0 -222.5 -22.5 t-203.5 -77.5q-115 -63 -185 -145q-45 -51 -67.5 -103.5t-22.5 -107.5q0 -92 72 -164t164 -72q117 0 236.5 105.5t119.5 228.5q0 113 -112 113q-78 0 -160 -63.5t-82 -135.5q0 -55 49 -55l6 -4l4 -7q-10 -12 -18 -14l-12 2q-25 16 -39.5 36.5t-14.5 51.5q0 84 81 150.5 t169 66.5q72 0 119 -47t47 -119q0 -127 -112.5 -230t-245.5 -103t-227.5 94t-94.5 229q0 219 223 338q182 96 424 96q88 0 124 -3t132.5 -16t202.5 -42l152 -45q88 -20 147 -21q18 0 41 8l37 13q14 -6 16 -23l-8 -26q-6 -18 -14 -24.5t-41 -6.5l-51 8l-48 10 q-141 0 -274 -139q-96 -102 -201 -305l-143 -299q-145 -291 -297 -412q-185 -149 -479 -149h-4q-213 0 -373 84q-201 104 -201 301zM1591 709v8l4 12l11 8h12l24 -8l31 -2q135 0 342 197l375 368q242 199 467 199q45 0 77 -7t40 -40q-6 -18 -17.5 -29.5t-34.5 -19.5 q-12 0 -40 28q-25 31 -72 31q-137 0 -400 -237l-200 -193q-45 -39 -84 -74q-49 -43 -74 -61q-96 -74 -176 -111l-74 -28l-84 -29l-22 -8h-19l-4 -8l53 -27q92 -51 123 -227l25 -285q18 -141 100 -141q53 0 101 73q12 20 26 54q8 20 27 71l8 6l8 2l13 -8l-3 -8 q-6 -20 -10 -31l-12 -28q-37 -76 -74 -113q-49 -49 -123 -49q-27 0 -53.5 10t-48.5 27q-68 47 -96 125q-23 80 -23 186v66l2 67q0 86 -10 125q-18 72 -72 96l-22 -6l-8 2z" />
<glyph unicode="L" horiz-adv-x="1331" d="M137 156q0 111 119 186q51 31 105.5 47.5t117.5 16.5q104 0 209 -39q74 -27 193 -93q88 100 158.5 212t131.5 243l-59 -4h-49q-172 0 -307 57q-182 74 -183 222q0 147 138 245q123 86 280 86q184 0 297 -139q18 -23 19 -35l-9 -10l-14 6q-25 57 -106.5 88t-163.5 31 q-145 0 -262 -59q-145 -74 -146 -205q0 -147 180 -215q129 -45 310 -45h34h29l29 4q98 238 297 446q233 246 457 246q49 0 75.5 -20.5t26.5 -63.5q0 -102 -174 -274q-129 -127 -271 -218q-53 -33 -135 -69l-145 -51q-135 -217 -232 -330q-33 -39 -77.5 -84t-94.5 -86 q41 -27 80 -55.5t84 -65.5l154 -131q145 -129 240 -199q170 -123 270 -123q88 0 112 62l23 88l12 -2l4 -6l4 -19q0 -88 -83 -135q-70 -41 -166 -41q-135 0 -281 92q-12 8 -101 89t-276 253l-155 125l-172 -100q-174 -96 -316 -96q-84 0 -143 41q-68 47 -68 127zM162 156 q0 -72 61 -115q55 -33 133 -33q117 0 238 60q92 43 211 137q-61 55 -182 100t-213 45q-86 0 -167 -54t-81 -140zM1337 780q166 43 324 156t268 256l56 82q30 55 34 90q0 61 -67 61q-160 0 -357 -251z" />
<glyph unicode="M" horiz-adv-x="2107" d="M41 344q0 162 141 270q129 98 299 99q131 0 232 -60q118 -71 118 -192q0 -104 -96 -176q-43 -33 -90 -49.5t-102 -16.5q-41 0 -59.5 2t-49.5 15q-67 25 -67 74q0 24 5 35t21 22l10 2l9 -17l-11 -12l-10 -10l-4 -15q0 -37 48 -57t87 -20q96 0 189 55q102 61 102 158 q0 98 -92 157q-78 47 -189 47q-160 0 -294 -96q-154 -109 -154 -260q0 -123 117 -203q105 -71 230 -71h3q293 0 649 342q184 174 543 639q264 344 334 344q43 0 43 -47q0 -150 -170 -441q-53 -94 -315 -489q-170 -260 -170 -322l4 -16l10 -8h8l23 16l22 31l373 563 q266 377 487 571q301 260 586 260l66 -6q25 -6 41 -28q0 -25 -13.5 -37.5t-40.5 -18.5l-55 43q-16 10 -39 15q-129 0 -276 -133q-100 -90 -207 -242q-123 -176 -273 -471q-180 -360 -180 -492q0 -33 13.5 -57.5t50.5 -24.5q55 0 108 80l105 166l8 -10q0 -55 -88 -156.5 t-139 -101.5q-70 0 -107 78q-27 63 -27 141q0 256 265 635q240 344 485 510q-178 -80 -358 -254q-150 -143 -306 -352q-41 -55 -104 -152q-53 -80 -145 -219l-99 -154l-100 -153l-37 -45q-31 -31 -49 -31q-20 0 -33.5 19.5t-13.5 45.5q0 160 129 406q76 143 272 432 q184 270 242 385l2 12q0 16 -14 19l-11 -4l-26 -21l-60 -61l-88 -107l-229 -299l-268 -370q-168 -215 -326 -328q-201 -141 -424 -141q-180 0 -315 86q-156 100 -156 272zM686 1032q0 211 264 328q102 43 214 65.5t237 22.5q94 0 192.5 -6t216.5 -21l179 -22l127 -8l24 2 l10 6l9 8l-2 12q-1 21 26 23q25 -2 31 -12l4 -19q1 -4 1 -8q1 -19 -25 -29q-30 -12 -62 -12l-90 6l-70 10l-233 21l-230 10q-248 0 -469 -111q-270 -135 -270 -362q0 -90 76 -145q0 156 104.5 284.5t261.5 128.5q80 0 135.5 -48t55.5 -128q0 -131 -127 -225 q-115 -84 -254 -84l-74 6q-41 6 -69 20q6 -63 63 -113t127 -50q51 0 80 28l29 31q10 -10 12 -18q0 -23 -47 -42.5t-76 -19.5q-104 0 -160 86l-55 109q-82 51 -124 116.5t-42 159.5zM864 815l2 -45l56 -16q24 -6 59 -6q117 0 244 92q135 98 135 217q0 59 -43 93t-105 34 q-135 0 -241.5 -113t-106.5 -256z" />
<glyph unicode="N" horiz-adv-x="2021" d="M166 332q0 164 139 270q129 98 299 98q125 0 219 -57q111 -68 111 -190q0 -109 -88 -190t-203 -81q-78 0 -139 35q-76 45 -76 117q0 41 22.5 65.5t69.5 51.5h10q12 0 19 -17l-62 -33q-31 -23 -30 -59q0 -59 49 -94q43 -27 106 -27q109 0 199 64q100 72 100 176 q0 92 -88 143q-37 20 -79 30.5t-97 10.5q-160 0 -297 -88q-157 -97 -157 -250q0 -137 129 -227q115 -76 260 -76q115 0 209 40t194 118q61 49 125 110.5t131 135.5q111 123 223 274l207 289l187 252l59 80q45 55 70 59q29 0 36 -35l9 -76q0 -127 -52 -288 q-43 -141 -114 -297l-125 -275q-49 -109 -76 -196q-8 -35 -14 -71t-6 -61l8 -36l10 -9l14 9q37 43 92 159l80 176q172 348 234 455q162 276 332 432q215 193 450 193q49 0 76 -12t27 -31q0 -16 -19 -35q-16 -12 -41 -14l-6 4l-25 28q-25 25 -59 25q-166 0 -362 -199 q-145 -145 -322 -426q-92 -147 -221 -387l-125 -227l-39 -74l-47 -74l-16 -20q-10 -12 -25 -16q-37 0 -51 71q-8 68 -9.5 96.5t-1.5 47.5q0 129 41 270q33 123 101 270q47 104 61 135q39 74 60 115q70 137 100.5 212t30.5 116l-4 10q-10 0 -33 -18q-92 -117 -238 -334 l-223 -342q-133 -201 -242 -334q-125 -156 -268 -240q-168 -102 -344 -102q-182 0 -319 94q-156 106 -156 281zM776 1014q0 221 219 332q172 84 420 84l309 -9l287 -6l88 2q25 2 36 5t40 13.5t43 51.5q6 14 29 22q14 0 26 -18v-8q-2 -4 -4 -9.5t-8 -13.5l-25 -22 q-37 -31 -135 -43q-88 -8 -136 -9.5t-77 -1.5h-26h-23h-74l-61 2q-299 0 -451 -40q-248 -61 -362 -246q-23 -35 -37 -76t-14 -84q0 -86 66.5 -150.5t154.5 -64.5q137 0 249.5 107.5t112.5 246.5q0 53 -31.5 88t-86.5 35q-86 0 -160 -74.5t-74 -164.5q0 -37 8 -45l39 -25 l2 -12l-14 -7q-29 0 -53 39q-20 45 -21 76q0 84 83 158t171 74q80 0 131 -54.5t51 -134.5q0 -133 -115.5 -233.5t-250.5 -100.5t-230.5 92.5t-95.5 223.5z" />
<glyph unicode="O" horiz-adv-x="1331" d="M238 393q0 311 313 643q158 164 313.5 246t315.5 82q57 0 96 -16l108 38q56 19 105 19q86 0 137 -66.5t51 -158.5q0 -221 -173 -506t-421 -473q-266 -207 -491 -207q-154 0 -254 123t-100 276zM324 281q0 -111 70.5 -188t180.5 -77q137 0 295 119q100 78 236 227 q102 119 203 261q137 193 209 333q96 188 96 299q0 55 -36 92t-93 37q-43 0 -83 -13t-85 -40q67 -40 67 -110q0 -117 -102 -189q-90 -61 -213 -61q-23 0 -31 22q8 10 25 15l12 -4q18 -12 37 -13q80 0 157 79t77 159q0 61 -52 86q-182 -139 -352 -344q-211 -260 -211 -428 q0 -61 28.5 -105.5t86.5 -44.5q27 0 45 17l24 16l13 -10v-8q-29 -33 -72 -33q-80 0 -133 67q-23 33 -35 72t-12 84q0 195 196 428q172 203 377 307l-41 4q-152 0 -370 -204q-199 -186 -356.5 -445.5t-157.5 -406.5z" />
<glyph unicode="P" horiz-adv-x="1847" d="M246 354q0 158 147 262q131 90 301 91q127 0 228 -60q125 -72 125 -186q0 -109 -99 -182q-88 -63 -203 -64q-61 0 -118 35q-70 41 -70 96l2 21q8 27 29 28l8 -4l2 -8q-18 -23 -23 -45q0 -43 55.5 -63.5t102.5 -20.5q98 0 189 51q106 59 106 150q0 90 -100 145 q-82 41 -185 41q-160 0 -299 -82q-163 -95 -163 -244q0 -131 133 -215q119 -75 252 -75h4q115 0 215 34.5t178 106.5q135 125 299 369l262 403q160 227 322 352q-158 104 -349 105l-79 -4q-127 0 -246 -48.5t-217 -140.5q-68 -61 -115 -137q-53 -88 -53 -168 q0 -92 50 -145.5t146 -53.5q117 0 239 111t122 227q0 49 -38 85t-89 36q-74 0 -148.5 -62.5t-74.5 -138.5q0 -61 61 -73l8 -11l-6 -10l-8 -2q-33 0 -55 37q-18 37 -19 74q0 82 78 142.5t160 60.5q72 0 120 -50.5t48 -122.5q0 -131 -113 -229t-248 -98q-131 0 -216 88 t-85 221q0 221 228 350q190 106 430 107q139 0 255.5 -29t235.5 -106q154 102 215 135q129 65 241 65h3q53 0 90 -22.5t37 -73.5q0 -88 -92 -158.5t-185 -70.5q-49 0 -92 22.5t-43 71.5q0 41 31 37l8 -13l-12 -24v-10q0 -18 29 -35q31 -12 55 -12q76 0 166 65 q100 72 100 141q0 23 -22.5 41.5t-73.5 18.5q-100 0 -228 -64q-109 -53 -202 -131q115 -109 150.5 -180.5t35.5 -146.5q0 -164 -118.5 -283t-282.5 -119q-53 0 -98.5 18.5t-71.5 63.5l6 21l8 4q18 -27 43 -50q25 -18 66 -18q125 0 241 162q106 150 107 284q0 133 -109 228 q-82 -72 -170 -195q-33 -49 -68.5 -106.5t-76.5 -124.5l-125 -234q-111 -217 -178 -313q-102 -150 -228 -223q-147 -86 -354 -86q-199 0 -344 82q-180 100 -180 282z" />
<glyph unicode="Q" horiz-adv-x="1331" d="M238 385q0 317 313 643t635 326l90 -6l102 34q62 19 109 19q92 0 141 -66.5t49 -160.5q0 -162 -110 -388q-92 -190 -222.5 -339.5t-254.5 -249.5q-59 -43 -136 -88q-68 -39 -161 -82l114 -162q133 -193 260 -193q57 0 105.5 32t48.5 91q0 18 -14 45l-19 35l12 8 q39 -20 39 -73q0 -86 -85 -146.5t-175 -60.5q-137 0 -243 137q-47 57 -144 258l-55 -8l-66 -2q-141 0 -243 129q-90 119 -90 268zM319 272q0 -104 71 -184t175 -80h47q29 0 68 17q-31 68 -64 106q-51 64 -102 64q-33 0 -49 -29l-27 -55l-8 2l-8 16q0 31 40 55.5t75 28.5 q57 0 127.5 -47t103.5 -105q133 76 340 309.5t346 469.5q158 268 158 422q0 49 -41 84q-36 36 -87 36h-3q-27 0 -41.5 -2t-42.5 -14q-41 -12 -82 -39q68 -43 67 -125q0 -102 -106 -176q-92 -61 -207 -61q-25 10 -31 18l15 16l59 -16q78 0 154.5 81t76.5 167q0 25 -12 42 t-39 38q-123 -98 -235 -211q-145 -147 -228 -281q-102 -164 -102 -291q0 -61 31 -104q33 -39 92 -39q14 0 24 8l25 19l10 4q12 -4 13 -15q-12 -16 -33 -24l-39 -8q-80 0 -129 67.5t-49 153.5q0 203 198 432q166 195 381 307h-34q-160 0 -381 -203q-201 -182 -359 -441 t-158 -413z" />
<glyph unicode="R" horiz-adv-x="2062" d="M207 307q0 164 137 271q127 98 297 98q135 0 244 -58q131 -70 131 -196q0 -106 -96 -172q-86 -57 -197 -57q-72 0 -139 32q-84 41 -84 105q0 31 21.5 58.5t53.5 29.5l9 -10l-33 -21q-12 -8 -19 -14q-14 -16 -14 -43q0 -45 68 -76q55 -23 110 -23q104 0 193 52 q104 61 104 157q0 80 -96 131q-82 39 -172 39q-150 0 -303 -84q-178 -98 -178 -235q0 -145 127 -223q53 -33 116.5 -49.5t145.5 -16.5q182 0 336 104q123 86 245 252l199 301l150 213q94 131 172 220q100 113 188 180q-76 61 -185 87.5t-218 26.5q-352 0 -574 -276 q-51 -63 -74 -115q-33 -72 -32 -131q0 -80 63 -135q63 -51 146 -51q117 0 238.5 122t121.5 238q0 41 -31.5 75t-74.5 34q-51 0 -92.5 -32t-41.5 -79l2 -24l-2 -11l-12 -6l-6 2l-6 4l-4 11l2 10q0 57 50 99t107 42q63 0 107.5 -50t44.5 -118q0 -135 -119 -235.5t-262 -100.5 q-129 0 -210 83t-81 212q0 221 232 359q197 117 438 117q129 0 260 -36t238 -108q92 59 157 100q49 31 76 46q137 71 263 71h3q78 0 132.5 -38t54.5 -113q0 -100 -97.5 -176t-201.5 -76q-55 0 -92 18q-51 27 -52 74q0 27 21.5 56.5t46.5 29.5l8 -14l-26 -21q-25 -20 -29 -51 q0 -27 26 -45q23 -10 58 -14q88 0 190.5 79.5t102.5 165.5q0 51 -44 77t-100 26q-119 0 -247 -68q-92 -47 -216 -149q80 -59 119 -133t39 -166q0 -139 -153 -232q-133 -76 -283 -76l-66 5q141 -66 183 -240l20 -275q0 -63 24.5 -97t67.5 -34q59 0 103 93l32 84l17 6l12 -6 v-13q0 -51 -70.5 -121.5t-121.5 -70.5q-106 0 -170 78q-59 78 -60 190l4 129l4 96q0 33 -2 57.5t-8 43.5q-18 63 -67 63l-25 -4l-25 16q-147 -256 -206 -340q-127 -176 -260 -258q-166 -100 -388 -100q-190 0 -325 78q-170 96 -170 270zM1581 696l8 2l60 -10l37 -4 q125 0 233.5 127t108.5 254q0 59 -16.5 95t-53.5 83q-102 -104 -203 -262z" />
<glyph unicode="S" horiz-adv-x="1503" d="M281 451q0 219 184 376q162 133 399 162l-2 49q0 121 135 199q119 66 248 66q94 0 172 -35q76 -29 139 -99l25 -32q6 -8 10 -31l-12 -14l-12 8q-6 27 -14.5 38t-26.5 27l-35 29q-43 29 -121 47q-37 8 -68.5 12t-70.5 4q-129 0 -227 -55q-119 -70 -119 -186v-29 q129 -12 214 -67.5t132 -171.5l69 -7l72 -6q45 0 66.5 2t68.5 15q74 125 174 268q139 197 252 307q152 147 254 148q31 0 50.5 -21.5t21.5 -54.5q0 -55 -57 -152q-43 -74 -99 -135q-109 -125 -221.5 -206t-265.5 -152q-127 -293 -166 -367q-104 -193 -227 -285 q-155 -112 -383 -112h-4q-219 0 -379 116q-176 129 -176 345zM332 389q0 -154 119.5 -251t279.5 -97q193 0 340 109q123 86 236 260l184 315l-82 -8l-55 -2l-72 2l-45 6l2 -61q0 -152 -117.5 -265.5t-277.5 -113.5q-98 0 -166 49q-76 57 -76 151q0 100 86 168t184 68 q23 0 54.5 -10.5t44.5 -32.5q-2 -12 -15 -14l-28 22q-16 12 -39 12q-76 0 -166 -78.5t-90 -158.5q0 -66 51 -108t121 -42q152 0 266.5 133t114.5 289q-119 29 -182 72q-74 49 -132 149l-65 -16q-174 -37 -324.5 -206t-150.5 -341zM895 950q47 -86 119 -133q49 -30 168 -61 q-12 80 -86 138t-158 58zM1620 784q154 55 311 189q147 123 242 274l41 72q24 49 24 78q0 57 -63 57q-129 0 -322 -272q-90 -129 -233 -398z" />
<glyph unicode="T" horiz-adv-x="1718" d="M324 1284q0 111 88 189.5t204 78.5q111 0 187 -39l102 -69l103 22l84 9q139 0 311 -50q37 -10 106.5 -34.5t192.5 -69.5l188 -61q111 -31 197 -31q51 0 94 24.5t43 75.5q0 70 -88 115q-74 35 -156 35q-61 0 -110 -23.5t-55 -79.5l-11 -10q-12 0 -18 23q23 55 73 81.5 t123 26.5q94 0 168 -41q94 -51 95 -135q0 -86 -93 -147q-80 -55 -172 -56q-115 0 -284 70l-330 139q-199 76 -324 76l-98 -4q37 -57 57 -111q8 -23 12.5 -49.5t4.5 -64.5q0 -98 -64 -195q-72 -106 -168 -107q-78 0 -126 62.5t-48 144.5q0 123 78 213q55 66 187 142 q-47 47 -115 73.5t-131 26.5q-119 0 -203 -69.5t-84 -186.5q0 -59 28.5 -104.5t80.5 -61.5l30 -6l23 -6l6 -13l-10 -14q-74 0 -127 66q-51 70 -51 145zM633 1065q0 -66 42 -119t107 -53q94 0 148 102q43 84 43 191q0 61 -12.5 114.5t-45.5 92.5q-117 0 -200 -103 q-41 -51 -61.5 -106.5t-20.5 -118.5zM778 403q0 295 269 525q258 217 559 217h57q31 -6 64.5 -10.5t60.5 -20.5l4 -12l-6 -8l-8 2q-31 0 -74 10l-68 12q-256 0 -516 -284.5t-260 -544.5q0 -121 80 -208t209 -87q197 0 400.5 225t203.5 422q0 84 -46 134t-130 50 q-141 0 -276.5 -137t-135.5 -280q0 -57 36 -105.5t91 -48.5q66 0 110 31.5t87 148.5l4 4h10q10 -8 10 -14l-28 -62q-33 -59 -72 -91.5t-106 -32.5q-80 0 -136 63q-51 63 -51 150q0 158 128 279.5t288 121.5q121 0 192.5 -76t71.5 -201q0 -223 -201.5 -415.5t-429.5 -192.5 q-172 0 -286 133q-104 123 -105 303z" />
<glyph unicode="U" horiz-adv-x="1548" d="M186 983q0 188 185 328q166 123 370 123q176 0 303 -93q137 -102 138 -274q0 -147 -133 -350l-248 -338q-133 -186 -133 -279q0 -37 24.5 -61.5t63.5 -24.5q104 0 352 299q96 117 201.5 266.5t226.5 335.5q207 326 270 459h13l-2 -6q0 -20 14 -28.5t41 -12.5q16 0 39 14 l39 31l12 2l-223 -385q-182 -322 -277 -520q-137 -287 -137 -373q0 -33 15.5 -54.5t48.5 -23.5q57 0 122 97l82 147l27 39l20 -12q-18 -66 -100 -176q-92 -121 -151 -121q-61 0 -95 63q-24 47 -24 114v5q0 117 92 336q14 37 58 128t100 198l-209 -297q-176 -238 -299 -367 q-174 -180 -269 -180q-66 0 -102 76q-27 63 -27 137q0 141 129 325l240 310q129 182 129 329q0 104 -88 168t-201 64q-199 0 -374 -152q-188 -160 -189 -354q0 -47 25 -90q25 -35 71 -72q-2 10 -4 39t-2 31q0 154 107.5 294t257.5 140q80 0 127 -53.5t47 -132.5 q0 -145 -126 -259t-274 -114q-31 0 -47 4l-57 16q18 -66 70 -118q55 -51 118 -52q49 0 84 30t43 85l13 8l12 -6l4 -10q-14 -53 -57 -90q-43 -33 -99 -33q-74 0 -135 61q-49 51 -76 134q-84 53 -126 112q-49 68 -50 164zM371 801q0 -37 12 -78l43 -12l47 -6q129 0 253 123.5 t124 258.5t-139 136q-129 0 -234.5 -142.5t-105.5 -279.5z" />
<glyph unicode="V" horiz-adv-x="1632" d="M246 918q0 221 171 376.5t394 155.5q287 0 459 -193q162 -186 162 -479q0 -197 -68 -386t-193 -341l9 -16q100 84 192 207q70 92 164 243l145 250q80 139 201 285l234 260q-43 12 -88.5 23.5t-102.5 21.5q-96 18 -182 18q-96 0 -174 -45q-94 -57 -94 -145q0 -70 47 -111 q50 -38 121 -38h4l34 6q23 8 43 22h9l6 -4l4 -6q-14 -20 -47 -33l-66 -8q-74 0 -127 51q-49 53 -49 131q0 125 108.5 200t239.5 75q37 0 66.5 -4t75.5 -19l229 -88q141 106 227 158q135 74 266 74q68 0 111 -23q59 -31 59 -90q0 -102 -131 -170q-49 -23 -107 -37t-118 -14 q-33 0 -68.5 2t-76.5 8l-158 31q-102 -100 -225 -267l-199 -288l-156 -224q-49 -72 -57 -81q-23 -29 -111 -137.5t-178 -196.5l-73 -68l-80 -65l-33 -27q-23 -16 -39 -21q-43 0 -72 41l-4 11q12 10 23 10q106 0 221 172q86 133 123 274q4 14 11 49t11 62l7 121 q0 291 -160 497q-174 223 -457 224q-201 0 -331 -124t-130 -325q0 -35 4 -60.5t19 -58.5q25 -57 71 -106q25 152 149 253t277 101q117 0 205 -69.5t88 -182.5q0 -139 -120 -221q-109 -74 -254 -74q-86 0 -185.5 37t-146.5 96l-2 -24q0 -158 113.5 -263.5t271.5 -105.5 q109 0 191.5 48.5t123.5 148.5l12 31l21 -4l2 -9q0 -88 -131 -168q-119 -69 -212 -69h-3q-180 0 -294 123t-114 305q-27 35 -37 51q-27 41 -43 82q-28 68 -28 148v6zM377 664q102 -70 174 -99q93 -37 197 -37q119 0 208 66q102 74 103 186q0 102 -88 168t-197 66 q-143 0 -270 -106.5t-127 -243.5zM2220 1313l145 -39q37 -6 71 -10t69 -4q104 0 194 38q119 49 119 140q0 49 -45 73.5t-107 24.5q-51 0 -91 -8t-93 -33q-117 -49 -262 -182z" />
<glyph unicode="W" horiz-adv-x="1890" d="M160 752q0 33 6 66.5t20 70.5q25 66 76 115v14q0 184 135.5 303t323.5 119q209 0 332 -144q115 -137 114 -350q0 -229 -94 -450q-80 -193 -242 -398l-6 -10l11 -2l65 6q113 94 209 256q68 113 150 297l40 92l25 62l37 114q47 147 88 236q61 133 137 209q16 18 39 35.5 t53 36.5q59 36 110 36h3q18 0 27 -14l-2 -14l-43 -21q-49 -25 -80 -225q-20 -158 -21 -264q0 -227 -34.5 -404.5t-129.5 -359.5l-32 -58l-25 -59l8 -4q10 2 23 14l14 15q129 125 250 334l186 358q111 215 221 344q35 41 44 49q35 39 65 68q-37 16 -117 30l-123 15 q-88 0 -158.5 -46t-70.5 -132q0 -47 18.5 -77t69.5 -38q12 -6 14 -16l-6 -7l-6 -4h-10q-35 0 -72 49q-18 29 -25.5 47.5t-7.5 40.5q0 111 97 201q47 43 100 65.5t113 22.5q59 0 137 -24q49 -14 129 -56q102 80 206.5 129.5t219.5 49.5q86 0 133 -21q70 -31 70 -106 q0 -86 -111 -142q-45 -20 -93 -32.5t-97 -12.5q-68 0 -96.5 3t-84.5 14l-176 39q-86 -92 -200 -293l-107 -189q-78 -141 -143 -243q-82 -129 -159 -230.5t-187 -212.5l-93 -84q-38 -28 -61 -28h-2q-16 0 -36.5 7t-20.5 21l22 17q113 55 156 272l33 338q0 207 32 391 q43 244 127 367l45 63l-6 10h-8q-92 0 -186 -163q-37 -63 -111 -246l-88 -217l-135 -412q-111 -254 -285 -291q-57 -47 -125 -86q-88 -47 -141 -47q-6 2 -12.5 5t-22.5 16q-25 18 -24 28q0 16 22 19l29 4q115 18 200 119q104 125 162 292q29 88 43.5 168t14.5 172 q0 221 -103 381q-121 193 -325 193q-143 0 -238.5 -94.5t-95.5 -235.5q57 47 123.5 73.5t136.5 26.5q135 0 235 -75q109 -84 109 -215q0 -92 -76 -148q-68 -49 -162 -49q-150 0 -252 93t-139 247l-45 -76q-37 -68 -37 -137q0 -111 72 -200t180 -89q49 0 81 19.5t62 70.5l9 4 q10 -10 14 -18q0 -35 -57 -72q-57 -32 -97 -32h-2q-121 0 -201.5 89t-80.5 212zM289 1004q0 -139 131 -240q110 -86 264 -86q78 0 131 41t53 117q0 113 -94 191.5t-213 78.5q-88 0 -141 -21.5t-131 -80.5zM2380 1278l151 -49q86 -25 160 -25q49 0 87 6.5t75 22.5 q96 37 96 119q0 61 -67 86q-45 16 -123 16q-102 0 -205 -51q-86 -43 -174 -125z" />
<glyph unicode="X" horiz-adv-x="1890" d="M215 346q0 131 102.5 219t235.5 88q96 0 172 -35q104 -47 104 -126q0 -31 -24 -56q-23 -18 -57 -22q-23 0 -48 18q-16 18 -20 45q6 16 10 25l29 55q-12 35 -57.5 53.5t-88.5 18.5q-115 0 -202.5 -88t-87.5 -203q0 -154 125 -242q108 -73 268 -73h4q254 0 481 182 q176 139 348 397l-184 2q-145 0 -219 -26q-125 -43 -125 -164q0 -43 33 -74q37 -27 82 -27q14 -2 18 -5t6 -5l-4 -12l-33 -6q-47 0 -84.5 42t-37.5 91q0 55 36.5 104t86 80t135.5 43t170 12l149 -2q59 96 104.5 223.5t45.5 235.5q0 156 -100.5 247t-262.5 91 q-178 0 -338 -174t-160 -354q0 -86 56.5 -141.5t146.5 -55.5q131 0 266 133q70 70 104 135.5t34 132.5q0 55 -29 91q-24 34 -81 34h-3q-80 0 -162 -75.5t-82 -159.5l4 -21l13 -20l-4 -6h-9q-12 0 -24 20l-6 37q0 88 87 166t179 78q70 0 115 -46t45 -120 q0 -152 -135.5 -276.5t-292.5 -124.5q-123 0 -203 89t-80 214q0 213 184 348q166 117 391 117q197 0 321 -122t124 -321q0 -94 -33 -194q104 166 209 282q137 154 276 242q166 100 332 100q39 0 67.5 -2t47.5 -8q70 -18 70 -80q0 -25 -19.5 -50.5t-50.5 -25.5 q-27 0 -38 13.5t-11 64.5q0 27 -31 39t-65 16q-152 0 -330 -141q-141 -115 -285 -313q-104 -147 -192 -324h104q84 0 131 13q82 23 82 81l-2 21q4 23 16 24l9 -6l6 -26l-4 -19l-9 -22q-31 -63 -120 -97q-69 -24 -153 -24h-7l-74 6q-49 -121 -74 -217q-16 -66 -24 -119 t-8 -108q0 -63 21.5 -107.5t78.5 -44.5q76 0 141 102l129 228l6 -4l5 -8q0 -12 -21 -54l-24 -49q-55 -109 -97 -158q-68 -84 -157 -84q-68 0 -111 82q-35 70 -35 146q0 78 14 147q8 49 15.5 77t25.5 77q-172 -236 -372 -367q-231 -149 -493 -149h-3q-193 0 -338 80 q-176 98 -176 276z" />
<glyph unicode="Y" horiz-adv-x="1759" d="M106 25q0 106 77 180t188 74q86 0 164.5 -46.5t78.5 -132.5q0 -37 -25.5 -68.5t-66.5 -31.5q-27 0 -53.5 24.5t-26.5 55.5q0 18 34 36.5t36 49.5q0 43 -49 67.5t-103 24.5q-78 0 -137 -65.5t-59 -141.5q0 -166 151 -266q129 -86 310 -86q344 0 583 309q221 287 222 643 q0 276 -158 477q-172 219 -443 220q-180 0 -310 -112t-130 -296q0 -135 86 -233q49 156 151.5 244.5t264.5 88.5q119 0 209 -59q104 -68 104 -182q0 -139 -121 -228q-110 -79 -252 -79h-4q-92 0 -185 34.5t-146 91.5v-36q0 -147 114.5 -250t263.5 -103q100 0 195 54 q113 63 113 153l8 13l14 2l13 -13q-8 -94 -130 -166q-104 -61 -210 -61q-190 0 -299 121t-109 313q-45 57 -76 125q-10 29 -18 68t-8 71q0 233 165.5 390t401.5 157q266 0 428 -201q147 -184 147 -462q0 -254 -80.5 -466t-254.5 -399q182 135 360 410l295 479 q188 274 405 424l-198 53q-123 31 -203 31q-106 0 -174 -47q-41 -29 -61.5 -65.5t-20.5 -90.5q0 -61 54.5 -101t115.5 -40q49 0 65 16l39 41l11 -2l4 -6v-10q-8 -29 -45 -47q-39 -14 -74 -15q-88 0 -141.5 52.5t-53.5 136.5q0 109 111 192q100 72 219 72q104 0 268 -57 l158 -58q186 117 286.5 154t190.5 37q70 0 124 -30t54 -97q0 -92 -127 -148q-100 -41 -213 -41q-55 0 -81.5 3.5t-85.5 13.5q-102 16 -166 39q-150 -152 -267 -293q-70 -84 -125 -156.5t-114 -161.5q-197 -293 -314 -434q-195 -238 -389 -360q-240 -150 -510 -150 q-180 0 -311 84q-154 98 -154 269zM498 684q84 -66 168 -106q82 -35 180 -35q129 0 225 63q109 74 109 199q0 98 -94.5 156.5t-194.5 58.5q-156 0 -260 -92q-90 -82 -133 -244zM2353 1280q80 -33 160 -55q80 -19 164 -19q90 0 164 31q98 41 98 119q0 57 -44 82.5t-108 25.5 q-43 0 -88 -8t-94 -26q-94 -35 -252 -150z" />
<glyph unicode="Z" horiz-adv-x="1202" d="M111 102q0 106 120 172q104 57 218 58q76 0 147 -27q47 -16 137 -63l68 61l67 66q-66 25 -96 51q-41 37 -41 98q0 111 162 162q117 37 256 37l172 221q57 72 107.5 130t93.5 99q119 119 217 172h-23q-104 0 -313 31t-313 31q-215 0 -383 -84q-215 -104 -215 -299 q0 -92 61 -158q63 -59 158 -59q127 0 259 101.5t132 227.5q0 53 -32 87t-87 34q-74 0 -143.5 -61.5t-69.5 -136.5l12 -37l15 -27l-9 -10l-8 -2q-16 6 -26 24l-9 43q0 86 74 154t166 68q70 0 118 -50.5t48 -119.5q0 -133 -129 -242q-121 -98 -262 -98q-129 0 -216 83t-87 212 q0 213 170 346q158 123 377 123q51 0 114.5 -8.5t132.5 -26.5l242 -68l131 -31q47 -8 66.5 -9t44.5 -1q68 0 106 51q0 23 10 31l23 10l14 -10q18 -29 19 -45q0 -27 -13.5 -38t-52.5 -25q-82 -31 -112.5 -50.5t-90.5 -91.5q-102 -117 -199.5 -238.5t-189.5 -256.5l74 -4 l74 -4q55 0 74.5 3t52 15t63.5 74q10 20 25 34l8 3l8 -5l4 -6l-4 -20q-68 -92 -112 -127q-66 -49 -162 -49l-94 6q-63 6 -72 10l-150 -168l-96 -96h31q70 0 152.5 30.5t117.5 84.5l17 30l12 29l8 4q18 -4 18 -22l-4 -11l-6 -12q-49 -84 -160 -125q-86 -27 -206 -27 l-152 -143q141 -113 287 -252l205 -188q133 -113 243 -172q143 -78 262 -78q80 0 142.5 40t62.5 120q0 37 -49 56t-55 60q12 57 74 58q43 0 68.5 -32t25.5 -75q0 -129 -127 -211q-113 -69 -244 -69h-4q-215 0 -436 166q-68 49 -353 327l-73 66l-129 110q-141 -88 -189 -112 q-113 -53 -211 -54q-63 0 -106 29q-53 35 -53 96zM129 102q0 -49 40 -75.5t91 -26.5q98 0 203 49q43 20 87 48t91 67q-82 53 -125 74q-75 34 -141 34q-84 0 -158 -41q-88 -51 -88 -129zM752 516q0 -51 36 -86q37 -31 93 -43l215 262l-41 4h-35q-94 0 -166 -24 q-102 -35 -102 -113z" />
<glyph unicode="[" horiz-adv-x="860" d="M-86 -332l8 13l31 16q41 31 86 106l67 125l545 1035l64 135q43 98 43 137l-17 27l2 6l7 4l8 2l59 -12l74 -2l119 4l90 4q18 0 26 -11q-2 -6 -3 -10t-11 -16l-20 -4l-33 4q-106 0 -150 -35q-31 -25 -88 -131l-530 -997l-86 -166q-66 -131 -74 -164q6 -16 27 -29 q14 -6 47 -10l43 2l43 2q16 0 24 -14v-8l-2 -9l-8 -8l-10 -4l-217 4l-76 -2h-28.5t-43.5 -8l-12 4z" />
<glyph unicode="\" horiz-adv-x="544" d="M-33 1444h129l482 -1481h-132z" />
<glyph unicode="]" horiz-adv-x="860" d="M-156 -313l15 18l20 4l41 -4q102 0 152 43q31 25 86 137l633 1207l26 59l14 51q0 20 -26 29l-51 6l-86 -4l-17 12v10l2 9l9 8l43 8l51 2l118 -4l91 -4h39q18 0 40 8l9 -12l-13 -15l-22 -14q-16 -6 -43 -45l-39 -61l-213 -394l-207 -397l-207 -399l-57 -121 q-39 -94 -39 -125l18 -23l-4 -10l-14 -8l-61 12l-72 2l-119 -4l-88 -4l-25 4l-4 8v11z" />
<glyph unicode="^" horiz-adv-x="0" d="M694 1569l60 33q78 31 125 84l43 55l24 24l10 -8l2 -8l-4 -33l-4 -33q0 -37 5.5 -55t21.5 -33l18 -14l17 -14l-17 -8q-37 0 -65 22q-18 12 -45 53q-25 -23 -81 -50.5t-95 -27.5z" />
<glyph unicode="_" horiz-adv-x="1089" d="M0 -147h1090v-97h-1090v97z" />
<glyph unicode="`" horiz-adv-x="0" d="M182 946q0 14 15.5 31.5t31.5 17.5q31 0 82 -94q25 -49 66 -57l24 -2q16 -2 17 -15v-8l-15 -6q-68 0 -137 35q-84 37 -84 98z" />
<glyph unicode="a" d="M129 113q0 188 137 374q147 201 328 201q23 0 41 -19.5t18 -64.5l-6 -43l76 146l8 -2v-11v-12q10 -8 37 -14l33 6l41 31l12 -5q-78 -104 -179.5 -292.5t-142.5 -305.5l-18 -61q0 -18 21 -33l18 -4q49 0 135 135l62 99l12 2l6 -11q0 -43 -87 -141t-134 -98q-37 0 -49.5 40 t-12.5 87q0 72 37 176l41 104q-55 -100 -166 -233q-139 -168 -204 -168q-33 0 -50 37q-14 43 -14 80zM166 49q0 -35 35 -35q76 0 255 257t179 347q0 53 -53 54q-68 0 -242 -269.5t-174 -353.5z" />
<glyph unicode="b" horiz-adv-x="645" d="M119 129q0 59 108 268q27 53 62 115.5t90 159.5l199 352q129 205 256 305q166 129 376 129q49 0 85 -11t36 -54q0 -12 -20.5 -32t-38.5 -20q-25 0 -50.5 45.5t-95.5 45.5q-139 0 -297 -203q-53 -72 -204 -332l-318 -559q68 98 160 201q127 139 190 139q43 0 62.5 -44 t19.5 -95q0 -172 -151 -357q-159 -196 -324 -196h-2q-61 0 -102 37.5t-41 105.5zM184 59q0 -20 19 -39q16 -12 41 -16q96 0 268 255t172 359q-2 10 -4 13l-4 10q-8 12 -31 16q-78 0 -269.5 -253.5t-191.5 -344.5z" />
<glyph unicode="c" horiz-adv-x="557" d="M135 193q0 170 148.5 333.5t318.5 163.5q111 0 111 -104q0 -55 -35 -119t-88 -64q-16 0 -33 17q-10 16 -14 37q0 68 65 86l68 18q12 16 12 45q0 68 -70 68q-109 0 -266 -228.5t-157 -347.5q0 -39 22.5 -61.5t61.5 -22.5q76 0 149 82l143 185l9 -13q0 -59 -116 -166.5 t-179 -107.5q-74 0 -112 59.5t-38 139.5z" />
<glyph unicode="d" horiz-adv-x="729" d="M123 131q0 170 147 354q156 193 324 193q31 0 47 -21.5t16 -54.5l-4 -29q0 -12 -10 -28l207 397q135 236 276 361q187 157 410 157q53 0 81 -12t32 -37q0 -18 -20.5 -38.5t-43.5 -24.5q-20 0 -55 43q-31 43 -82 43q-109 0 -236 -136q-90 -96 -204 -290l-144 -260 l-192 -349q-147 -276 -148 -329q0 -55 33 -58q47 0 102 76l113 160l6 -12l-12 -25l-35 -55q-33 -55 -74 -101q-55 -59 -102 -59q-35 0 -53 39q-12 37 -13 92q0 43 3.5 62.5t13.5 54.5l39 112q-70 -121 -152 -217q-124 -149 -191 -149h-1q-39 0 -58.5 47t-19.5 94zM170 61 q0 -55 37 -55q76 0 253 259t177 347q0 49 -45 50q-80 0 -251 -254t-171 -347z" />
<glyph unicode="e" horiz-adv-x="516" d="M125 190q0 154 153.5 326t311.5 172q66 0 65 -70q0 -119 -131 -210q-123 -82 -248 -82q-55 -102 -73.5 -148.5t-18.5 -81.5q0 -37 21.5 -62.5t58.5 -25.5q94 0 203 146l92 125l8 4l8 -2l3 -7l4 -6l-25 -41l-27 -41q-51 -72 -116 -127q-85 -69 -154 -69h-2q-63 0 -100 63 q-16 35 -24.5 67t-8.5 70zM289 346h20q84 0 200 98.5t116 186.5q0 43 -43 43q-53 0 -164 -135q-94 -115 -129 -193z" />
<glyph unicode="f" horiz-adv-x="387" d="M-446 -426q0 23 15 35t38 16q33 0 44 -52t66 -52q63 0 185 184q72 113 200 373l138 280l141 285l-57 -4l-41 -4q-25 0 -38.5 3t-17.5 19l6 11l64 4l51 -2h49l183 342q123 203 247 309q162 133 353 133q53 0 84 -12q23 -12 26 -37q0 -23 -21.5 -41t-45.5 -23q-20 0 -39 27 q-37 59 -78 59q-106 0 -236 -153q-84 -100 -206 -324l-148 -276h100l48 -2q25 0 24 -13q0 -12 -19.5 -18t-56.5 -6l-108 6l-168 -332l-174 -332q-113 -207 -187 -299q-141 -178 -278 -178h-19q-43 0 -83.5 16.5t-40.5 57.5z" />
<glyph unicode="g" horiz-adv-x="729" d="M-324 -391q0 33 20.5 54.5t51.5 21.5q23 0 39 -16.5t16 -39.5q0 -12 -17 -34.5t-17 -36.5q0 -33 51 -54q35 -12 80 -12q176 0 336 215q45 59 210 371l86 145q14 27 41 82q20 45 31 72q-117 -170 -170 -227q-135 -158 -213 -158q-51 0 -78 51q-22 49 -22 108v5 q0 176 160.5 351t336.5 175q82 0 82 -82l-6 -43l90 131l23 -6l33 -4l55 4l55 4l6 -4v-14l-4 -4l-10 -5h-20q-43 0 -154 -180q-80 -133 -199 -360q-63 -127 -98 -193q-14 -29 -35 -65q-100 -184 -207 -275q-136 -114 -316 -114h-3q-82 0 -146 28q-88 37 -88 109zM178 68 q0 -20 15 -41q11 -13 38 -17q45 0 155 124t203 271.5t93 196.5q0 61 -53 62q-92 0 -271.5 -247t-179.5 -349z" />
<glyph unicode="h" d="M33 -6l192 346l185 348l184 344q117 197 240 295q161 127 360 127q41 0 64.5 -7t27.5 -38q0 -61 -65 -61q-6 4 -11 8q-12 12 -26 28q-29 37 -80 37q-96 0 -199 -102q-70 -70 -139 -186l-125 -224l-119 -219l-88 -162l-143 -274q80 127 182 248q152 186 209 186 q41 0 61 -51q14 -43 15 -86q0 -88 -132 -278.5t-132 -229.5v-12q12 -25 32 -25q47 0 107 84l86 123l10 4q10 -8 12 -16q0 -35 -92 -125t-127 -90q-39 0 -59 41q-8 23 -12.5 43t-4.5 51q0 111 128 285t128 231q0 27 -20 29q-55 0 -199 -183q-154 -197 -329 -491l-11 2l-6 16 q-10 6 -28 10q-16 0 -33 -7t-31 -21z" />
<glyph unicode="i" horiz-adv-x="387" d="M152 129q0 106 134 284.5t134 227.5q0 29 -37 29t-90 -66l-109 -131l-8 10q27 45 48.5 76t43.5 57q68 74 131 74q31 0 54 -43q18 -43 18 -84q0 -82 -135 -259t-135 -247q0 -14 11 -29.5t32 -19.5q43 0 106 82l88 119l15 -8q-12 -47 -91 -129t-124 -82q-39 0 -64 45 q-10 23 -16 45t-6 49zM522 879q0 37 37 81t70 44q47 0 47 -54q0 -35 -38 -75.5t-77 -40.5t-39 45z" />
<glyph unicode="j" horiz-adv-x="346" d="M-453 -424q0 23 12.5 37t41.5 18q35 0 46 -54t58 -54q29 0 76 37q20 16 22 18q16 16 39 47l58 82l53 88q201 342 314.5 564.5t113.5 277.5q0 33 -41 33q-37 0 -82 -58l-127 -159l-6 6l4 20q104 137 129 162q53 49 102 49q37 0 55.5 -38t18.5 -81q0 -45 -14 -99t-51 -136 q-49 -117 -144 -281l-135 -223q-94 -135 -174 -209q-127 -117 -240 -117q-45 0 -79 13q-49 18 -50 57zM492 893q0 31 34.5 71t67.5 40q10 0 29 -13q12 -12 12 -26q0 -33 -36 -78t-69 -45q-18 0 -26 9t-12 42z" />
<glyph unicode="k" horiz-adv-x="729" d="M31 -23l141 261l139 260l140 264q133 250 180 317q117 178 237 267q151 110 344 110q45 0 78 -9t33 -48q0 -18 -19.5 -38t-43.5 -20q-8 4 -13 9q-14 12 -33 32q-31 43 -81 43q-139 0 -291 -190q-31 -41 -81 -124t-114 -196l-301 -548q92 115 199 208q154 137 233 138 q68 0 68 -68q0 -102 -158 -184q-117 -59 -252 -82q66 -27 94.5 -67t28.5 -111l-6 -117q0 -29 10 -52.5t35 -23.5q35 0 72 58l49 90h12l6 -9l2 -8l-14 -33q-23 -47 -57 -77q-45 -39 -86 -39q-53 0 -95.5 44t-42.5 101q0 43 5 64l14 104q0 31 -23 51q-18 20 -53 33 q-66 -76 -131.5 -185.5t-112.5 -219.5l-14 26q-10 8 -31 8q-18 0 -35 -10zM412 408l30 -9q82 0 187 56q121 66 121 139q0 18 -12.5 31.5t-32.5 17.5q-49 0 -158 -94q-92 -80 -135 -141z" />
<glyph unicode="l" horiz-adv-x="387" d="M158 139q0 102 75 281q66 154 168 334q70 123 162 262q133 197 264 303q174 139 369 139h16q45 0 64 -10q22 -6 22 -40q0 -23 -16 -39.5t-39 -16.5q-12 0 -47 37q-30 36 -74 36h-2q-47 0 -111.5 -34.5t-103.5 -77.5l-74 -80q-49 -53 -213 -326q-154 -264 -272 -495 q-135 -270 -135 -338q0 -27 11 -46.5t38 -21.5q35 0 110.5 90t75.5 123l15 8l8 -10q0 -41 -82 -136t-121 -95q-57 0 -82.5 44t-25.5 109z" />
<glyph unicode="m" horiz-adv-x="989" d="M33 -16l198 329q150 265 150 324q4 23 -16 33l-19 6q-35 -8 -90 -82l-106 -154l-9 11q0 37 87 138t130 101q31 0 44.5 -31.5t13.5 -72.5q0 -51 -31 -142q-14 -49 -57 -141l145 221q121 164 180 164q37 0 54 -61l6 -56q0 -37 -31 -135q-27 -98 -51 -139l160 225 q129 166 188 166q37 0 57.5 -29.5t20.5 -68.5q0 -111 -119 -294t-119 -224q0 -25 12.5 -43.5t38.5 -18.5q33 0 88 68l99 147l12 -10q0 -45 -82 -134t-127 -89q-41 0 -66.5 52t-25.5 99q0 88 116.5 275.5t121.5 222.5q0 33 -35 33q-47 0 -160 -152q-47 -68 -92 -135 q-37 -57 -109 -172q-100 -170 -129 -229l-8 18l-2 8q-16 12 -35 13q-12 0 -35 -15l-32 -26l-9 4l183 327q135 256 135 320q0 14 -12 24l-27 9q-41 0 -172 -189q-141 -205 -309 -495q-12 25 -27 30h-18q-16 0 -34 -8t-34 -24z" />
<glyph unicode="n" d="M41 -10q80 117 192 317q72 129 108 207t36 109q0 43 -33 43q-39 0 -86 -62l-100 -137l-8 16l83 123q63 76 119 76q35 0 49.5 -30.5t14.5 -63.5t-6.5 -70t-22.5 -80q-6 -20 -20.5 -55t-38.5 -86q117 182 214 285.5t142 103.5q25 0 44.5 -28.5t19.5 -88.5q0 -106 -118 -278 t-118 -225q0 -18 11.5 -34t33.5 -20q43 0 96 72l70 111q18 0 18 -13q0 -33 -75.5 -111.5t-112.5 -78.5q-39 0 -64 51q-20 55 -20 100q0 49 17.5 100.5t54.5 110.5q160 256 159 285q-4 14 -8 19.5t-14 9.5q-70 0 -270 -295q-141 -209 -232 -381l-8 2q-8 20 -29 29h-16 q-20 0 -39 -11q-18 -6 -35 -22h-8z" />
<glyph unicode="o" horiz-adv-x="645" d="M129 199q0 168 144.5 332.5t312.5 164.5q80 0 116 -69q27 -53 27 -144q0 -164 -146.5 -330.5t-312.5 -166.5q-78 0 -114 69q-6 14 -16.5 52t-10.5 92zM190 66q0 -23 25 -46q20 -12 53 -16q106 0 258 252q141 240 142 360q0 33 -22.5 50.5t-53.5 17.5q-109 0 -262 -254 q-139 -238 -140 -364z" />
<glyph unicode="p" d="M-231 -535l202 351q193 340 271 489q135 263 135 322q0 18 -13.5 30.5t-25.5 12.5q-49 0 -113 -101l-84 -143l-10 -2q-6 8 -6 16q0 41 84 144.5t123 103.5q43 0 61.5 -38t18.5 -83q0 -35 -2 -53t-15 -59l-33 -111q31 51 65 101.5t77 105.5q119 143 184 143q45 0 68.5 -51 t23.5 -102q0 -125 -50 -232.5t-150 -199.5q-49 -43 -103 -78q-68 -43 -119 -43q-39 0 -66.5 31.5t-27.5 72.5q0 25 4 39l6 29l-165 -295l-101 -180l-59 -107l-26.5 -53t-26.5 -60h-11l-2 15q-4 20 -30 20q-20 0 -37 -10l-33 -25h-14zM287 96q0 -39 13 -62.5t50 -23.5 q72 0 223.5 261t151.5 350q0 51 -47 51q-82 0 -236.5 -241t-154.5 -335z" />
<glyph unicode="q" d="M80 -526l467 852q-59 -96 -150 -195q-121 -135 -184 -135q-45 0 -68.5 40t-23.5 91q0 193 143 373q152 188 344 188q78 0 78 -82l-4 -28q0 -14 -10 -31l80 147h8l4 -12l16 -8h11l59 6l59 6q10 0 15 -12l-6 -6q-45 -6 -70 -29l-47 -57q-55 -78 -139 -238l-78 -149 l-381 -723h-8l-9 22l-30 10q-18 0 -35 -8t-31 -22h-10zM172 61q0 -49 45 -49q84 0 265.5 253t181.5 349q0 20 -12.5 35t-35.5 19q-94 0 -269 -252.5t-175 -354.5z" />
<glyph unicode="r" horiz-adv-x="516" d="M37 -12q78 115 196 325q148 263 148 324l-2 14l-10 19l-13 6q-47 0 -133 -111l-84 -112q-12 0 -8 18q16 45 97 131t128 86q29 0 41.5 -20.5t12.5 -55.5q0 -37 -2 -55t-13 -55l-67 -180l168 213q134 157 189 157h1q33 0 45 -11t12 -44q0 -39 -28.5 -83t-63.5 -44l-14 2 l-8 8l-11 53l-10 13l-6 4q-68 -8 -235 -266q-78 -119 -205 -338l-6 18q-6 18 -31 19q-20 0 -39 -11q-18 -6 -37 -24h-12z" />
<glyph unicode="s" horiz-adv-x="516" d="M76 135q0 61 40 125t99 64q27 0 43 -13.5t21 -38.5q0 -25 -19.5 -51t-42.5 -28q-35 16 -63 20q-23 0 -41 -35q-10 -27 -15 -61q0 -39 38 -69t81 -30q98 0 154 88q47 76 47 181l-4 114l-4 88l6 50q6 18 10 29.5t25 49.5l-101 -86l-90 -81l-10 10l4 6q29 55 195.5 174 t224.5 119q47 0 47 -37q0 -16 -23.5 -48t-44.5 -32q-12 0 -31.5 20.5t-46.5 24.5q-51 0 -95 -63.5t-44 -122.5q0 -53 48 -143.5t48 -139.5q0 -96 -92 -168q-84 -61 -190 -61q-70 0 -122 39t-52 106z" />
<glyph unicode="t" horiz-adv-x="387" d="M119 102q0 98 141 351l113 190l-74 -2q-33 0 -49 6l-4 6l4 11l20 8l119 -2l182 327q16 -35 47 -34q20 0 37 8l35 30l-184 -331l86 4h31q25 -2 26 -15q0 -10 -20 -16l-47 -4l-90 6l-127 -217q-141 -238 -203 -371l2 -14q0 -37 43 -37q39 0 96 64l113 155q8 -4 10 -8l4 -12 q-33 -59 -98 -131q-80 -86 -131 -86q-41 0 -62 35q-20 41 -20 79z" />
<glyph unicode="u" d="M139 125q0 113 134.5 296t134.5 226q0 10 -10.5 19.5t-28.5 13.5l-19 -4q-29 -16 -100 -105q-31 -39 -55 -55l-13 -2l-6 12q0 31 82 100.5t115 69.5q39 0 58.5 -34.5t19.5 -81.5q0 -106 -132.5 -290t-132.5 -233q0 -10 12.5 -26.5t24.5 -20.5q53 0 168 152q41 55 90 130 t111 173q86 145 131 231h8l-2 -6q4 -16 8 -20l29 -8q18 0 34.5 7t39.5 27h12q-104 -170 -186 -317q-70 -127 -104 -205t-34 -111q0 -14 11 -30q12 -10 26 -15q57 0 109 88l61 113q12 -6 17 -10q0 -35 -73 -123t-108 -88q-43 0 -61 31.5t-18 81.5q0 70 22.5 139t60.5 147 q-72 -119 -157 -231q-133 -176 -189 -176q-43 0 -66.5 44t-23.5 91z" />
<glyph unicode="v" horiz-adv-x="600" d="M139 473q0 37 83 128t128 91q41 0 64.5 -45t23.5 -92q0 -92 -103.5 -259t-103.5 -222q0 -23 19 -47q18 -18 47 -21q94 0 217 193q115 182 115 286q0 31 -18.5 68t-18.5 47q0 23 37 59q35 31 63 35q47 0 47 -49q0 -139 -157 -387q-166 -268 -291 -268q-59 0 -94 49 q-33 53 -33 115q0 80 106.5 255t106.5 224q0 14 -10 26q-6 12 -21 15q-39 0 -88 -62l-111 -153q-8 10 -8 14z" />
<glyph unicode="w" horiz-adv-x="946" d="M166 111q0 104 72 227q160 276 159 289q0 18 -10 30q-6 14 -25 15q-37 0 -86 -62l-98 -139l-10 16l82 119q66 82 108 82q37 0 58 -26q31 -37 30 -107q0 -104 -118.5 -287.5t-118.5 -214.5q0 -16 10 -35q10 -12 31 -16q57 0 168 154q78 109 188 313q80 152 117 240h8 l2 -23q16 -12 37 -12q41 0 68 33h8q-37 -68 -78 -149t-76 -163q-100 -231 -100 -317q0 -20 12 -45q12 -16 37 -21q92 0 213 201q113 190 113 293q0 20 -21 61q-12 25 -12 35l2 19l31 45q28 30 77 30h3q14 0 24 -12l8 -29q0 -135 -159 -393q-170 -274 -295 -274q-43 0 -66 30 q-18 31 -18 80q0 76 26 181q12 51 26.5 96t33.5 82q-102 -180 -168 -273q-138 -196 -212 -196h-1q-43 0 -61.5 36.5t-18.5 86.5z" />
<glyph unicode="x" horiz-adv-x="600" d="M-133 -88q2 4 4 9t8 13l29 21l16 2q23 -25 45 -27q63 0 193 179q102 141 147 245h-41l-45 -4l-18 -10l-17 10l2 10l31 15l39 4l59 -2l68 129q23 45 35 80t12 53q0 37 -37 37q-39 0 -90 -70l-100 -143l-6 4l-4 8q18 66 84 135q74 86 125 86q35 0 58 -32.5t23 -71.5 q0 -53 -11 -98t-40 -117q80 127 135 190q104 127 179 127q47 0 47 -45q0 -27 -23 -61q-18 -35 -47 -37l-25 24q-12 16 -30 21q-39 0 -117 -92q-61 -74 -92 -135l55 -2l57 6q4 -2 7.5 -5t5.5 -6l-6 -10l-31 -6l-29 -2l-76 2l-71 -141q-47 -100 -47 -146q0 -55 53 -55 q55 0 137 109l80 110l10 -10q0 -41 -92 -135t-137 -94q-43 0 -72 36q-22 37 -22 82q0 49 18 127l37 123q-82 -154 -180 -286q-147 -201 -242 -201q-51 0 -51 47z" />
<glyph unicode="y" d="M-293 -385q0 25 17.5 47.5t48.5 24.5q27 0 43 -15.5t16 -40.5q0 -10 -12 -32l-21 -25l-4 -10q4 -33 34 -50.5t101 -17.5q180 0 385 336l150 277l153 288q-100 -152 -167 -237q-138 -174 -201 -174q-57 0 -80 34.5t-23 94.5q0 111 129.5 288t129.5 230q0 16 -19 39l-18 4 q-45 0 -123 -109l-53 -80l-13 -2l-12 9q10 43 85 119.5t116 76.5q43 0 62.5 -38t19.5 -89q0 -113 -128 -294t-128 -216q0 -16 11 -29.5t32 -17.5q72 0 208 182q63 86 144.5 213t175.5 295q25 -14 43 -18l57 6l64 6q25 0 24 -14l-14 -8l-12 2l-10 2q-33 0 -50 -17l-37 -49 q-68 -104 -159 -282l-248 -484q-104 -180 -199 -258q-129 -106 -303 -106q-82 0 -139 28q-76 39 -76 111z" />
<glyph unicode="z" horiz-adv-x="600" d="M-63 -86q0 16 32 37l49 24q100 49 207 140l187 168h-60h-33q-18 -6 -24 -9l-68 -14l-6 2l-6 6l-2 6l16 17l52 10l65 2h70l22 2q59 59 127 139l74 91h-10q-43 0 -105 12q-134 28 -170 28h-2q-61 0 -98 -36q-18 -18 -53 -97l-15 -4l-8 4l-4 9q25 25 68 116q68 143 161 144 q66 0 124.5 -77t97.5 -77q25 0 42 20.5t17 47.5q0 16 -12 32l-27 27l-4 12q18 53 86 54q37 0 37 -45q0 -55 -121 -203l-170 -195h53l84 2q23 4 35 17h10l15 -11l-4 -12q-12 -10 -66 -16l-59 -4h-47l-41 2l-148 -131l-151 -127l43 10l45 4q102 0 252.5 -147.5t201.5 -147.5 l19 6v29l12 18l10 4q18 0 27 -20v-8q0 -31 -43 -48.5t-82 -17.5q-127 0 -259 152.5t-185 152.5q-61 0 -124 -65.5t-85 -65.5q-16 0 -31.5 7.5t-17.5 23.5z" />
<glyph unicode="{" horiz-adv-x="653" d="M82 459v116q109 0 141 132q6 29 10.5 83t4.5 136v84q0 188 22 258q43 145 180 145h131v-127h-86q-47 0 -71 -51q-18 -49 -19 -109l2 -223l-2 -108q0 -43 -10 -81t-37 -83q-51 -92 -125 -113q111 -33 150 -164q25 -80 24 -231l-4 -166q0 -98 8 -131q18 -82 84 -82h86v-127 h-129q-94 0 -147 78t-53 174v336q0 92 -35 162q-43 92 -125 92z" />
<glyph unicode="|" horiz-adv-x="509" d="M184 -37v1481h144v-1481h-144z" />
<glyph unicode="}" horiz-adv-x="653" d="M82 -256h86q61 0 82 82q10 47 10 131l-2 168q0 145 25 229q37 127 147 160q-74 23 -123 110t-49 171v331q0 80 -23.5 120t-66.5 40h-86v127h131q123 0 172 -125q16 -45 24.5 -103.5t8.5 -146.5l-2 -59v-53q0 -162 14 -217q31 -133 141 -134v-116q-80 0 -122 -92 q-35 -76 -35 -164v-334q0 -96 -49 -170q-57 -82 -152 -82h-131v127z" />
<glyph unicode="~" horiz-adv-x="0" d="M709 1587q0 29 46 66t79 37q29 0 114 -27l72 -14q20 0 35.5 12t34.5 39l8 4q8 -8 10 -12l-12 -29q-18 -37 -60 -64q-8 -6 -30.5 -16t-44.5 -10q-35 0 -72 10q-92 25 -119 25q-14 0 -25 -9l-16 -20l-12 -4z" />
<glyph horiz-adv-x="1093" d="M41 264v107h365l149 270h-514v104h573l177 320l94 -55l-148 -265h322v-104h-377l-154 -270h531v-107h-588l-174 -313l-96 55l143 258h-303z" />
<glyph horiz-adv-x="1423" d="M63 516q0 106 81 187t192 81q113 0 246 -102l123 -107l122 105q135 104 248 104q111 0 192 -78.5t81 -189.5q0 -106 -75 -190t-186 -84t-210 63q-37 25 -172 144q-117 -111 -170 -144q-102 -63 -211 -63q-104 0 -185 82q-76 86 -76 192zM158 502q0 -68 55 -121 q27 -23 59.5 -35t71.5 -12q82 0 164 57q35 25 131 119q-102 86 -139 111q-92 61 -166 61t-125 -54.5t-51 -125.5zM768 512q100 -96 138 -121.5t76 -40t83 -14.5q72 0 128 49t56 119q0 74 -53 127q-49 55 -125 55q-74 0 -164 -59z" />
<glyph horiz-adv-x="1222" d="M25 0l620 1333l547 -1333h-1167zM154 96h798l-377 905z" />
<glyph horiz-adv-x="985" d="M45 731l377 715h115l374 -715l-374 -731h-115zM160 731l319 -627l318 627l-318 608z" />
<glyph horiz-adv-x="1349" />
<glyph unicode="&#xa1;" horiz-adv-x="645" d="M174 37q0 16 117 201l301 452l86 146l82 145l12 4l8 -4l6 -14l-24 -56l-39 -67l-111 -215l-96 -197l-145 -338q-25 -63 -53.5 -85.5t-96.5 -22.5q-18 0 -31.5 15t-15.5 36zM784 1147q0 43 36 82t75 39q25 0 43 -18.5t18 -45.5q0 -43 -32.5 -88t-75.5 -45 q-35 0 -49.5 21.5t-14.5 54.5z" />
<glyph unicode="&#xa2;" horiz-adv-x="557" d="M-66 -49l23 22l10 -8q6 -16 20.5 -30.5t32.5 -18.5q47 0 92.5 28.5t88.5 75.5q-33 27 -51 74q-6 27 -10.5 48.5t-4.5 47.5q0 170 150.5 335t320.5 165q47 84 92 131q68 74 136 74q38 0 40 -27l-6 -10l-16 -2q-14 10 -41 8q-41 0 -102 -69l-76 -107q80 -16 80 -104 q0 -55 -35 -118t-88 -63q-16 0 -33 17q-10 16 -14 37q0 74 72.5 85t72.5 64q0 29 -16.5 47.5t-46.5 18.5l-125 -217q-45 -84 -62 -115q-43 -80 -65 -115q-78 -133 -140 -202l21 -9l27 -2q92 0 161 103q94 141 117 164l12 2l9 -13q0 -59 -116 -166.5t-179 -107.5 q-37 0 -64 14q-43 -49 -82 -78q-59 -39 -106 -39q-49 0 -94 46zM197 100q0 -39 20 -61l31 39l117 207l81 145l148 240q-111 -31 -254 -242t-143 -328z" />
<glyph unicode="&#xa3;" horiz-adv-x="1116" d="M55 61q0 70 74 113t152 43q43 0 73 -10q25 -4 36 -7t46 -20q37 41 76 111q31 61 82 198l-119 3q-43 0 -68.5 -9.5t-19.5 -46.5q-4 -12 -18 -12q-16 0 -21 25q0 41 43 57q23 6 46.5 10t54.5 4l108 -6q55 236 145 346q121 154 330 154q84 0 131 -41t47 -123q0 -76 -32 -143 q-41 -86 -107 -86q-25 0 -43 18q-12 16 -14 47q0 53 26.5 70.5t85.5 17.5q33 0 48 51l6 47q0 57 -39 90t-101 33q-125 0 -239 -188q-51 -86 -144 -299l97 -4l75 -4q31 0 66 22l8 4q12 -8 12 -12q0 -18 -20 -33q-14 -6 -41 -10l-96 2l-115 12q-25 -80 -94 -168 q-43 -57 -131 -145l266 -178q190 -125 272 -125q45 0 77 27.5t32 70.5q0 49 -54.5 88t-105.5 39q-53 0 -80 -45l-12 -8l-18 14q0 20 33.5 34.5t68.5 19.5q72 0 132.5 -42t60.5 -114q0 -59 -74 -107q-61 -37 -135 -36q-119 0 -277 116q-207 156 -252 183q-92 -68 -151 -95 q-57 -23 -107 -22q-29 0 -55.5 18.5t-26.5 50.5zM74 61q0 -18 20 -36q20 -12 47 -15q70 0 148 51l80 56q-12 8 -27.5 16t-48.5 20.5t-68 12.5q-59 0 -104 -29q-47 -25 -47 -76z" />
<glyph unicode="&#xa7;" horiz-adv-x="774" d="M96 80q0 41 25.5 74.5t71.5 33.5q20 0 39.5 -17t23.5 -44q0 -31 -38 -48.5t-38 -51.5q0 -37 37 -59.5t78 -22.5q72 0 121 55q45 57 45 135t-60.5 228.5t-60.5 226.5q0 109 82 182q68 55 186 86l-12 64l-6 65q0 111 76.5 181.5t189.5 70.5q78 0 142.5 -48t64.5 -126 q0 -43 -24.5 -73.5t-67.5 -30.5q-25 0 -47 16q-18 18 -19 43q0 33 44 50t44 54l-4 15l-8 22q-12 27 -45 39t-72 12q-72 0 -121 -49q-43 -47 -43 -125q0 -80 39 -184q86 -233 86 -301q0 -102 -86 -174q-70 -57 -186 -82q8 -31 12 -54.5t4 -54.5q0 -109 -85 -187.5t-199 -78.5 q-72 0 -127 41q-61 47 -62 117zM444 670q0 -53 39 -172q10 -31 31 -88q14 -41 33 -84q164 22 164 178q0 61 -35 166q-12 39 -25.5 77.5t-34.5 88.5q-74 -16 -116 -54q-55 -47 -56 -112z" />
<glyph unicode="&#xa8;" horiz-adv-x="0" d="M188 870q6 37 34 78t63 41q18 0 34 -16q10 -14 15 -39q0 -33 -35 -69t-68 -36q-10 0 -23 11.5t-20 29.5zM424 877q0 31 36 71.5t68 40.5q20 0 31 -16q12 -10 14 -33q0 -29 -35.5 -70t-66.5 -41q-18 0 -30.5 14t-16.5 34z" />
<glyph unicode="&#xa9;" horiz-adv-x="1576" d="M113 641q0 270 196.5 469t472.5 199t474 -195.5t198 -472.5q0 -276 -197.5 -474t-474.5 -198q-276 0 -472.5 196.5t-196.5 475.5zM193 641q0 -242 172.5 -417t416.5 -175t418 174t174 418q0 240 -174 415t-418 175t-416.5 -173t-172.5 -417zM420 623q0 162 103.5 274.5 t260.5 112.5q35 0 102.5 -19.5t100.5 -19.5q35 0 47 33h37l8 -248h-41q-12 84 -80 143q-33 29 -68.5 43t-82.5 14q-125 0 -193.5 -102t-68.5 -231q0 -133 65.5 -216t198.5 -83q82 0 130 20.5t122 81.5l20 -35q-68 -72 -132 -106.5t-154 -34.5q-168 0 -271.5 104.5 t-103.5 268.5z" />
<glyph unicode="&#xab;" horiz-adv-x="516" d="M154 373l6 12l30 8l41 10q51 12 98.5 57.5t71.5 96.5l13 4l8 -4l6 -8l2 -10q0 -35 -63 -97q-20 -18 -49 -38.5t-54 -34.5q25 -25 43.5 -55.5t18.5 -63.5q0 -41 -21.5 -85t-56.5 -61q-10 2 -15 13q4 4 16.5 22.5t17.5 29.5t9 38q0 72 -43 102l-77 56zM346 356l6 13l58 26 q53 23 82 45q20 12 57 60l45 49l10 -4l8 -17q0 -33 -63.5 -91t-102.5 -79q29 -31 45.5 -59t16.5 -63q0 -33 -19.5 -75t-48.5 -59l-12 -4l-6 -2q-10 6 -8 21l28 41q6 14 11 49q0 43 -31 84q-18 25 -72 57z" />
<glyph unicode="&#xac;" horiz-adv-x="1423" d="M43 453v104h1288v-557h-106v453h-1182z" />
<glyph unicode="&#xad;" horiz-adv-x="645" d="M172 389q6 18 33 27l55 8q55 0 191 -14l116 -9l33 5l27 6l8 -4l2 -9q0 -20 -19.5 -27t-54.5 -7q-20 0 -57 2t-84 8l-129 12l-55 -8l-50 -6z" />
<glyph unicode="&#xae;" horiz-adv-x="1576" d="M115 631q0 276 194.5 470.5t470.5 194.5q279 0 474.5 -194.5t195.5 -470.5t-197 -473t-473 -197q-274 0 -469.5 197.5t-195.5 472.5zM190 629q0 -246 172.5 -418t417.5 -172q244 0 418 174t174 418t-174 418t-420 174q-242 0 -415 -173t-173 -421zM465 289l2 37 q37 0 63.5 9t28.5 42l-2 559q0 33 -11 45t-36 12h-37v35h332q113 0 176 -35q88 -47 88 -145q0 -80 -57.5 -138.5t-139.5 -58.5l232 -299q10 -12 26 -22l46 -4v-37h-185l-258 346h-49v-254q0 -31 25.5 -43t64.5 -12v-37h-309zM682 950l2 -270q104 0 166 25q88 37 88 129 q0 80 -34 110.5t-120 40.5l-63 4q-12 0 -29 -12q-6 -6 -10 -27z" />
<glyph unicode="&#xb0;" horiz-adv-x="796" d="M106 1036q0 121 84 205t207 84q117 0 203 -85t86 -206q0 -115 -85 -202t-206 -87q-119 0 -204 86.5t-85 204.5zM184 1034q0 -84 61.5 -147.5t151.5 -63.5q84 0 149.5 61.5t65.5 151.5q0 86 -64.5 149.5t-152.5 63.5q-86 0 -148.5 -62.5t-62.5 -152.5z" />
<glyph unicode="&#xb1;" horiz-adv-x="1093" d="M31 0v106h1026v-106h-1026zM31 684v107h461v460h106v-460h459v-107h-459v-459h-106v459h-461z" />
<glyph unicode="&#xb4;" horiz-adv-x="0" d="M238 823l6 8l65 19q31 12 60 41l43 61q31 41 57 41q16 0 31.5 -8t17.5 -24q0 -66 -100 -111q-90 -39 -160 -39q-16 0 -20 12z" />
<glyph unicode="&#xb5;" horiz-adv-x="1148" d="M76 -295q0 39 3 57.5t13 59.5q37 154 37 196v951h168v-643q0 -100 39 -158q47 -68 145 -68q61 0 124 43t91 107v719h170l-2 -742q0 -57 25 -112q27 -51 80 -52q59 0 84 64l20 72h37q-25 -102 -74 -162q-63 -70 -159 -70q-84 0 -127 56q-29 37 -50 137 q-47 -76 -136 -135.5t-171 -59.5q-63 0 -125 43l-67 55l-2 -45q0 -55 32.5 -159.5t32.5 -151.5q0 -51 -22.5 -95t-73.5 -44q-45 0 -68.5 44t-23.5 93z" />
<glyph unicode="&#xb6;" horiz-adv-x="1306" d="M172 993q0 184 121 286.5t311 102.5h451v-106h-66v-1604h-115v1604h-280v-1604h-115v953q-145 23 -226 121t-81 247z" />
<glyph unicode="&#xb7;" horiz-adv-x="346" d="M172 354v15q0 23 18.5 43t47.5 22q63 0 63 -65v-15q0 -20 -19.5 -34.5t-43.5 -18.5q-20 0 -41 16.5t-25 36.5z" />
<glyph unicode="&#xb8;" horiz-adv-x="0" d="M-172 -209q4 6 44 30.5t50 59.5l-6 10l-35 15q-12 4 -12 24q0 23 19.5 42.5t39.5 19.5q57 0 58 -53q0 -39 -55.5 -100.5t-88.5 -61.5l-10 4z" />
<glyph unicode="&#xbb;" horiz-adv-x="516" d="M49 143q0 37 64 99l100 80l-33 38q-28 39 -28 80q0 37 22.5 78t54.5 62l19 -9q-4 -18 -22.5 -42.5t-18.5 -49.5q0 -47 31 -90q20 -25 73 -65v-9l-10 -12q-84 -10 -135 -65l-96 -109h-9l-8 6zM231 127q0 43 56.5 100.5t107.5 79.5l-43 55q-20 35 -20 68q0 49 35 102 q20 33 45 39q10 0 16 -14l-4 -10l-31 -41q-6 -12 -10 -39q0 -68 59.5 -112t63.5 -54l-4 -8l-17 -4q-92 -25 -137 -54.5t-86 -109.5l-10 -8z" />
<glyph unicode="&#xbf;" horiz-adv-x="946" d="M176 233q0 158 186 295q35 27 347 199q188 104 188 184q0 12 -18 29l-23 16l-2 7q0 18 15.5 31.5t35.5 15.5q23 0 35 -15.5t16 -40.5q0 -68 -172 -202q-129 -100 -209.5 -168t-109.5 -99q-172 -172 -172 -340q0 -59 45 -102q49 -39 111 -39q70 0 141 47q82 53 82 117 q0 25 -19 43q-37 39 -41 59q0 35 35 70t72 35q27 0 52.5 -29t25.5 -57q0 -123 -119 -215q-109 -84 -238 -84q-106 0 -185 67.5t-79 175.5zM926 1126q0 43 31.5 87t72.5 44q31 0 44 -18t18 -51q0 -45 -29 -85t-74 -40q-20 0 -43 18q-16 18 -20 45z" />
<glyph unicode="&#xc0;" horiz-adv-x="1890" d="M250 399q0 195 172 334q160 129 364 129q135 0 234 -65q115 -74 115 -201q74 6 150.5 10t162.5 4l192 219q53 57 109.5 111.5t103.5 91.5q115 90 224 150q123 66 254 90l53 8q18 6 18 18l-6 11q-29 0 -51 8l-88 24q-203 49 -412 50q-238 0 -452 -99q-266 -123 -267 -336 q0 -68 50 -110q25 -20 53 -30.5t65 -10.5q109 0 225.5 90t116.5 199q0 18 -14 34l-35 27l-8 14l6 9l8 4q23 0 47 -43q16 -41 21 -76q0 -117 -107.5 -201t-228.5 -84q-104 0 -181 74t-77 176q0 201 221 318q178 92 406 92q121 0 242.5 -14.5t242.5 -45.5l148 -39 q90 -23 151 -22q18 0 47 12l53 29q12 -8 17 -12l6 -21q0 -35 -25 -53q-25 -12 -65 -12l-49 2q-115 0 -248 -107q-84 -68 -195 -201l-84 -116l-125 -209q96 0 166 20q115 31 115 96q0 12 -12 25l-21 25q0 23 15.5 35t40.5 16q39 0 38 -49q0 -102 -135 -156q-98 -37 -225 -37 q-35 -70 -57.5 -122t-34.5 -91q-39 -123 -39 -229q0 -63 14 -101q23 -57 74 -57q63 0 111 78l69 127l13 6l8 -4l4 -6q-16 -66 -76 -137q-70 -82 -131 -82q-82 0 -137 120q-43 98 -43 197q0 59 4 84t18 68l56 143l-148 -4l-170 -223q-86 -106 -172 -185q-106 -92 -237 -153 q43 -41 94 -62.5t104 -21.5q68 0 106 22.5t72 77.5l11 4l6 -2l4 -6l2 -10l-4 -17q-45 -45 -87 -68.5t-102 -23.5q-31 0 -60.5 6.5t-64.5 20.5q-55 23 -108 74l-105 -25l-73 -4q-193 0 -320 102q-143 113 -143 299zM285 340q0 -133 121 -221q111 -80 249 -80h60q25 6 35 8 q47 10 98 33q-45 90 -45 166l2 49q-92 18 -129 39q-70 39 -70 106q0 27 12.5 45.5t30.5 34.5l17 4l6 -2l8 -12l-33 -33q-18 -16 -22 -39q0 -61 69 -88q49 -18 123 -18q35 113 101.5 167t183.5 85l2 28q0 94 -80 150q-72 45 -172 45q-186 0 -369 -139q-199 -150 -198 -328z M817 246q0 -35 12.5 -81t34.5 -75q137 53 299 221l260 277h-118l-99 -6l-69 -9q-31 -135 -99.5 -190t-214.5 -86zM817 346q0 -10 23 -8q191 43 252 223l2 19q-6 6 -11 6q-37 0 -151.5 -103.5t-114.5 -136.5zM1526 621l139 2q49 117 168 247q143 156 401 330l15 8 q16 12 20 25l-53 -12q-63 -20 -132 -57.5t-132 -88.5q-104 -80 -232 -219q-70 -78 -194 -235zM1624 1683q0 18 12 33t35 19q25 0 57.5 -59.5t73.5 -80.5l47 -16l13 -8l-7 -12l-8 -5h-14q-61 0 -129 35q-80 41 -80 94z" />
<glyph unicode="&#xc1;" horiz-adv-x="1890" d="M250 399q0 195 172 334q160 129 364 129q135 0 234 -65q115 -74 115 -201q74 6 150.5 10t162.5 4l192 219q53 57 109.5 111.5t103.5 91.5q115 90 224 150q123 66 254 90l53 8q18 6 18 18l-6 11q-29 0 -51 8l-88 24q-203 49 -412 50q-238 0 -452 -99q-266 -123 -267 -336 q0 -68 50 -110q25 -20 53 -30.5t65 -10.5q109 0 225.5 90t116.5 199q0 18 -14 34l-35 27l-8 14l6 9l8 4q23 0 47 -43q16 -41 21 -76q0 -117 -107.5 -201t-228.5 -84q-104 0 -181 74t-77 176q0 201 221 318q178 92 406 92q121 0 242.5 -14.5t242.5 -45.5l148 -39 q90 -23 151 -22q18 0 47 12l53 29q12 -8 17 -12l6 -21q0 -35 -25 -53q-25 -12 -65 -12l-49 2q-115 0 -248 -107q-84 -68 -195 -201l-84 -116l-125 -209q96 0 166 20q115 31 115 96q0 12 -12 25l-21 25q0 23 15.5 35t40.5 16q39 0 38 -49q0 -102 -135 -156q-98 -37 -225 -37 q-35 -70 -57.5 -122t-34.5 -91q-39 -123 -39 -229q0 -63 14 -101q23 -57 74 -57q63 0 111 78l69 127l13 6l8 -4l4 -6q-16 -66 -76 -137q-70 -82 -131 -82q-82 0 -137 120q-43 98 -43 197q0 59 4 84t18 68l56 143l-148 -4l-170 -223q-86 -106 -172 -185q-106 -92 -237 -153 q43 -41 94 -62.5t104 -21.5q68 0 106 22.5t72 77.5l11 4l6 -2l4 -6l2 -10l-4 -17q-45 -45 -87 -68.5t-102 -23.5q-31 0 -60.5 6.5t-64.5 20.5q-55 23 -108 74l-105 -25l-73 -4q-193 0 -320 102q-143 113 -143 299zM285 340q0 -133 121 -221q111 -80 249 -80h60q25 6 35 8 q47 10 98 33q-45 90 -45 166l2 49q-92 18 -129 39q-70 39 -70 106q0 27 12.5 45.5t30.5 34.5l17 4l6 -2l8 -12l-33 -33q-18 -16 -22 -39q0 -61 69 -88q49 -18 123 -18q35 113 101.5 167t183.5 85l2 28q0 94 -80 150q-72 45 -172 45q-186 0 -369 -139q-199 -150 -198 -328z M817 246q0 -35 12.5 -81t34.5 -75q137 53 299 221l260 277h-118l-99 -6l-69 -9q-31 -135 -99.5 -190t-214.5 -86zM817 346q0 -10 23 -8q191 43 252 223l2 19q-6 6 -11 6q-37 0 -151.5 -103.5t-114.5 -136.5zM1526 621l139 2q49 117 168 247q143 156 401 330l15 8 q16 12 20 25l-53 -12q-63 -20 -132 -57.5t-132 -88.5q-104 -80 -232 -219q-70 -78 -194 -235zM1679 1567l9 12l61 12q14 4 47 31l51 70q33 45 70 45q18 0 31 -11q14 -6 16 -22q0 -57 -90 -105q-82 -41 -143 -40h-35z" />
<glyph unicode="&#xc2;" horiz-adv-x="1890" d="M250 399q0 195 172 334q160 129 364 129q135 0 234 -65q115 -74 115 -201q74 6 150.5 10t162.5 4l192 219q53 57 109.5 111.5t103.5 91.5q115 90 224 150q123 66 254 90l53 8q18 6 18 18l-6 11q-29 0 -51 8l-88 24q-203 49 -412 50q-238 0 -452 -99q-266 -123 -267 -336 q0 -68 50 -110q25 -20 53 -30.5t65 -10.5q109 0 225.5 90t116.5 199q0 18 -14 34l-35 27l-8 14l6 9l8 4q23 0 47 -43q16 -41 21 -76q0 -117 -107.5 -201t-228.5 -84q-104 0 -181 74t-77 176q0 201 221 318q178 92 406 92q121 0 242.5 -14.5t242.5 -45.5l148 -39 q90 -23 151 -22q18 0 47 12l53 29q12 -8 17 -12l6 -21q0 -35 -25 -53q-25 -12 -65 -12l-49 2q-115 0 -248 -107q-84 -68 -195 -201l-84 -116l-125 -209q96 0 166 20q115 31 115 96q0 12 -12 25l-21 25q0 23 15.5 35t40.5 16q39 0 38 -49q0 -102 -135 -156q-98 -37 -225 -37 q-35 -70 -57.5 -122t-34.5 -91q-39 -123 -39 -229q0 -63 14 -101q23 -57 74 -57q63 0 111 78l69 127l13 6l8 -4l4 -6q-16 -66 -76 -137q-70 -82 -131 -82q-82 0 -137 120q-43 98 -43 197q0 59 4 84t18 68l56 143l-148 -4l-170 -223q-86 -106 -172 -185q-106 -92 -237 -153 q43 -41 94 -62.5t104 -21.5q68 0 106 22.5t72 77.5l11 4l6 -2l4 -6l2 -10l-4 -17q-45 -45 -87 -68.5t-102 -23.5q-31 0 -60.5 6.5t-64.5 20.5q-55 23 -108 74l-105 -25l-73 -4q-193 0 -320 102q-143 113 -143 299zM285 340q0 -133 121 -221q111 -80 249 -80h60q25 6 35 8 q47 10 98 33q-45 90 -45 166l2 49q-92 18 -129 39q-70 39 -70 106q0 27 12.5 45.5t30.5 34.5l17 4l6 -2l8 -12l-33 -33q-18 -16 -22 -39q0 -61 69 -88q49 -18 123 -18q35 113 101.5 167t183.5 85l2 28q0 94 -80 150q-72 45 -172 45q-186 0 -369 -139q-199 -150 -198 -328z M817 246q0 -35 12.5 -81t34.5 -75q137 53 299 221l260 277h-118l-99 -6l-69 -9q-31 -135 -99.5 -190t-214.5 -86zM817 346q0 -10 23 -8q191 43 252 223l2 19q-6 6 -11 6q-37 0 -151.5 -103.5t-114.5 -136.5zM1526 621l139 2q49 117 168 247q143 156 401 330l15 8 q16 12 20 25l-53 -12q-63 -20 -132 -57.5t-132 -88.5q-104 -80 -232 -219q-70 -78 -194 -235zM1632 1569l29 18l39 19l61 32q27 18 52.5 45t35.5 46q25 35 33 36l10 -8l2 -8l-4 -33l-4 -33q0 -37 5 -55t22 -33l18 -14l17 -14l-19 -8q-39 0 -63 22q-20 14 -43 53 q-33 -25 -86 -51.5t-90 -26.5z" />
<glyph unicode="&#xc3;" horiz-adv-x="1890" d="M250 399q0 195 172 334q160 129 364 129q135 0 234 -65q115 -74 115 -201q74 6 150.5 10t162.5 4l192 219q53 57 109.5 111.5t103.5 91.5q115 90 224 150q123 66 254 90l53 8q18 6 18 18l-6 11q-29 0 -51 8l-88 24q-203 49 -412 50q-238 0 -452 -99q-266 -123 -267 -336 q0 -68 50 -110q25 -20 53 -30.5t65 -10.5q109 0 225.5 90t116.5 199q0 18 -14 34l-35 27l-8 14l6 9l8 4q23 0 47 -43q16 -41 21 -76q0 -117 -107.5 -201t-228.5 -84q-104 0 -181 74t-77 176q0 201 221 318q178 92 406 92q121 0 242.5 -14.5t242.5 -45.5l148 -39 q90 -23 151 -22q18 0 47 12l53 29q12 -8 17 -12l6 -21q0 -35 -25 -53q-25 -12 -65 -12l-49 2q-115 0 -248 -107q-84 -68 -195 -201l-84 -116l-125 -209q96 0 166 20q115 31 115 96q0 12 -12 25l-21 25q0 23 15.5 35t40.5 16q39 0 38 -49q0 -102 -135 -156q-98 -37 -225 -37 q-35 -70 -57.5 -122t-34.5 -91q-39 -123 -39 -229q0 -63 14 -101q23 -57 74 -57q63 0 111 78l69 127l13 6l8 -4l4 -6q-16 -66 -76 -137q-70 -82 -131 -82q-82 0 -137 120q-43 98 -43 197q0 59 4 84t18 68l56 143l-148 -4l-170 -223q-86 -106 -172 -185q-106 -92 -237 -153 q43 -41 94 -62.5t104 -21.5q68 0 106 22.5t72 77.5l11 4l6 -2l4 -6l2 -10l-4 -17q-45 -45 -87 -68.5t-102 -23.5q-31 0 -60.5 6.5t-64.5 20.5q-55 23 -108 74l-105 -25l-73 -4q-193 0 -320 102q-143 113 -143 299zM285 340q0 -133 121 -221q111 -80 249 -80h60q25 6 35 8 q47 10 98 33q-45 90 -45 166l2 49q-92 18 -129 39q-70 39 -70 106q0 27 12.5 45.5t30.5 34.5l17 4l6 -2l8 -12l-33 -33q-18 -16 -22 -39q0 -61 69 -88q49 -18 123 -18q35 113 101.5 167t183.5 85l2 28q0 94 -80 150q-72 45 -172 45q-186 0 -369 -139q-199 -150 -198 -328z M817 246q0 -35 12.5 -81t34.5 -75q137 53 299 221l260 277h-118l-99 -6l-69 -9q-31 -135 -99.5 -190t-214.5 -86zM817 346q0 -10 23 -8q191 43 252 223l2 19q-6 6 -11 6q-37 0 -151.5 -103.5t-114.5 -136.5zM1526 621l139 2q49 117 168 247q143 156 401 330l15 8 q16 12 20 25l-53 -12q-63 -20 -132 -57.5t-132 -88.5q-104 -80 -232 -219q-70 -78 -194 -235zM1645 1585q0 33 44.5 69t79.5 36q14 0 41 -6.5t74 -20.5l70 -14q20 0 38.5 12t35.5 39l8 4q8 -8 10 -12l-10 -29q-18 -33 -62 -64q-16 -10 -37.5 -18t-40.5 -8q-31 0 -57.5 6 t-40.5 10q-61 18 -90 19q-27 0 -41 -29l-12 -4z" />
<glyph unicode="&#xc4;" horiz-adv-x="1890" d="M248 401q0 195 172 334q160 129 364 129q135 0 234 -65q115 -74 115 -201q74 6 150.5 10t162.5 4l192 219q53 57 109.5 111.5t103.5 91.5q115 90 224 150q123 66 254 90l53 8q18 6 18 18l-6 11q-29 0 -51 8l-88 24q-203 49 -412 50q-238 0 -452 -99q-266 -123 -267 -336 q0 -68 50 -110q25 -20 53 -30.5t65 -10.5q109 0 225.5 90t116.5 199q0 18 -14 34l-35 27l-8 14l6 9l8 4q23 0 47 -43q16 -41 21 -76q0 -117 -107.5 -201t-228.5 -84q-104 0 -181 74t-77 176q0 201 221 318q178 92 406 92q121 0 242.5 -14.5t242.5 -45.5l147 -39 q90 -23 152 -22q18 0 47 12l53 29q12 -8 17 -12l6 -21q0 -35 -25 -53q-25 -12 -65 -12l-49 2q-115 0 -248 -107q-84 -68 -195 -201l-84 -116l-125 -209q96 0 166 20q115 31 115 97q0 12 -12 24l-21 25q0 23 15.5 35t39.5 16q39 0 39 -49q0 -102 -135 -156q-98 -37 -225 -37 q-35 -70 -57.5 -122t-34.5 -91q-39 -123 -39 -229q0 -63 14 -101q23 -57 74 -57q63 0 111 78l69 127l12 6l9 -4l4 -6q-16 -66 -76 -137q-70 -82 -131 -82q-82 0 -137 121q-43 98 -43 196q0 59 4 84t18 68l55 143l-147 -4l-170 -223q-86 -106 -172 -185q-106 -92 -238 -153 q43 -41 94.5 -62.5t104.5 -21.5q68 0 105.5 22.5t72.5 77.5l11 4l6 -2l4 -6l2 -10l-4 -17q-45 -45 -87 -68.5t-102 -23.5q-31 0 -60.5 6.5t-64.5 20.5q-55 23 -108 74l-105 -25l-73 -4q-193 0 -320 102q-143 113 -143 299zM283 342q0 -133 120 -221q111 -80 250 -80h60 q25 6 35 8q47 10 98 33q-45 90 -45 166l2 49q-92 18 -129 39q-70 39 -70 106q0 27 12.5 45.5t30.5 34.5l17 4l6 -2l8 -12l-33 -33q-18 -16 -22 -39q0 -61 69 -88q49 -18 123 -18q35 113 101.5 167t183.5 85l2 28q0 94 -80 150q-72 45 -172 45q-186 0 -369 -139 q-199 -150 -198 -328zM815 248q0 -35 12.5 -81t34.5 -75q137 53 299 221l260 277h-118l-99 -6l-69 -9q-31 -135 -99.5 -190t-214.5 -86zM815 348q0 -10 23 -8q191 43 252 223l2 19q-6 6 -11 6q-37 0 -151.5 -103.5t-114.5 -136.5zM1524 623l139 2q49 117 168 247 q143 156 401 330l15 8q16 12 20 25l-53 -12q-63 -20 -132 -57.5t-132 -88.5q-104 -80 -232 -219q-70 -78 -194 -235zM2232 1614q0 39 29 75.5t66 36.5q49 0 49 -43q0 -37 -33 -75.5t-70 -38.5q-14 0 -27.5 13t-13.5 32zM2464 1622q0 33 35.5 69t64.5 38l23 -5q25 -14 28 -45 q0 -29 -39 -68.5t-63 -39.5q-18 0 -35 14q-10 14 -14 37z" />
<glyph unicode="&#xc5;" horiz-adv-x="1890" d="M248 397q0 195 172 334q160 129 364 129q135 0 234 -65q115 -74 115 -201q74 6 150.5 10t162.5 4l192 219q53 57 109.5 111.5t103.5 91.5q115 90 224 150q123 66 254 90l53 8q18 6 18 18l-6 11q-29 0 -51 8l-88 24q-203 49 -412 50q-238 0 -452 -99q-266 -123 -267 -336 q0 -68 50 -110q25 -20 53 -30.5t65 -10.5q109 0 225.5 90t116.5 199q0 18 -14 34l-35 27l-8 14l6 9l8 4q23 0 47 -43q16 -41 21 -76q0 -117 -107.5 -201t-228.5 -84q-104 0 -181 74t-77 176q0 201 221 317q178 92 406 93q121 0 242.5 -14.5t242.5 -45.5l147 -39 q90 -23 152 -22q18 0 47 12l53 29q12 -8 17 -13l6 -20q0 -35 -25 -53q-25 -12 -65 -13l-49 3q-115 0 -248 -107q-84 -68 -195 -201l-84 -116l-125 -209q96 0 166 20q115 31 115 96q0 12 -12 25l-21 25q0 23 15.5 35t39.5 16q39 0 39 -49q0 -102 -135 -156q-98 -37 -225 -37 q-35 -70 -57.5 -122t-34.5 -91q-39 -123 -39 -229q0 -63 14 -101q23 -57 74 -57q63 0 111 78l69 127l12 6l9 -4l4 -6q-16 -66 -76 -137q-70 -82 -131 -82q-82 0 -137 120q-43 98 -43 197q0 59 4 84t18 68l55 143l-147 -4l-170 -223q-86 -106 -172 -185q-106 -92 -238 -153 q43 -41 94.5 -62.5t104.5 -21.5q68 0 105.5 22.5t72.5 77.5l11 4l6 -2l4 -6l2 -10l-4 -17q-45 -45 -87 -68.5t-102 -23.5q-31 0 -60.5 6.5t-64.5 20.5q-55 23 -108 74l-105 -25l-73 -4q-193 0 -320 102q-143 113 -143 299zM283 338q0 -133 120 -221q111 -80 250 -80h60 q25 6 35 8q47 10 98 33q-45 90 -45 166l2 49q-92 18 -129 39q-70 39 -70 106q0 27 12.5 45.5t30.5 34.5l17 4l6 -2l8 -12l-33 -33q-18 -16 -22 -39q0 -61 69 -88q49 -18 123 -18q35 113 101.5 167t183.5 85l2 28q0 94 -80 150q-72 45 -172 45q-186 0 -369 -139 q-199 -150 -198 -328zM815 244q0 -35 12.5 -81t34.5 -75q137 53 299 221l260 277h-118l-99 -6l-69 -9q-31 -135 -99.5 -190t-214.5 -86zM815 344q0 -10 23 -8q191 43 252 223l2 19q-6 6 -11 6q-37 0 -151.5 -103.5t-114.5 -136.5zM1524 618l139 3q49 117 168 247 q143 156 401 330l15 8q16 12 20 25l-53 -12q-63 -20 -132 -57.5t-132 -88.5q-104 -80 -232 -219q-70 -78 -194 -236zM2322 1614q0 51 41.5 94t92.5 43q35 0 55 -26.5t20 -61.5q0 -49 -43 -92q-43 -39 -94 -39q-27 0 -51 24q-16 23 -21 58zM2345 1599q0 -18 15.5 -30.5 t37.5 -16.5q43 0 77 37t34 80q0 20 -16.5 38.5t-38.5 18.5q-43 0 -76 -38.5t-33 -88.5z" />
<glyph unicode="&#xc6;" horiz-adv-x="2535" d="M205 401q0 205 176 344q164 129 375 129q143 0 233 -63q106 -76 107 -211l170 16l143 7l289 331q123 129 260 230q102 76 293 182l-242 37q-139 20 -217 20q-242 0 -449 -100q-262 -123 -262 -336q0 -72 47.5 -121t118.5 -49q102 0 217 99.5t115 201.5q0 29 -18 45 l-17 23l8 4q35 -6 50.5 -40t15.5 -73q0 -109 -113.5 -195.5t-228.5 -86.5q-111 0 -186.5 75.5t-75.5 188.5q0 225 233 334q174 78 432 77q86 0 121 -3t104.5 -12t217.5 -44l86 -18l76 -4h12q168 78 344 77q127 0 219 -43q117 -55 117 -174q0 -121 -100.5 -204.5 t-227.5 -83.5q-94 0 -154 40q-70 47 -69 140q0 39 41 71q23 18 40 25.5t44 7.5l55 -6q25 -6 27 -27l-11 -8l-10 2q-25 20 -59 21q-45 0 -75 -29t-30 -74q0 -49 56 -84q43 -25 104 -24q115 0 219 67q117 74 117 187q0 84 -88 133q-72 37 -168 37q-172 0 -336 -142.5 t-164 -312.5q0 -39 12.5 -71.5t47.5 -47.5l127 8l88 3h67q27 -6 55.5 -10.5t41.5 -30.5q-6 -20 -35 -29l-62 -6q-139 0 -262 37l-59 -11q-197 -37 -351.5 -203.5t-154.5 -365.5q0 -119 80 -202t196 -83q170 0 360.5 178.5t190.5 354.5q0 68 -46 108.5t-118 40.5 q-115 0 -226 -105.5t-111 -221.5q0 -135 133 -135q27 0 44 9t40 36l6 -9l4 -14q0 -10 -33 -29q-37 -14 -70 -14q-74 0 -124 54.5t-50 129.5q0 129 114 226.5t247 97.5q111 0 176 -62.5t65 -173.5q0 -199 -167.5 -351t-372.5 -152q-197 0 -329 122.5t-132 319.5q0 59 8 107.5 t33 115.5l-156 -4l-166 -225q-94 -119 -186 -197q-100 -86 -235 -151q59 -43 104 -62.5t102 -19.5q68 0 99.5 18.5t79.5 81.5l6 2l14 -6l2 -8q-16 -51 -76.5 -81t-115.5 -30q-66 0 -130.5 23.5t-107.5 72.5l-98 -22l-80 -8q-193 0 -326 106q-145 117 -145 305zM246 336 q0 -135 121 -225q111 -80 251 -80q53 0 94.5 9t96.5 30l-41 88q-12 41 -12 88l4 55q-72 0 -127 31q-63 39 -64 106q0 45 37 64l8 -2l9 -4l2 -9l-15 -16q-12 -18 -16 -43q0 -47 61 -78q49 -23 105 -22q45 106 119.5 171.5t185.5 90.5l6 45q0 94 -90 147q-78 45 -178 45 q-176 0 -363 -155q-195 -164 -194 -336zM760 332l4 -6l18 2q96 27 166 84t109 151l2 17l-6 8q-37 0 -165 -110.5t-128 -145.5zM776 248q0 -55 11.5 -97t41.5 -73q106 43 230 153q106 99 325 367q-61 0 -88 -2q-59 -10 -94 -12l-110 -9q-25 -127 -105 -192q-66 -53 -207 -84z M1481 627l151 4q92 166 203 307q104 133 250 272l41 41l51 39q-147 -68 -276 -178q-98 -82 -215 -227zM1786 672q111 84 183.5 114.5t240.5 73.5q-61 35 -100 104.5t-39 149.5l-117 -158q-125 -168 -168 -284z" />
<glyph unicode="&#xc7;" horiz-adv-x="1245" d="M233 254q0 229 175.5 512t418.5 471q267 205 500 205q117 0 196 -67.5t79 -186.5q0 -141 -117 -269t-258 -128q-94 0 -154.5 52t-60.5 142q0 88 74.5 163t168.5 75q31 0 57.5 -9.5t33.5 -33.5l-11 -15l-6 2q-12 18 -29 27l-30 8q-82 0 -150 -86q-31 -43 -47 -86t-16 -90 q0 -51 34.5 -86t88.5 -35q123 0 242.5 147.5t119.5 274.5q0 88 -53 129q-51 45 -137 45q-174 0 -375 -168q-86 -72 -169 -163t-169 -210q-131 -182 -223 -368q-37 -80 -72 -182.5t-35 -178.5q0 -104 55.5 -183t153.5 -114q12 10 23 33l-9 13l-30 8q-14 8 -17 28 q0 20 18.5 41t45.5 21q25 0 38 -15.5t13 -42.5q0 -20 -15.5 -45.5t-35.5 -50.5q25 -4 65 -4q199 0 396 254q182 242 182 447q0 74 -42 123t-118 49q-139 0 -259 -153t-120 -296q0 -53 31 -92t88 -39q51 0 82 29l76 123l8 6l6 -2q12 -6 12 -17l-26 -41q-31 -55 -66 -82 q-45 -35 -100 -34q-72 0 -121 63q-45 68 -45 145q0 150 130 280t286 130q111 0 178.5 -79t67.5 -193q0 -233 -197 -441.5t-430 -208.5l-51 2q-16 0 -54 13l-30 -27q-20 -12 -41 -16l-11 10l52 41q-121 43 -193 165t-72 261z" />
<glyph unicode="&#xc8;" horiz-adv-x="1245" d="M219 297q0 246 240 405q195 129 469 160q-51 33 -86 97.5t-35 125.5q0 188 203 285q156 72 370 72q121 0 209 -47q115 -59 115 -166q0 -119 -113 -195q-100 -66 -227 -65q-78 0 -145 30q-84 41 -84 113q0 61 59 102q66 39 129 39q43 0 57 -4q23 -2 39 -20l2 -6l-2 -9 l-6 -4l-6 -2l-39 13q-29 12 -49 12q-61 0 -109.5 -29.5t-48.5 -87.5q0 -39 36 -66.5t112 -27.5q115 0 229 55q137 70 137 174q0 78 -84 121q-37 16 -72.5 24.5t-82.5 8.5q-170 0 -346 -125q-193 -137 -193 -299q0 -80 64 -117l51 4h45h57q104 0 152.5 -10t68.5 -33l4 -10 q0 -20 -47 -29l-92 -4q-61 0 -108.5 11.5t-65.5 17.5t-57 27q-225 0 -433 -217.5t-208 -448.5q0 -133 89 -205.5t228 -72.5q184 0 384 193.5t200 377.5q0 74 -52.5 112.5t-129.5 38.5q-129 0 -257 -131t-128 -258q0 -51 30.5 -90t85.5 -39q57 0 93 32t55 91l8 8l8 2l14 -10 q-31 -66 -71.5 -102.5t-104.5 -36.5q-68 0 -117 50t-49 120q0 147 141.5 266t291.5 119q102 0 171.5 -69.5t69.5 -172.5q0 -207 -203 -372q-190 -154 -411 -154q-190 0 -322.5 118.5t-132.5 309.5zM1300 1683q0 18 16 34t36 18q27 0 49 -35l76 -105l41 -12q18 -2 22 -18 l-6 -6l-8 -5h-13q-61 0 -131 35q-82 41 -82 94z" />
<glyph unicode="&#xc9;" horiz-adv-x="1245" d="M217 293q0 246 240 405q195 129 469 160q-51 33 -86 97.5t-35 125.5q0 188 203 285q156 72 370 72q121 0 209 -47q115 -59 115 -166q0 -119 -113 -195q-100 -66 -227 -65q-78 0 -145 30q-84 41 -84 113q0 61 59 102q66 39 129 39q43 0 57 -4q23 -2 39 -20l2 -6l-2 -9 l-6 -4l-6 -2l-39 13q-29 12 -49 12q-61 0 -109.5 -30t-48.5 -87q0 -39 36 -66.5t112 -27.5q115 0 229 55q137 70 137 174q0 78 -84 121q-37 16 -72.5 24.5t-82.5 8.5q-170 0 -347 -125q-193 -137 -192 -299q0 -80 63 -117l52 4h45h57q104 0 152.5 -10t68.5 -33l4 -10 q0 -20 -47 -29l-92 -4q-61 0 -108.5 11.5t-65.5 17.5t-57 27q-225 0 -433 -217.5t-208 -448.5q0 -133 89 -206t228 -73q184 0 384 193.5t200 378.5q0 74 -52.5 112.5t-130.5 38.5q-129 0 -257 -131t-128 -258q0 -51 31 -90t86 -39q57 0 93 32t55 91l8 8l8 2l14 -10 q-31 -66 -71.5 -102.5t-104.5 -36.5q-68 0 -117 50t-49 120q0 147 141.5 266t290.5 119q102 0 172 -69.5t70 -172.5q0 -207 -203 -373q-190 -154 -411 -153q-190 0 -322.5 118.5t-132.5 309.5zM1362 1567l6 12q86 12 162 113q33 45 67 45q49 0 50 -39q0 -53 -93 -101 q-84 -39 -143 -38h-35z" />
<glyph unicode="&#xca;" horiz-adv-x="1245" d="M217 295q0 246 240 405q195 129 469 160q-51 33 -86 97.5t-35 125.5q0 188 203 285q156 72 370 72q121 0 209 -47q115 -59 115 -166q0 -119 -113 -195q-100 -66 -227 -65q-78 0 -145 30q-84 41 -84 113q0 61 59 102q66 39 129 39q43 0 57 -4q23 -2 39 -20l2 -6l-2 -9 l-6 -4l-6 -2l-39 13q-29 12 -49 12q-61 0 -109.5 -30t-48.5 -87q0 -39 36 -66.5t112 -27.5q115 0 229 55q137 70 137 174q0 78 -84 121q-37 16 -72.5 24.5t-82.5 8.5q-170 0 -347 -125q-193 -137 -192 -299q0 -80 63 -117l52 4h45h57q104 0 152.5 -10t68.5 -33l4 -10 q0 -20 -47 -29l-92 -4q-61 0 -108.5 11.5t-65.5 17.5t-57 27q-225 0 -433 -217.5t-208 -448.5q0 -133 89 -206t228 -73q184 0 384 194t200 378q0 74 -52.5 112.5t-130.5 38.5q-129 0 -257 -131t-128 -258q0 -51 31 -90t86 -39q57 0 93 32t55 91l8 8l8 2l14 -10 q-31 -66 -71.5 -102.5t-104.5 -36.5q-68 0 -117 50t-49 120q0 147 141.5 266t290.5 119q102 0 172 -69.5t70 -172.5q0 -207 -203 -373q-190 -154 -411 -153q-190 0 -322.5 118.5t-132.5 309.5zM1313 1567q14 14 39 26l49 23q63 31 115 90l20 27l20 26l7 4l8 -6l4 -14l-6 -62 q0 -33 4 -48t20 -38l23 -14q10 -6 12 -16l-14 -6q-37 0 -62.5 19t-48.5 58l-92 -57q-45 -23 -86 -23z" />
<glyph unicode="&#xcb;" horiz-adv-x="1245" d="M217 297q0 246 240 405q195 129 469 160q-51 33 -86 97.5t-35 125.5q0 188 203 285q156 72 370 72q121 0 209 -47q115 -59 115 -166q0 -119 -113 -195q-100 -66 -227 -65q-78 0 -145 30q-84 41 -84 113q0 61 59 102q66 39 129 39q43 0 57 -4q23 -2 39 -20l2 -6l-2 -9 l-6 -4l-6 -2l-39 13q-29 12 -49 12q-61 0 -109.5 -29.5t-48.5 -87.5q0 -39 36 -66.5t112 -27.5q115 0 229 55q137 70 137 174q0 78 -84 121q-37 16 -72.5 24.5t-82.5 8.5q-170 0 -347 -125q-193 -137 -192 -299q0 -80 63 -117l52 4h45h57q104 0 152.5 -10t68.5 -33l4 -10 q0 -20 -47 -29l-92 -4q-61 0 -108.5 11.5t-65.5 17.5t-57 27q-225 0 -433 -217.5t-208 -448.5q0 -133 89 -205.5t228 -72.5q184 0 384 193.5t200 377.5q0 74 -52.5 112.5t-130.5 38.5q-129 0 -257 -131t-128 -258q0 -51 31 -90t86 -39q57 0 93 32t55 91l8 8l8 2l14 -10 q-31 -66 -71.5 -102.5t-104.5 -36.5q-68 0 -117 50t-49 120q0 147 141.5 266t290.5 119q102 0 172 -69.5t70 -172.5q0 -207 -203 -372q-190 -154 -411 -154q-190 0 -322.5 118.5t-132.5 309.5zM1329 1612q0 35 32 74.5t69 39.5q18 0 30.5 -19t12.5 -40q0 -27 -38 -62.5 t-65 -35.5q-12 0 -26.5 12t-14.5 31zM1565 1626q0 23 36.5 61.5t63.5 38.5q45 0 45 -45q0 -35 -36 -73.5t-70 -38.5q-20 0 -31 16z" />
<glyph unicode="&#xcc;" horiz-adv-x="1589" d="M229 391q0 178 150 289q135 98 321 98q139 0 240 -63q119 -76 119 -207q0 -115 -91 -191.5t-206 -76.5q-82 0 -146 41q-76 51 -75 125q0 35 29.5 58t70.5 34l29 -13l2 -6q-8 -10 -13 -12h-30q-27 0 -47.5 -18.5t-22.5 -47.5q0 -53 51 -90q55 -33 113 -32q104 0 203 73 q53 41 79.5 84t26.5 96q0 90 -77.5 136.5t-176.5 46.5q-170 0 -319 -107q-166 -117 -166 -280q0 -154 158 -244q135 -76 299 -76q254 0 460 193q145 133 326 426q219 358 285 440q94 119 223 199l139 73l2 7q-6 6 -28 12l-76 22q-86 23 -200 39.5t-200 16.5 q-260 0 -477 -115q-266 -143 -266 -379q0 -84 74 -145q74 -55 166 -56q125 0 243.5 102.5t118.5 223.5q0 53 -37 95t-94 42q-76 0 -153.5 -65.5t-77.5 -139.5q0 -57 53 -71l8 -10l2 -7q-4 -8 -8 -8l-6 -2q-29 0 -51 29q-16 29 -21 61q0 84 82 157t174 73q76 0 123 -53.5 t47 -131.5q0 -133 -116.5 -229t-256.5 -96q-127 0 -229 90t-102 217q0 231 221 360q182 104 436 105q274 0 520 -68l84 -26q10 -2 40 -8.5t46 -8.5q25 0 53 21l52 32l10 -4q18 -10 18 -28q0 -35 -24 -54q-14 -8 -62 -18q-150 -25 -264 -121q-88 -74 -176 -221 q-29 -47 -54.5 -98.5t-78.5 -165.5q-121 -260 -203 -383q-117 -170 -277.5 -259t-416.5 -89q-213 0 -377 92q-195 111 -195 315zM1473 1683q0 12 8 27q16 25 41 25q23 0 49 -35l78 -105l39 -12q10 -2 20 -10l4 -4q-8 -12 -16 -15h-10q-61 0 -132 35q-82 41 -81 94z" />
<glyph unicode="&#xcd;" horiz-adv-x="1589" d="M229 387q0 178 150 289q135 98 321 98q139 0 240 -63q119 -76 119 -207q0 -115 -91 -191.5t-206 -76.5q-82 0 -146 40q-76 51 -75 125q0 35 29.5 58.5t70.5 34.5l29 -13l2 -6q-8 -10 -13 -12h-30q-27 0 -47.5 -18.5t-22.5 -47.5q0 -53 51 -90q55 -33 113 -33 q104 0 203 74q53 41 79.5 84t26.5 96q0 90 -77.5 136.5t-176.5 46.5q-170 0 -319 -107q-166 -117 -166 -280q0 -154 158 -244q135 -76 299 -76q254 0 460 193q145 133 326 426q219 358 285 440q94 119 223 199l139 73l2 6q-6 6 -28 13l-76 22q-86 23 -200 39.5t-200 16.5 q-260 0 -477 -115q-266 -143 -266 -379q0 -84 74 -145q74 -55 166 -56q125 0 243.5 102.5t118.5 223.5q0 53 -37 95t-94 42q-76 0 -153.5 -65.5t-77.5 -139.5q0 -57 53 -71l8 -11l2 -6q-4 -8 -8 -8l-6 -2q-29 0 -51 29q-16 29 -21 61q0 84 82 157t174 73q76 0 123 -53.5 t47 -131.5q0 -133 -116.5 -229t-256.5 -96q-127 0 -229 90t-102 217q0 231 221 360q182 104 436 105q274 0 520 -68l84 -27l40 -8t46 -8q25 0 53 21l52 32l10 -4q18 -10 18 -28q0 -35 -24 -54q-14 -8 -62 -18q-150 -25 -264 -121q-88 -74 -176 -221q-29 -47 -54.5 -98.5 t-78.5 -165.5q-121 -260 -203 -383q-117 -170 -277.5 -259t-416.5 -89q-213 0 -377 92q-195 111 -195 315zM1534 1567l4 12q90 12 164 113q14 20 30.5 32.5t34.5 12.5q49 0 50 -39q0 -53 -93 -101q-84 -39 -143 -38h-33z" />
<glyph unicode="&#xce;" horiz-adv-x="1589" d="M227 389q0 178 150 289q135 98 321 98q139 0 240 -63q119 -76 119 -207q0 -115 -91.5 -191.5t-205.5 -76.5q-82 0 -146 41q-76 51 -75 124q0 35 29.5 58.5t70.5 34.5l29 -13l2 -6q-8 -10 -13 -12h-30q-27 0 -47.5 -18.5t-22.5 -47.5q0 -53 51 -90q55 -33 113 -33 q104 0 203 74q53 41 79.5 84t26.5 96q0 90 -78 136.5t-176 46.5q-170 0 -319 -107q-166 -117 -166 -280q0 -154 158 -244q135 -76 299 -76q254 0 460 193q145 133 326 426q219 358 285 440q94 119 223 199l139 73l2 6q-6 6 -29 13l-75 22q-86 23 -200 39.5t-200 16.5 q-260 0 -477 -115q-266 -143 -266 -379q0 -84 74 -145q74 -55 166 -56q125 0 243.5 102.5t118.5 223.5q0 53 -37 95t-94 42q-76 0 -153.5 -65.5t-77.5 -139.5q0 -57 53 -71l8 -11l2 -6q-4 -8 -8 -8l-6 -2q-29 0 -51 29q-16 29 -21 61q0 84 82 157t174 73q76 0 123 -53.5 t47 -131.5q0 -133 -116.5 -229t-256.5 -96q-127 0 -229.5 90t-102.5 217q0 231 222 360q182 104 436 105q274 0 520 -68l84 -27l40 -8t46 -8q25 0 53 21l52 32l10 -4q18 -10 18 -28q0 -35 -24 -54q-14 -8 -62 -18q-150 -25 -264 -121q-88 -74 -176 -221q-29 -47 -54.5 -98.5 t-78.5 -165.5q-121 -260 -203 -383q-117 -170 -277.5 -259t-416.5 -89q-213 0 -377 92q-195 111 -195 315zM1483 1565l4 10q14 4 25.5 7t43 17.5t73.5 52.5t79 83l12 18q4 6 15 10q8 -12 10 -20l-6 -62l2 -41q2 -16 24 -45l21 -14q12 -6 12 -16l-14 -6q-37 0 -62.5 19 t-48.5 58q-31 -27 -85 -53.5t-93 -26.5z" />
<glyph unicode="&#xcf;" horiz-adv-x="1589" d="M229 391q0 178 150 289q135 98 321 98q139 0 240 -63q119 -76 119 -207q0 -115 -91 -191.5t-206 -76.5q-82 0 -146 41q-76 51 -75 125q0 35 29.5 58t70.5 34l29 -13l2 -6q-8 -10 -13 -12h-30q-27 0 -47.5 -18.5t-22.5 -47.5q0 -53 51 -90q55 -33 113 -32q104 0 203 73 q53 41 79.5 84t26.5 96q0 90 -77.5 136.5t-176.5 46.5q-170 0 -319 -107q-166 -117 -166 -280q0 -154 158 -244q135 -76 299 -76q254 0 460 193q145 133 326 426q219 358 285 440q94 119 223 199l139 73l2 7q-6 6 -28 12l-76 22q-86 23 -200 39.5t-200 16.5 q-260 0 -477 -115q-266 -143 -266 -379q0 -84 74 -145q74 -55 166 -56q125 0 243.5 102.5t118.5 223.5q0 53 -37 95t-94 42q-76 0 -153.5 -65.5t-77.5 -139.5q0 -57 53 -71l8 -10l2 -7q-4 -8 -8 -8l-6 -2q-29 0 -51 29q-16 29 -21 61q0 84 82 157t174 73q76 0 123 -53.5 t47 -131.5q0 -133 -116.5 -229t-256.5 -96q-127 0 -229 90t-102 217q0 231 221 360q182 104 436 105q274 0 520 -68l84 -26q10 -2 40 -8.5t46 -8.5q25 0 53 21l52 32l10 -4q18 -10 18 -28q0 -35 -24 -54q-14 -8 -62 -18q-150 -25 -264 -121q-88 -74 -176 -221 q-29 -47 -54.5 -98.5t-78.5 -165.5q-121 -260 -203 -383q-117 -170 -277.5 -259t-416.5 -89q-213 0 -377 92q-195 111 -195 315zM1499 1612q0 35 31.5 74.5t68.5 39.5q18 0 32 -19t14 -40q0 -25 -39 -63q-39 -35 -66 -35q-12 0 -26.5 12t-14.5 31zM1735 1610v18 q0 25 36.5 61.5t63.5 36.5q23 0 35 -18l10 -33q0 -29 -36 -66.5t-70 -37.5q-10 0 -24.5 12t-14.5 27z" />
<glyph unicode="&#xd1;" horiz-adv-x="2021" d="M166 332q0 164 139 270q129 98 299 98q125 0 219 -57q111 -68 111 -190q0 -109 -88 -190t-203 -81q-78 0 -139 35q-76 45 -76 117q0 41 22.5 65.5t69.5 51.5h10q12 0 19 -17l-62 -33q-31 -23 -30 -59q0 -59 49 -94q43 -27 106 -27q109 0 199 64q100 72 100 176 q0 92 -88 143q-37 20 -79 30.5t-97 10.5q-160 0 -297 -88q-158 -98 -157 -252q0 -135 129 -225q115 -76 260 -76q115 0 209 40t194 118q61 49 125 110.5t131 135.5q111 123 223 274l207 289l187 252l59 80q45 55 70 59q29 0 36 -35l9 -76q0 -127 -52 -288 q-43 -141 -114 -297l-125 -275q-49 -109 -76 -196q-8 -35 -14 -71t-6 -61l8 -36l10 -9l14 9q37 43 92 159l80 176q172 348 234 455q162 276 332 432q215 193 450 193q49 0 76 -11.5t27 -31.5q0 -16 -19 -35q-16 -12 -41 -14l-6 4l-25 28q-25 25 -59 25q-166 0 -362 -199 q-145 -145 -322 -426q-92 -147 -221 -387l-125 -227l-39 -74l-47 -74l-16 -20q-10 -12 -25 -16q-37 0 -51 71q-8 68 -9.5 96.5t-1.5 47.5q0 129 41 270q33 123 101 270q47 104 61 135q39 74 60 115q70 137 100.5 212t30.5 116l-4 10q-10 0 -33 -18q-92 -117 -238 -334 l-223 -342q-133 -201 -242 -334q-125 -156 -268 -240q-168 -102 -344 -102q-182 0 -319 94q-156 106 -156 281zM776 1014q0 221 219 332q172 84 420 84l309 -9l287 -6l88 2q25 2 36 5t40 13.5t43 51.5q6 14 29 22q14 0 26 -18v-8q-2 -4 -4 -9.5t-8 -13.5l-25 -22 q-37 -31 -135 -43q-88 -8 -136 -9.5t-77 -1.5h-26h-23h-74l-61 2q-299 0 -451 -40q-248 -61 -362 -246q-23 -35 -37 -76t-14 -84q0 -86 66.5 -150.5t154.5 -64.5q137 0 249.5 107.5t112.5 246.5q0 53 -31.5 88t-86.5 35q-86 0 -160 -74.5t-74 -164.5q0 -37 8 -45l39 -25 l2 -12l-14 -7q-29 0 -53 39q-20 45 -21 76q0 84 83 158t171 74q80 0 131 -54.5t51 -134.5q0 -133 -115.5 -233.5t-250.5 -100.5t-230.5 92.5t-95.5 223.5zM1706 1587q0 33 47 68t82 35q14 0 41 -6.5t74 -20.5l69 -14q18 0 37 12t35 39l10 4l10 -12q0 -33 -57 -78 q-57 -41 -92 -41q-37 0 -70 10q-92 25 -118 25q-14 0 -33 -17l-23 -16z" />
<glyph unicode="&#xd2;" horiz-adv-x="1331" d="M238 395q0 311 313 643q158 164 313.5 246t315.5 82q57 0 96 -16l108 39q56 18 105 18q86 0 137 -66.5t51 -158.5q0 -221 -173 -506t-421 -473q-266 -207 -491 -207q-154 0 -254 123t-100 276zM324 283q0 -111 70.5 -188t180.5 -77q137 0 295 119q100 78 236 228 q102 119 203 260q137 193 209 333q96 188 96 299q0 55 -36 92t-93 37q-43 0 -83 -13t-85 -40q67 -40 67 -110q0 -117 -102 -189q-90 -61 -213 -61q-23 0 -31 22q8 10 25 15l12 -4q18 -12 37 -13q80 0 157 79t77 159q0 61 -52 86q-182 -139 -352 -344q-211 -260 -211 -428 q0 -61 28.5 -105.5t86.5 -44.5q27 0 45 17l24 16l13 -10v-8q-29 -33 -72 -33q-80 0 -133 67q-23 33 -35 72t-12 84q0 195 196 428q172 203 377 307l-41 4q-152 0 -370 -204q-199 -186 -356.5 -445.5t-157.5 -406.5zM1346 1683q0 18 13 33t38 19q31 0 67.5 -72t110.5 -84 q10 -2 8 -14l-4 -6l-8 -5h-12q-63 0 -132 35q-82 41 -81 94z" />
<glyph unicode="&#xd3;" horiz-adv-x="1331" d="M240 393q0 311 313 643q158 164 313.5 246t315.5 82q57 0 96 -16l108 38q56 19 105 19q86 0 137 -66.5t51 -158.5q0 -221 -173 -506t-421 -473q-266 -207 -491 -207q-154 0 -254 123t-100 276zM326 281q0 -111 70.5 -188t181.5 -77q137 0 294 119q100 78 236 227 q102 119 203 261q137 193 209 333q96 188 96 299q0 55 -36 92t-93 37q-43 0 -83 -13t-85 -40q67 -40 67 -110q0 -117 -102 -189q-90 -61 -213 -61q-23 0 -31 22q8 10 25 15l12 -4q18 -12 37 -13q80 0 157 79t77 159q0 61 -52 86q-182 -139 -352 -344q-211 -260 -211 -428 q0 -61 29 -105.5t86 -44.5q27 0 45 17l25 16l12 -10v-8q-29 -33 -72 -33q-80 0 -133 67q-23 33 -35 72t-12 84q0 195 196 428q172 203 377 307l-41 4q-152 0 -370 -204q-199 -186 -356.5 -445.5t-157.5 -406.5zM1405 1571l6 8q82 12 162 113q33 41 67 45q47 0 48 -35 q0 -59 -89 -105q-78 -39 -143 -38h-35q-12 0 -16 12z" />
<glyph unicode="&#xd4;" horiz-adv-x="1331" d="M240 393q0 311 313 643q158 164 313.5 246t315.5 82q57 0 96 -16l108 38q56 19 105 19q86 0 137 -66.5t51 -158.5q0 -221 -173 -506t-421 -473q-266 -207 -491 -207q-154 0 -254 123t-100 276zM326 281q0 -111 70.5 -188t181.5 -77q137 0 294 119q100 78 236 227 q102 119 203 261q137 193 209 333q96 188 96 299q0 55 -36 92t-93 37q-43 0 -83 -13t-85 -40q67 -40 67 -110q0 -117 -102 -189q-90 -61 -213 -61q-23 0 -31 22q8 10 25 15l12 -4q18 -12 37 -13q80 0 157 79t77 159q0 61 -52 86q-182 -139 -352 -344q-211 -260 -211 -428 q0 -61 29 -105.5t86 -44.5q27 0 45 17l25 16l12 -10v-8q-29 -33 -72 -33q-80 0 -133 67q-23 33 -35 72t-12 84q0 195 196 428q172 203 377 307l-41 4q-152 0 -370 -204q-199 -186 -356.5 -445.5t-157.5 -406.5zM1356 1569q12 12 39 24l39 19q63 27 106 74l45 55l25 24 l10 -10l-10 -74q0 -45 18 -73l41 -41l-12 -8q-37 0 -66 22q-18 12 -45 53l-84 -51q-53 -27 -94 -27z" />
<glyph unicode="&#xd5;" horiz-adv-x="1331" d="M238 393q0 311 313 643q158 164 313.5 246t315.5 82q57 0 96 -16l108 38q56 19 105 19q86 0 137 -66.5t51 -158.5q0 -221 -173 -506t-421 -473q-266 -207 -491 -207q-154 0 -254 123t-100 276zM324 281q0 -111 70.5 -188t180.5 -77q137 0 295 119q100 78 236 227 q102 119 203 261q137 193 209 333q96 188 96 299q0 55 -36 92t-93 37q-43 0 -83 -13t-85 -40q67 -40 67 -110q0 -117 -102 -189q-90 -61 -213 -61q-23 0 -31 22q8 10 25 15l12 -4q18 -12 37 -13q80 0 157 79t77 159q0 61 -52 86q-182 -139 -352 -344q-211 -260 -211 -428 q0 -61 28.5 -105.5t86.5 -44.5q27 0 45 17l24 16l13 -10v-8q-29 -33 -72 -33q-80 0 -133 67q-23 33 -35 72t-12 84q0 195 196 428q172 203 377 307l-41 4q-152 0 -370 -204q-199 -186 -356.5 -445.5t-157.5 -406.5zM1368 1585q0 33 47 69t78 36q14 0 41 -6.5t74 -20.5 l69 -14q27 0 62 37q10 12 14 14t6 4q10 -8 13 -14q-33 -55 -60 -80q-37 -37 -88 -37q-35 0 -72 10q-92 25 -118 25l-23 -6l-33 -27z" />
<glyph unicode="&#xd6;" horiz-adv-x="1331" d="M231 395q0 326 320.5 646.5t654.5 320.5l33 -4l39 -8l98 34q62 19 105 19q92 0 142 -62.5t50 -160.5q0 -217 -172 -503t-416 -476q-262 -209 -485 -209q-160 0 -264.5 119.5t-104.5 283.5zM319 276q0 -109 75 -185.5t184 -76.5q76 0 160.5 40t150.5 96q119 100 287 303 q90 111 161.5 214t137.5 212q137 240 137 374q0 59 -38 95t-99 36q-27 0 -41.5 -2t-42.5 -14l-80 -39q71 -41 71 -119q0 -113 -108 -178q-94 -59 -213 -59l-17 6l-6 14l4 8l9 5l30 -9l33 -8q74 0 152 80q35 37 55 80t20 82q0 55 -53 84l-37 -31l-67 -49q-141 -106 -289 -313 q-170 -238 -170 -379q0 -57 29.5 -103.5t81.5 -46.5q25 0 47 15l28 16l11 -10l-2 -11q-2 -12 -27 -20l-43 -8q-86 0 -135 69q-45 72 -45 164q0 188 200 420q170 195 373 305l-53 4q-143 0 -363 -209q-195 -188 -352 -448q-80 -133 -118 -231.5t-38 -172.5zM1380 1624 q0 31 34 65.5t69 34.5q41 0 41 -49q0 -39 -32 -73.5t-71 -34.5q-20 0 -28.5 15t-12.5 42zM1614 1614q0 27 29.5 66.5t62.5 43.5h14q14 0 27.5 -13t13.5 -34q0 -25 -35.5 -68.5t-64.5 -43.5q-18 0 -31.5 13t-15.5 36z" />
<glyph unicode="&#xd8;" horiz-adv-x="1331" d="M-12 59q0 12 125 99l155 100l-12 68l-4 75q0 307 319.5 627t626.5 320l53 -7l52 -6q35 23 94 37q33 6 58.5 10t49.5 4q88 0 129 -45t60 -137l151 105q119 80 142 84q14 0 16 -17q0 -23 -137 -110l-170 -107q0 -223 -173 -498.5t-421 -467.5q-264 -203 -494 -203 q-117 0 -198 63q-66 53 -127 168l-133 -98q-92 -63 -140 -82l-14 4l-6 6zM334 260q25 -113 78 -172q61 -72 170 -72q88 0 161.5 33t151.5 94q184 150 410 443q233 307 301 516l-858 -570q6 -57 26 -94q29 -49 80 -49q16 0 39 12l35 19l10 -8l2 -15q-31 -25 -70 -24 q-61 0 -102 35q-35 35 -66 100zM334 303l358 238l-2 45q0 209 199 432q158 180 385 305l-33 2q-188 0 -446 -258q-203 -205 -330 -432q-20 -37 -39.5 -77t-37 -82t-34 -97t-20.5 -76zM748 575l876 582l8 53l2 35q0 49 -36.5 88t-92.5 39q-43 0 -82 -16q-39 -12 -84 -39 q31 -20 49.5 -47t18.5 -66q0 -106 -98 -180q-90 -66 -205 -66l-29 5q-10 6 -14 18l6 10l10 4l33 -12l33 -4q70 0 147.5 81t77.5 154q0 57 -51 89q-203 -156 -342 -320q-170 -201 -227 -408z" />
<glyph unicode="&#xd9;" horiz-adv-x="1548" d="M188 983q0 188 185 328q166 123 370 123q176 0 304 -93q137 -102 137 -274q0 -147 -133 -350l-248 -338q-133 -186 -133 -279q0 -37 24.5 -61.5t63.5 -24.5q104 0 352 299q96 117 201.5 266.5t226.5 335.5q207 326 270 459h13l-2 -6q0 -20 14 -28.5t41 -12.5q16 0 39 14 l39 31l12 2l-223 -385q-182 -322 -277 -520q-137 -287 -137 -373q0 -33 15.5 -54.5t48.5 -23.5q57 0 122 97l82 147l27 39l20 -12q-18 -66 -100 -176q-92 -121 -151 -121q-61 0 -95 63q-25 49 -24 119q0 117 92 336q14 37 58 128t100 198l-209 -297q-176 -238 -299 -367 q-174 -180 -269 -180q-66 0 -102 76q-27 63 -27 137q0 141 129 325l240 310q129 182 129 329q0 104 -88 168t-201 64q-199 0 -374 -152q-188 -160 -189 -354q0 -47 25 -90q25 -35 71 -72q-2 10 -4 39t-2 31q0 154 107.5 294t257.5 140q80 0 127 -53.5t47 -132.5 q0 -145 -126 -259t-273 -114q-31 0 -48 4l-57 16q18 -66 70 -118q55 -51 118 -52q49 0 84 30t43 85l13 8l12 -6l4 -10q-14 -53 -57 -90q-43 -33 -99 -33q-74 0 -135 61q-49 51 -75 134q-84 53 -127 112q-49 68 -50 164zM373 801q0 -37 12 -78l43 -12l47 -6q129 0 253 123.5 t124 258.5t-139 136q-129 0 -234.5 -142.5t-105.5 -279.5zM1454 1683q0 18 12 34t37 18q25 0 64 -72t112 -84q8 -4 9 -8l2 -6l-4 -6l-11 -5h-12q-61 0 -129 35q-80 41 -80 94z" />
<glyph unicode="&#xda;" horiz-adv-x="1548" d="M186 983q0 188 185 328q166 123 370 123q176 0 303 -93q137 -102 138 -274q0 -147 -133 -350l-248 -338q-133 -186 -133 -279q0 -37 24.5 -61.5t63.5 -24.5q104 0 352 299q96 117 201.5 266.5t226.5 335.5q207 326 270 459h13l-2 -6q0 -20 14 -28.5t41 -12.5q16 0 39 14 l39 31l12 2l-223 -385q-182 -322 -277 -520q-137 -287 -137 -373q0 -33 15.5 -54.5t48.5 -23.5q57 0 122 97l82 147l27 39l20 -12q-18 -66 -100 -176q-92 -121 -151 -121q-61 0 -95 63q-25 49 -24 119q0 117 92 336q14 37 58 128t100 198l-209 -297q-176 -238 -299 -367 q-174 -180 -269 -180q-66 0 -102 76q-27 63 -27 137q0 141 129 325l240 310q129 182 129 329q0 104 -88 168t-201 64q-199 0 -374 -152q-188 -160 -189 -354q0 -47 25 -90q25 -35 71 -72q-2 10 -4 39t-2 31q0 154 107.5 294t257.5 140q80 0 127 -53.5t47 -132.5 q0 -145 -126 -259t-274 -114q-31 0 -47 4l-57 16q18 -66 70 -118q55 -51 118 -52q49 0 84 30t43 85l13 8l12 -6l4 -10q-14 -53 -57 -90q-43 -33 -99 -33q-74 0 -135 61q-49 51 -76 134q-84 53 -126 112q-49 68 -50 164zM371 801q0 -37 12 -78l43 -12l47 -6q129 0 253 123.5 t124 258.5t-139 136q-129 0 -234.5 -142.5t-105.5 -279.5zM1511 1571l5 6q88 12 143 86t88 74q49 0 49 -33q0 -57 -90 -105q-82 -41 -143 -40h-35q-13 0 -17 12z" />
<glyph unicode="&#xdb;" horiz-adv-x="1548" d="M184 983q0 188 185 328q166 123 370 123q176 0 303 -93q137 -102 138 -274q0 -147 -133 -350l-248 -338q-133 -186 -133 -279q0 -37 24.5 -61.5t63.5 -24.5q104 0 352 299q96 117 201.5 266.5t226.5 335.5q207 326 270 459h13l-2 -6q0 -20 14 -28.5t41 -12.5q16 0 39 14 l39 31l12 2l-223 -385q-182 -322 -277 -520q-137 -287 -137 -373q0 -33 15.5 -54.5t47.5 -23.5q57 0 123 97l82 147l27 39l20 -12q-18 -66 -100 -176q-92 -121 -152 -121q-61 0 -94 63q-25 49 -24 119q0 117 92 336q14 37 58 128t100 198l-209 -297q-176 -238 -299 -367 q-174 -180 -269 -180q-66 0 -102 76q-27 63 -27 137q0 141 129 325l240 310q129 182 129 329q0 104 -88 168t-201 64q-199 0 -375 -152q-188 -160 -188 -354q0 -47 25 -90q25 -35 71 -72q-2 10 -4 39t-2 31q0 154 107.5 294t257.5 140q80 0 127 -53.5t47 -132.5 q0 -145 -126 -259t-274 -114q-31 0 -47 4l-57 16q18 -66 70 -118q55 -51 118 -52q49 0 84 30t43 85l13 8l12 -6l4 -10q-14 -53 -57 -90q-43 -33 -99 -33q-74 0 -135 61q-49 51 -76 134q-84 53 -127 112q-49 68 -49 164zM369 801q0 -37 12 -78l43 -12l47 -6q129 0 253 123.5 t124 258.5t-139 136q-129 0 -234.5 -142.5t-105.5 -279.5zM1462 1573l13 6l41 16l71 37q31 20 60 51l43 58l24 24l10 -10l-4 -33l-2 -41l6 -51q6 -20 19 -33l24 -18l13 -12l-19 -8q-33 0 -60.5 20t-45.5 55l-84 -51q-10 -6 -40.5 -16.5t-55.5 -10.5q-10 8 -13 17z" />
<glyph unicode="&#xdc;" horiz-adv-x="1546" d="M186 965q0 203 183 342q168 127 376 127q180 0 302 -95q135 -104 135 -278q0 -156 -133 -356l-248 -326q-133 -180 -133 -277q0 -39 22.5 -64.5t61.5 -25.5q33 0 75.5 27t116.5 100q166 168 328 379q143 186 284 416q111 178 250 436h11q0 -45 43 -45q23 0 48 13.5 t42 33.5l12 -2l-221 -383q-166 -295 -279 -522q-68 -139 -102.5 -231.5t-34.5 -135.5q0 -35 16.5 -58.5t51.5 -23.5q41 0 82 47.5t98 159.5l18 39q12 23 27 35l12 2l6 -2l4 -8q0 -51 -96 -176t-153 -125t-91 53q-29 57 -28 123q0 127 90 340q43 102 156 327l-209 -296 q-166 -225 -301 -367q-174 -180 -267 -180q-59 0 -96 71q-31 74 -31 146q0 135 129 323l240 316q129 184 129 321q0 104 -94 174q-84 59 -195 60q-199 0 -377 -152q-186 -162 -186 -354q0 -47 25 -90q27 -39 71 -74l-6 94q0 137 112.5 274.5t250.5 137.5q80 0 129 -54.5 t49 -136.5q0 -143 -128 -255.5t-276 -112.5l-49 6l-53 14q31 -80 70 -118q51 -51 123 -52q39 0 83 36t37 79l15 8l12 -6l4 -12q-18 -53 -55 -88q-12 -10 -35 -21.5t-59 -11.5q-76 0 -133.5 55.5t-81.5 141.5q-72 33 -127 106q-51 74 -52 152zM369 815q0 -39 4 -57l6 -39 l45 -12l47 -7q129 0 255 128t126 257q0 53 -37 97q-39 39 -96 39q-127 0 -238.5 -136.5t-111.5 -269.5zM1456 1624q0 29 31 65.5t63 36.5q18 0 31.5 -12t17.5 -33q0 -43 -31.5 -77.5t-78.5 -34.5q-14 0 -25 18zM1690 1622q0 27 35.5 63.5t64.5 38.5q47 0 47 -51 q0 -27 -35 -65.5t-65 -40.5q-47 0 -47 55z" />
<glyph unicode="&#xdf;" horiz-adv-x="774" d="M-416 -440q0 20 13.5 35.5t40.5 19.5q25 0 38 -23q0 -35 17 -57q10 -20 45 -20q23 0 45 14l41 31q45 43 152.5 246.5t191.5 390.5q14 33 72 165q41 98 55 132l18 59q12 37 13 57q0 29 -25 45q-8 4 -26.5 6.5t-32.5 2.5l-13 4l-8 10l8 8l29 2l45 2h80l184 379 q115 188 310 277l94 32q29 6 50 10.5t46 4.5q78 0 129 -43t51 -123q0 -119 -157 -246l-293 -201q-158 -111 -158 -196q0 -47 123 -219q59 -82 59 -146q0 -92 -82 -160.5t-182 -68.5q-88 0 -142.5 49t-54.5 137q0 41 37 89t86 48q68 0 68 -71q0 -31 -8 -42.5t-39 -15.5l-49 4 q-25 0 -38.5 -20.5t-13.5 -46.5q0 -43 37 -78q39 -29 86 -29q76 0 131 74q47 66 48 148q0 47 -62 210q-29 76 -29 127q0 92 134 207l249 207q135 129 136 248q0 51 -35 86q-33 39 -82 39q-123 0 -266 -195q-102 -139 -224 -407l-147 -342q-152 -326 -227 -471 q-172 -317 -295 -408q-66 -47 -152 -47q-41 0 -76 12q-45 18 -45 58z" />
<glyph unicode="&#xe0;" d="M129 113q0 188 137 374q147 201 328 201q23 0 41 -19.5t18 -64.5l-6 -43l76 146l8 -2v-11v-12q10 -8 37 -14l33 6l41 31l12 -5q-78 -104 -179.5 -292.5t-142.5 -305.5l-18 -61q0 -18 21 -33l18 -4q49 0 135 135l62 99l12 2l6 -11q0 -43 -87 -141t-134 -98q-37 0 -49.5 40 t-12.5 87q0 72 37 176l41 104q-55 -100 -166 -233q-139 -168 -204 -168q-33 0 -50 37q-14 43 -14 80zM166 49q0 -35 35 -35q76 0 255 257t179 347q0 53 -53 54q-68 0 -242 -269.5t-174 -353.5zM524 942q0 16 12.5 34.5t32.5 18.5q27 0 82 -94q25 -49 66 -56t43 -18 q-8 -12 -15 -14q-84 10 -135 33q-86 37 -86 96z" />
<glyph unicode="&#xe1;" d="M129 113q0 188 137 374q147 201 328 201q23 0 41 -19.5t18 -64.5l-6 -43l76 146l8 -2v-11v-12q10 -8 37 -14l33 6l41 31l12 -5q-78 -104 -179.5 -292.5t-142.5 -305.5l-18 -61q0 -18 21 -33l18 -4q49 0 135 135l62 99l12 2l6 -11q0 -43 -87 -141t-134 -98q-37 0 -49.5 40 t-12.5 87q0 72 37 176l41 104q-55 -100 -166 -233q-139 -168 -204 -168q-33 0 -50 37q-14 43 -14 80zM166 49q0 -35 35 -35q76 0 255 257t179 347q0 53 -53 54q-68 0 -242 -269.5t-174 -353.5zM580 825l4 6l53 15q41 12 72 45l43 61q30 41 59 41q18 0 33.5 -8t17.5 -29 q0 -59 -102 -108q-84 -37 -160 -37q-18 0 -20 14z" />
<glyph unicode="&#xe2;" d="M129 113q0 188 137 374q147 201 328 201q23 0 41 -19.5t18 -64.5l-6 -43l76 146l8 -2v-11v-12q10 -8 37 -14l33 6l41 31l12 -5q-78 -104 -179.5 -292.5t-142.5 -305.5l-18 -61q0 -18 21 -33l18 -4q49 0 135 135l62 99l12 2l6 -11q0 -43 -87 -141t-134 -98q-37 0 -49.5 40 t-12.5 87q0 72 37 176l41 104q-55 -100 -166 -233q-139 -168 -204 -168q-33 0 -50 37q-14 43 -14 80zM166 49q0 -35 35 -35q76 0 255 257t179 347q0 53 -53 54q-68 0 -242 -269.5t-174 -353.5zM510 809l10 12l68 27q53 25 92 63l74 86l14 7l4 -5l-8 -41v-34q0 -72 49 -103 l14 -14l-8 -4q-39 0 -54 6t-65 65l-88 -45q-37 -18 -88 -28z" />
<glyph unicode="&#xe3;" d="M129 113q0 188 137 374q147 201 328 201q23 0 41 -19.5t18 -64.5l-6 -43l76 146l8 -2v-11v-12q10 -8 37 -14l33 6l41 31l12 -5q-78 -104 -179.5 -292.5t-142.5 -305.5l-18 -61q0 -18 21 -33l18 -4q49 0 135 135l62 99l12 2l6 -11q0 -43 -87 -141t-134 -98q-37 0 -49.5 40 t-12.5 87q0 72 37 176l41 104q-55 -100 -166 -233q-139 -168 -204 -168q-33 0 -50 37q-14 43 -14 80zM166 49q0 -35 35 -35q76 0 255 257t179 347q0 53 -53 54q-68 0 -242 -269.5t-174 -353.5zM473 856q0 29 45 71t78 42q27 0 40 -3t53 -14.5t83 -15.5q49 0 80 51l10 2 l8 -16q-16 -29 -30.5 -48.5t-28.5 -33.5q-43 -39 -90 -39q-25 0 -38 3t-45 12.5t-52.5 13.5t-38.5 4q-16 0 -37 -18.5t-33 -18.5z" />
<glyph unicode="&#xe4;" d="M129 115q0 188 137 374q147 201 328 201q23 0 41 -19.5t18 -64.5l-6 -43l76 146l8 -2v-11v-12q10 -8 37 -14l33 6l41 31l12 -5q-78 -104 -179.5 -292.5t-142.5 -305.5l-18 -61q0 -18 21 -33l18 -4q49 0 135 135l62 99l12 2l6 -11q0 -43 -87 -141t-134 -98q-37 0 -49.5 40 t-12.5 87q0 72 37 176l41 104q-55 -100 -166 -233q-139 -168 -204 -168q-33 0 -50 37q-14 43 -14 80zM166 51q0 -35 35 -35q76 0 255 257t179 348q0 53 -53 53q-68 0 -242 -269.5t-174 -353.5zM561 889q0 27 32 64.5t60 37.5q23 0 36 -12t18 -35q0 -39 -33 -74.5t-76 -35.5 q-18 0 -29 16zM795 881q0 35 33.5 74.5t68.5 39.5q47 0 47 -53q0 -31 -35 -68.5t-65 -37.5q-16 0 -30.5 12t-18.5 33z" />
<glyph unicode="&#xe5;" d="M129 109q0 188 137 374q147 201 328 201q23 0 41 -19.5t18 -64.5l-6 -43l76 145l8 -2v-10v-12q10 -8 37 -14l33 6l41 30l12 -4q-78 -104 -179.5 -292.5t-142.5 -305.5l-18 -61q0 -18 21 -33l18 -4q49 0 135 135l62 98l12 3l6 -11q0 -43 -87 -141t-134 -98q-37 0 -49.5 40 t-12.5 87q0 72 37 176l41 104q-55 -100 -166 -233q-139 -168 -204 -168q-33 0 -50 37q-14 43 -14 80zM166 45q0 -35 35 -35q76 0 255 257t179 347q0 53 -53 54q-68 0 -242 -269.5t-174 -353.5zM645 866q0 47 38 87t87 40q25 0 38 -19.5t15 -49.5q0 -35 -35.5 -79t-74.5 -44 q-23 0 -43.5 18.5t-24.5 46.5zM664 870q0 -53 49 -53q31 0 60.5 36t33.5 71q0 49 -49 49q-29 0 -61.5 -36t-32.5 -67z" />
<glyph unicode="&#xe6;" horiz-adv-x="905" d="M121 106q0 137 67.5 268.5t180.5 219.5q51 39 112.5 68.5t114.5 29.5q74 0 74 -76q0 -41 -15 -71l41 59l37 66l8 -8q10 -6 43 -11q27 0 73 19.5t79 23.5q33 0 55.5 -22.5t22.5 -57.5q0 -117 -142 -206q-113 -70 -254 -89l-61 -106q-35 -70 -35 -119q0 -37 25.5 -60.5 t60.5 -23.5q66 0 150 80l147 184l10 -2l5 -6q0 -14 -9 -30l-18 -29q-41 -66 -129 -137q-98 -80 -164 -80q-70 0 -102 59q-29 61 -29 139l6 68q-35 -51 -64.5 -90t-60.5 -70q-98 -104 -162 -104q-33 0 -51 37q-8 18 -12 35.5t-4 41.5zM168 57q0 -43 35 -43q80 0 262 262.5 t182 354.5q0 16 -11 28.5t-28 12.5q-78 0 -259 -259t-181 -356zM631 342q57 0 100 13.5t88 52.5q57 45 99 106q53 76 53 131l-6 21q-10 10 -37 10q-55 0 -164 -139z" />
<glyph unicode="&#xe7;" horiz-adv-x="557" d="M104 -209l56 37q29 20 41 53l-6 13q-4 4 -33 10q-18 10 -19 28q0 20 19.5 40t44.5 20q55 0 55 -53q0 -47 -47 -95q-27 -27 -88 -65l-12 -2q-11 0 -11 14zM135 193q0 170 148.5 333.5t318.5 163.5q111 0 111 -104q0 -55 -35 -119t-88 -64q-16 0 -33 17q-10 16 -14 37 q0 68 65 86l68 18q12 16 12 45q0 68 -70 68q-109 0 -266 -228.5t-157 -347.5q0 -39 22.5 -61.5t61.5 -22.5q76 0 149 82l143 185l9 -13q0 -59 -116 -166.5t-179 -107.5q-74 0 -112 59.5t-38 139.5z" />
<glyph unicode="&#xe8;" horiz-adv-x="516" d="M125 190q0 154 153.5 326t311.5 172q66 0 65 -70q0 -119 -131 -210q-123 -82 -248 -82q-55 -102 -73.5 -148.5t-18.5 -81.5q0 -37 21.5 -62.5t58.5 -25.5q94 0 203 146l92 125l8 4l8 -2l3 -7l4 -6l-25 -41l-27 -41q-51 -72 -116 -127q-86 -70 -156 -69q-63 0 -100 63 q-16 35 -24.5 67t-8.5 70zM289 346h20q84 0 200 98.5t116 186.5q0 43 -43 43q-53 0 -164 -135q-94 -115 -129 -193zM438 944q0 18 12 30.5t35 20.5q35 -6 58 -47q55 -96 92 -106q16 0 24 -4q12 0 19 -11l-2 -6l-17 -8q-41 6 -74.5 14.5t-62.5 20.5q-84 35 -84 96z" />
<glyph unicode="&#xe9;" horiz-adv-x="516" d="M125 193q0 154 153.5 325.5t311.5 171.5q66 0 65 -69q0 -119 -131 -211q-123 -82 -248 -82q-55 -102 -73.5 -148.5t-18.5 -81.5q0 -37 21.5 -62.5t58.5 -25.5q94 0 203 146l92 125l8 4l8 -2l3 -7l4 -6l-25 -41l-27 -41q-51 -72 -116 -127q-86 -70 -156 -69q-63 0 -100 63 q-16 35 -24.5 67t-8.5 71zM289 348h20q84 0 200 98.5t116 186.5q0 43 -43 43q-53 0 -164 -135q-94 -115 -129 -193zM492 823l6 8l65 19q37 12 62 41l43 61q31 41 57 41q14 0 31.5 -8t17.5 -24q0 -66 -100 -111q-90 -39 -160 -39q-16 0 -22 12z" />
<glyph unicode="&#xea;" horiz-adv-x="516" d="M125 188q0 154 153.5 326t311.5 172q66 0 65 -70q0 -119 -131 -210q-123 -82 -248 -82q-55 -102 -73.5 -148.5t-18.5 -81.5q0 -37 21.5 -62.5t58.5 -25.5q94 0 203 146l92 124l8 5l8 -2l3 -7l4 -6l-25 -41l-27 -41q-51 -72 -116 -127q-86 -70 -156 -69q-63 0 -100 63 q-16 35 -24.5 67t-8.5 70zM289 344h20q84 0 200 98.5t116 186.5q0 43 -43 43q-53 0 -164 -135q-94 -115 -129 -193zM426 813l8 6q88 31 131 66t103 112q10 6 14 7l2 -11l-6 -59q0 -43 10 -68.5t39 -44.5l14 -12l-16 -6q-33 0 -51 10l-60 57l-86 -43q-39 -16 -88 -26z" />
<glyph unicode="&#xeb;" horiz-adv-x="516" d="M125 193q0 154 153.5 325.5t311.5 171.5q66 0 65 -69q0 -119 -131 -211q-123 -82 -248 -82q-55 -102 -73.5 -148.5t-18.5 -81.5q0 -37 21.5 -62.5t58.5 -25.5q94 0 203 146l92 125l8 4l8 -2l3 -7l4 -6l-25 -41l-27 -41q-51 -72 -116 -127q-86 -70 -156 -69q-63 0 -100 63 q-16 35 -24.5 67t-8.5 71zM289 348h20q84 0 200 98.5t116 186.5q0 43 -43 43q-53 0 -164 -135q-94 -115 -129 -193zM449 885q0 25 31.5 64.5t58.5 39.5q20 0 34.5 -12t18.5 -39q0 -29 -36 -69t-69 -40q-20 0 -30 17zM682 877q0 39 34 75.5t68 36.5q20 0 31 -16 q12 -10 14 -33q0 -29 -35.5 -70t-64.5 -41q-16 0 -35 13q-12 12 -12 35z" />
<glyph unicode="&#xec;" horiz-adv-x="387" d="M152 129q0 106 134 284.5t134 227.5q0 29 -37 29t-90 -66l-109 -131l-8 10q27 45 48.5 76t43.5 57q68 74 131 74q31 0 54 -43q18 -43 18 -84q0 -82 -135 -259t-135 -247q0 -14 11 -29.5t32 -19.5q43 0 106 82l88 119l15 -8q-12 -47 -91 -129t-124 -82q-39 0 -64 45 q-10 23 -16 45t-6 49zM375 942q0 16 12.5 34.5t32.5 18.5q33 0 55 -41q55 -100 92 -110l25 -2q18 -2 20 -15q-10 -12 -18 -16q-82 10 -135 35q-84 37 -84 96z" />
<glyph unicode="&#xed;" horiz-adv-x="387" d="M152 129q0 106 134 284.5t134 227.5q0 29 -37 29t-90 -66l-109 -131l-8 10q27 45 48.5 76t43.5 57q68 74 131 74q31 0 54 -43q18 -43 18 -84q0 -82 -135 -259t-135 -247q0 -14 11 -29.5t32 -19.5q43 0 106 82l88 119l15 -8q-12 -47 -91 -129t-124 -82q-39 0 -64 45 q-10 23 -16 45t-6 49zM428 827q37 6 68.5 18.5t60.5 45.5l43 61q31 41 62 41q16 0 31.5 -8t17.5 -24q0 -66 -101 -111q-90 -39 -159 -39l-19 4z" />
<glyph unicode="&#xee;" horiz-adv-x="387" d="M152 129q0 106 134 284.5t134 227.5q0 29 -37 29t-90 -66l-109 -131l-8 10q27 45 48.5 76t43.5 57q68 74 131 74q31 0 54 -43q18 -43 18 -84q0 -82 -135 -259t-135 -247q0 -14 11 -29.5t32 -19.5q43 0 106 82l88 119l15 -8q-12 -47 -91 -129t-124 -82q-39 0 -64 45 q-10 23 -16 45t-6 49zM362 813l5 6q131 37 217 154l12 20q4 8 22 11l5 -7l-9 -30l-2 -41q0 -74 54 -103q4 -2 10 -14l-12 -6q-47 0 -78 28l-37 41l-84 -45q-37 -16 -88 -26q-10 2 -15 12z" />
<glyph unicode="&#xef;" horiz-adv-x="387" d="M152 131q0 106 134 284.5t134 227.5q0 29 -37 29t-90 -66l-109 -131l-8 10q27 45 48.5 76t43.5 57q68 74 131 74q31 0 54 -43q18 -43 18 -84q0 -82 -135 -259t-135 -247q0 -14 11 -29.5t32 -19.5q43 0 106 82l88 119l15 -8q-12 -47 -91 -129t-124 -82q-39 0 -64 45 q-10 23 -16 45t-6 49zM381 872q6 35 31 78q26 39 63 39q23 0 36 -12t15 -41q0 -29 -35.5 -68t-66.5 -39q-18 0 -31 15zM616 877q0 35 34 73.5t69 38.5q20 0 31 -16q12 -10 14 -33q0 -29 -36 -70t-64 -41q-18 0 -31 14t-17 34z" />
<glyph unicode="&#xf1;" d="M41 -10q80 117 192 317q72 129 108 207t36 109q0 43 -33 43q-39 0 -86 -62l-100 -137l-8 16l83 123q63 76 119 76q35 0 49.5 -30.5t14.5 -63.5t-6.5 -70t-22.5 -80q-6 -20 -20.5 -55t-38.5 -86q117 182 214 285.5t142 103.5q25 0 44.5 -28.5t19.5 -88.5q0 -106 -118 -278 t-118 -225q0 -18 11.5 -34t33.5 -20q43 0 96 72l70 111q18 0 18 -13q0 -33 -75.5 -111.5t-112.5 -78.5q-39 0 -64 51q-20 55 -20 100q0 49 17.5 100.5t54.5 110.5q160 256 159 285q-4 14 -8 19.5t-14 9.5q-70 0 -270 -295q-141 -209 -232 -381l-8 2q-8 20 -29 29h-16 q-20 0 -39 -11q-18 -6 -35 -22h-8zM473 856q0 29 45 71t78 42q27 0 40 -3t53 -14.5t83 -15.5q49 0 80 51l10 2l8 -16q-16 -29 -30.5 -48.5t-28.5 -33.5q-43 -39 -90 -39q-25 0 -38 3t-45 12.5t-52.5 13.5t-38.5 4q-16 0 -37 -18.5t-33 -18.5z" />
<glyph unicode="&#xf2;" horiz-adv-x="645" d="M129 199q0 168 144.5 332.5t312.5 164.5q80 0 116 -69q27 -53 27 -144q0 -164 -146.5 -330.5t-312.5 -166.5q-78 0 -114 69q-6 14 -16.5 52t-10.5 92zM190 66q0 -23 25 -46q20 -12 53 -16q106 0 258 252q141 240 142 360q0 33 -22.5 50.5t-53.5 17.5q-109 0 -262 -254 q-139 -238 -140 -364zM502 942q0 16 12.5 34.5t32.5 18.5q18 0 37 -12l6 -10l14 -23q25 -61 55 -86l78 -33q0 -14 -14 -16q-37 0 -65.5 7t-69.5 24q-86 37 -86 96z" />
<glyph unicode="&#xf3;" horiz-adv-x="645" d="M129 199q0 168 144.5 332.5t312.5 164.5q80 0 116 -69q27 -53 27 -144q0 -164 -146.5 -330.5t-312.5 -166.5q-78 0 -114 69q-6 14 -16.5 52t-10.5 92zM190 66q0 -23 25 -46q20 -12 53 -16q106 0 258 252q141 240 142 360q0 33 -22.5 50.5t-53.5 17.5q-109 0 -262 -254 q-139 -238 -140 -364zM557 825l2 6l72 19q25 6 53 41l43 61q30 41 59 41q18 0 34 -8t18 -29q0 -59 -103 -108q-84 -37 -157 -37q-18 0 -21 14z" />
<glyph unicode="&#xf4;" horiz-adv-x="645" d="M129 199q0 168 144.5 332.5t312.5 164.5q80 0 116 -69q27 -53 27 -144q0 -164 -146.5 -330.5t-312.5 -166.5q-78 0 -114 69q-6 14 -16.5 52t-10.5 92zM190 66q0 -23 25 -46q20 -12 53 -16q106 0 258 252q141 240 142 360q0 33 -22.5 50.5t-53.5 17.5q-109 0 -262 -254 q-139 -238 -140 -364zM492 813l2 8l51 17q98 43 168 133q16 29 26 35l9 -9l-5 -36l-4 -37q0 -72 54 -105l6 -4l6 -6l-14 -6q-39 0 -64 17.5t-45 51.5l-86 -43q-63 -28 -92 -28q-12 0 -12 12z" />
<glyph unicode="&#xf5;" horiz-adv-x="645" d="M131 197q0 168 144.5 332.5t312.5 164.5q80 0 117 -69q27 -53 26 -144q0 -164 -146.5 -330.5t-312.5 -166.5q-78 0 -114 69q-6 14 -16.5 52t-10.5 92zM193 63q0 -23 24 -45q20 -12 53 -16q106 0 258 252q141 240 142 360q0 33 -22.5 50.5t-53.5 17.5q-109 0 -262 -254 q-139 -238 -139 -365zM451 856q4 35 46 74t76 39q27 0 40.5 -3t53.5 -14.5t83 -15.5q33 0 49 16l41 37l8 -8q0 -35 -56.5 -81t-93.5 -46q-27 0 -108 20l-66 11q-16 0 -41 -19l-26 -16z" />
<glyph unicode="&#xf6;" horiz-adv-x="645" d="M127 186q0 170 142.5 340t314.5 170q80 0 114 -65q27 -53 27 -139q0 -180 -143.5 -343t-319.5 -163q-68 0 -106 69q-29 57 -29 131zM190 68q0 -25 23 -48q24 -18 53 -18q104 0 258 252q143 244 144 358q0 29 -25 52q-25 18 -57 18q-111 0 -258 -252q-137 -238 -138 -362z M535 883q0 37 33.5 70.5t72.5 33.5q18 0 33 -22q6 -10 6 -23q0 -43 -32 -78t-77 -35q-14 0 -26 19zM770 883q0 33 36 68.5t68 35.5q12 0 29 -14q10 -8 17 -31q0 -39 -35 -76t-76 -37q-14 0 -29 17q-6 12 -10 37z" />
<glyph unicode="&#xf7;" horiz-adv-x="1093" d="M31 459v104h1020v-104h-1020zM422 774q0 41 31.5 75t76.5 34q43 0 76 -31t33 -76q0 -43 -30.5 -75.5t-78.5 -32.5q-41 0 -77 30q-31 31 -31 76zM426 248q0 43 31.5 74.5t74.5 31.5t76 -32.5t33 -75.5t-31.5 -76t-77.5 -33q-43 0 -74.5 32t-31.5 79z" />
<glyph unicode="&#xf8;" horiz-adv-x="645" d="M6 -10q10 27 82 80l53 41l-10 90q0 172 146.5 333.5t316.5 161.5q47 0 70.5 -19.5t44.5 -66.5l65 60q53 43 66 47l6 -4l4 -8l-12 -21l-41 -33l-78 -69l8 -58l4 -47q0 -164 -146.5 -327.5t-312.5 -163.5q-47 0 -75.5 23.5t-49.5 78.5l-65 -63q-53 -49 -70 -50zM195 78 q0 -37 25.5 -54.5t64.5 -17.5q129 0 284 305q53 106 99 230l-467 -410zM209 174l463 406v22q0 37 -25 60q-25 18 -67 18q-98 0 -228 -205q-96 -154 -143 -301z" />
<glyph unicode="&#xf9;" d="M139 125q0 113 134.5 296t134.5 226q0 10 -10.5 19.5t-28.5 13.5l-19 -4q-29 -16 -100 -105q-31 -39 -55 -55l-13 -2l-6 12q0 31 82 100.5t115 69.5q39 0 58.5 -34.5t19.5 -81.5q0 -106 -132.5 -290t-132.5 -233q0 -10 12.5 -26.5t24.5 -20.5q53 0 168 152q41 55 90 130 t111 173q86 145 131 231h8l-2 -6q4 -16 8 -20l29 -8q18 0 34.5 7t39.5 27h12q-104 -170 -186 -317q-70 -127 -104 -205t-34 -111q0 -14 11 -30q12 -10 26 -15q57 0 109 88l61 113q12 -6 17 -10q0 -35 -73 -123t-108 -88q-43 0 -61 31.5t-18 81.5q0 70 22.5 139t60.5 147 q-72 -119 -157 -231q-133 -176 -189 -176q-43 0 -66.5 44t-23.5 91zM524 942q0 16 12.5 34.5t32.5 18.5q27 0 82 -94q25 -49 66 -56t43 -18q-8 -12 -15 -14q-84 10 -135 33q-86 37 -86 96z" />
<glyph unicode="&#xfa;" d="M139 125q0 113 134.5 296t134.5 226q0 10 -10.5 19.5t-28.5 13.5l-19 -4q-29 -16 -100 -105q-31 -39 -55 -55l-13 -2l-6 12q0 31 82 100.5t115 69.5q39 0 58.5 -34.5t19.5 -81.5q0 -106 -132.5 -290t-132.5 -233q0 -10 12.5 -26.5t24.5 -20.5q53 0 168 152q41 55 90 130 t111 173q86 145 131 231h8l-2 -6q4 -16 8 -20l29 -8q18 0 34.5 7t39.5 27h12q-104 -170 -186 -317q-70 -127 -104 -205t-34 -111q0 -14 11 -30q12 -10 26 -15q57 0 109 88l61 113q12 -6 17 -10q0 -35 -73 -123t-108 -88q-43 0 -61 31.5t-18 81.5q0 70 22.5 139t60.5 147 q-72 -119 -157 -231q-133 -176 -189 -176q-43 0 -66.5 44t-23.5 91zM580 825l4 6l53 15q41 12 72 45l43 61q30 41 59 41q18 0 33.5 -8t17.5 -29q0 -59 -102 -108q-84 -37 -160 -37q-18 0 -20 14z" />
<glyph unicode="&#xfb;" d="M139 125q0 113 134.5 296t134.5 226q0 10 -10.5 19.5t-28.5 13.5l-19 -4q-29 -16 -100 -105q-31 -39 -55 -55l-13 -2l-6 12q0 31 82 100.5t115 69.5q39 0 58.5 -34.5t19.5 -81.5q0 -106 -132.5 -290t-132.5 -233q0 -10 12.5 -26.5t24.5 -20.5q53 0 168 152q41 55 90 130 t111 173q86 145 131 231h8l-2 -6q4 -16 8 -20l29 -8q18 0 34.5 7t39.5 27h12q-104 -170 -186 -317q-70 -127 -104 -205t-34 -111q0 -14 11 -30q12 -10 26 -15q57 0 109 88l61 113q12 -6 17 -10q0 -35 -73 -123t-108 -88q-43 0 -61 31.5t-18 81.5q0 70 22.5 139t60.5 147 q-72 -119 -157 -231q-133 -176 -189 -176q-43 0 -66.5 44t-23.5 91zM510 809l10 12l68 27q53 25 92 63l74 86l14 7l4 -5l-8 -41v-34q0 -72 49 -103l14 -14l-8 -4q-39 0 -54 6t-65 65l-88 -45q-37 -18 -88 -28z" />
<glyph unicode="&#xfc;" d="M139 141q0 94 134.5 280.5t134.5 225.5q0 12 -10.5 21.5t-26.5 13.5l-19 -2q-27 -12 -116 -119q-37 -43 -52 -45l-6 12q0 31 80 98.5t115 71.5q35 0 59 -36q20 -37 21 -78q0 -106 -132.5 -287.5t-132.5 -237.5q0 -10 19 -32q6 -6 11 -9.5t9 -3.5q51 0 166 152 q80 102 201 303l131 229h8l-2 -6q4 -16 8 -20l29 -8q18 0 34.5 7t39.5 27h12q-158 -252 -241 -415.5t-83 -216.5q0 -14 11 -31q12 -10 26 -15q55 0 101 78l67 123q18 0 19 -12q0 -37 -73 -123t-110 -86q-35 0 -57 31q-18 31 -18 75q0 51 4 75t18 67q23 74 57 151 q-63 -106 -157 -231q-133 -176 -187 -176q-45 0 -69 47q-23 51 -23 102zM549 879q0 31 29 71q33 39 61 39q23 0 37 -16q12 -10 16 -37q0 -35 -34.5 -70t-69.5 -35q-16 0 -25.5 11.5t-13.5 36.5zM782 883q0 31 35 70.5t68 39.5q18 0 31.5 -16t13.5 -37q0 -31 -39 -70 q-39 -35 -70 -34q-16 0 -25.5 11t-13.5 36z" />
<glyph unicode="&#xff;" d="M-293 -385q0 25 17.5 47.5t48.5 24.5q27 0 43 -15.5t16 -40.5q0 -10 -12 -32l-21 -25l-4 -10q4 -33 34 -50.5t101 -17.5q180 0 385 336l150 277l153 288q-100 -152 -167 -237q-138 -174 -201 -174q-57 0 -80 34.5t-23 94.5q0 111 129.5 288t129.5 230q0 16 -19 39l-18 4 q-45 0 -123 -109l-53 -80l-13 -2l-12 9q10 43 85 119.5t116 76.5q43 0 62.5 -38t19.5 -89q0 -113 -128 -294t-128 -216q0 -16 11 -29.5t32 -17.5q72 0 208 182q63 86 144.5 213t175.5 295q25 -14 43 -18l57 6l64 6q25 0 24 -14l-14 -8l-12 2l-10 2q-33 0 -50 -17l-37 -49 q-68 -104 -159 -282l-248 -484q-104 -180 -199 -258q-129 -106 -303 -106q-82 0 -139 28q-76 39 -76 111zM532 885q0 33 32 68.5t63 35.5q18 0 35 -16q14 -10 16 -35q0 -33 -35 -70t-70 -37q-20 0 -28.5 14.5t-12.5 39.5zM768 877q0 39 34 75.5t68 36.5q20 0 31 -16 q12 -10 14 -33q0 -29 -35.5 -70t-64.5 -41q-16 0 -35 13q-12 12 -12 35z" />
<glyph unicode="&#x152;" horiz-adv-x="2234" d="M238 373q0 59 6 111.5t22 111.5q31 115 88 215q113 209 322 377q233 190 444 190l35 -2l70 -8l100 47q62 23 113 23q94 0 147 -74q45 -68 45 -166q0 -90 -37 -211q-12 -43 -28.5 -88t-48.5 -115q72 29 151 50l162 28q-51 29 -96 99q-41 70 -41 133q0 182 194 284 q160 86 363 86q125 0 221 -49q117 -61 117 -178q0 -119 -94.5 -196.5t-217.5 -77.5q-82 0 -149 41q-84 49 -84 122q0 31 15.5 54.5t45.5 42.5q8 -2 13.5 -6.5t7.5 -6.5l-8 -10q-25 -8 -37.5 -24.5t-16.5 -40.5q0 -53 62 -88q49 -25 114 -25q106 0 203 68q104 74 105 180 q0 82 -78 124t-168 42q-182 0 -341 -137.5t-159 -319.5q0 -59 55 -113l95 4l98 4q78 0 129 -7t59 -40q-6 -16 -32 -28l-50 -6q-152 0 -292 53l-66 -17q-170 -37 -307 -219q-68 -88 -102.5 -178t-34.5 -180q0 -117 87 -194.5t208 -77.5q176 0 369.5 187t193.5 361 q0 66 -48 109t-120 43q-121 0 -243 -124t-122 -245q0 -51 31 -88q33 -33 86 -33q16 0 41 13l41 26q10 -2 14 -12l-4 -12l-43 -25l-51 -8q-70 0 -119 55q-45 57 -45 129q0 143 135 248q125 94 273 94q100 0 163.5 -64.5t63.5 -164.5q0 -207 -197 -371q-186 -152 -401 -151 q-164 0 -291 98q-133 104 -133 268l6 60q-125 -160 -282 -264q-184 -123 -361 -123q-156 0 -261 114.5t-105 272.5zM326 279q0 -113 67.5 -192t184.5 -79q78 0 158.5 32t133.5 89l48 47q100 100 247 305q158 221 275 428q131 244 131 348q0 70 -23 107q-29 51 -90 51 q-18 0 -38.5 -1t-57.5 -15q-23 -6 -44.5 -17.5t-47.5 -29.5l51 -52q20 -26 20 -69q0 -96 -82.5 -167t-183.5 -71q-31 0 -33 21l7 8l8 6l24 -6l25 -6q59 0 125.5 64.5t66.5 123.5q0 41 -11 76t-48 51q-158 -100 -340 -350q-193 -270 -192 -436q0 -49 33.5 -99.5t82.5 -50.5 q20 0 37 8l35 19l8 -4l4 -6l-4 -9q-10 -10 -33 -20l-43 -4q-78 0 -121.5 79t-43.5 163q0 193 176 419q160 209 352 310l-55 2q-156 0 -359 -209q-180 -186 -315 -445.5t-135 -418.5z" />
<glyph unicode="&#x153;" horiz-adv-x="946" d="M141 190q0 180 134.5 340t310.5 160q55 0 88 -45q23 -31 37 -100q78 61 133 94q83 47 155 47q35 0 57.5 -16.5t22.5 -51.5q0 -119 -122.5 -207.5t-249.5 -88.5l-33 2l-62 -115q-33 -78 -32 -125q0 -35 28.5 -57.5t63.5 -22.5q100 0 215 135l110 137l7 -12q-2 -14 -25 -45 l-39 -49q-78 -102 -143 -145q-66 -39 -119 -39q-59 0 -92 33.5t-56 97.5q-23 -18 -65 -47q-33 -23 -57 -37q-78 -43 -142 -43q-68 0 -102 67q-23 51 -23 133zM195 84q-1 -80 69 -80q98 0 248 254q141 240 141 352q0 29 -18.5 44.5t-52.5 19.5q-109 0 -252 -242 q-135 -227 -135 -348zM686 344l45 -4q88 0 156 53q55 43 112 127q23 31 35.5 57.5t12.5 47.5q0 29 -11.5 36t-46.5 11q-80 0 -215 -187q-25 -33 -48.5 -70.5t-39.5 -70.5z" />
<glyph unicode="&#x178;" horiz-adv-x="1759" d="M106 25q0 106 77 180t188 74q86 0 164.5 -46.5t78.5 -132.5q0 -37 -25.5 -68.5t-66.5 -31.5q-27 0 -53.5 24.5t-26.5 55.5q0 18 34 36.5t36 49.5q0 43 -49 67.5t-103 24.5q-78 0 -137 -65.5t-59 -141.5q0 -166 151 -266q129 -86 310 -86q344 0 583 309q221 287 222 643 q0 276 -158 477q-172 219 -443 220q-180 0 -310 -112t-130 -296q0 -135 86 -233q49 156 151.5 244.5t264.5 88.5q119 0 209 -59q104 -68 104 -182q0 -139 -121 -228q-111 -80 -256 -79q-92 0 -185 34.5t-146 91.5v-36q0 -147 114.5 -250t263.5 -103q100 0 195 54 q113 63 113 153l8 13l14 2l13 -13q-8 -94 -130 -166q-104 -61 -210 -61q-190 0 -299 121t-109 313q-45 57 -76 125q-10 29 -18 68t-8 71q0 233 165.5 390t401.5 157q266 0 428 -201q147 -184 147 -462q0 -254 -80.5 -466t-254.5 -399q182 135 360 410l295 479 q188 274 405 424l-198 53q-123 31 -203 31q-106 0 -174 -47q-41 -29 -61.5 -65.5t-20.5 -90.5q0 -61 54.5 -101t115.5 -40q49 0 65 16l39 41l11 -2l4 -6v-10q-8 -29 -45 -47q-39 -14 -74 -15q-88 0 -141.5 52.5t-53.5 136.5q0 109 111 192q100 72 219 72q104 0 268 -57 l158 -58q186 117 286.5 154t190.5 37q70 0 124 -30t54 -97q0 -92 -127 -148q-100 -41 -213 -41q-55 0 -81.5 3.5t-85.5 13.5q-102 16 -166 39q-150 -152 -267 -293q-70 -84 -125 -156.5t-114 -161.5q-197 -293 -314 -434q-195 -238 -389 -360q-240 -150 -510 -150 q-180 0 -311 84q-154 98 -154 269zM498 684q84 -66 168 -106q82 -35 180 -35q129 0 225 63q109 74 109 199q0 98 -94.5 156.5t-194.5 58.5q-156 0 -260 -92q-90 -82 -133 -244zM1585 1612q0 33 30.5 73.5t65.5 40.5q20 0 32.5 -17t12.5 -44q0 -25 -37.5 -60.5t-64.5 -35.5 q-18 0 -28.5 11t-10.5 32zM1819 1626q0 29 35.5 64.5t64.5 35.5q47 0 47 -45q0 -33 -38 -72.5t-70 -39.5q-18 0 -31 18zM2353 1280q80 -33 160 -55q80 -19 164 -19q90 0 164 31q98 41 98 119q0 57 -44 82.5t-108 25.5q-43 0 -88 -8t-94 -26q-94 -35 -252 -150z" />
<glyph unicode="&#x2c6;" horiz-adv-x="0" d="M170 813l8 8q90 31 130 64t104 112q10 6 14 7l4 -5l-4 -30l-4 -35q0 -41 11 -68.5t40 -42.5q4 -2 10 -10q0 -2 2 -4l-12 -6q-39 0 -65 16q-23 18 -48 53l-88 -45q-39 -16 -88 -26z" />
<glyph unicode="&#x2dc;" horiz-adv-x="0" d="M129 858q0 31 45 70t80 43q35 0 72 -10q92 -25 118 -25q23 0 45.5 25.5t30.5 27.5l6 -12q-25 -49 -57 -82q-41 -41 -88 -41q-27 0 -109 20l-67 11q-25 0 -40 -15.5t-28 -19.5z" />
<glyph unicode="&#x2000;" horiz-adv-x="882" />
<glyph unicode="&#x2001;" horiz-adv-x="1765" />
<glyph unicode="&#x2002;" horiz-adv-x="882" />
<glyph unicode="&#x2003;" horiz-adv-x="1765" />
<glyph unicode="&#x2004;" horiz-adv-x="588" />
<glyph unicode="&#x2005;" horiz-adv-x="441" />
<glyph unicode="&#x2006;" horiz-adv-x="294" />
<glyph unicode="&#x2007;" horiz-adv-x="294" />
<glyph unicode="&#x2008;" horiz-adv-x="220" />
<glyph unicode="&#x2009;" horiz-adv-x="353" />
<glyph unicode="&#x200a;" horiz-adv-x="98" />
<glyph unicode="&#x2010;" horiz-adv-x="645" d="M172 389q6 18 33 27l55 8q55 0 191 -14l116 -9l33 5l27 6l8 -4l2 -9q0 -20 -19.5 -27t-54.5 -7q-20 0 -57 2t-84 8l-129 12l-55 -8l-50 -6z" />
<glyph unicode="&#x2011;" horiz-adv-x="645" d="M172 389q6 18 33 27l55 8q55 0 191 -14l116 -9l33 5l27 6l8 -4l2 -9q0 -20 -19.5 -27t-54.5 -7q-20 0 -57 2t-84 8l-129 12l-55 -8l-50 -6z" />
<glyph unicode="&#x2012;" horiz-adv-x="645" d="M172 389q6 18 33 27l55 8q55 0 191 -14l116 -9l33 5l27 6l8 -4l2 -9q0 -20 -19.5 -27t-54.5 -7q-20 0 -57 2t-84 8l-129 12l-55 -8l-50 -6z" />
<glyph unicode="&#x2013;" horiz-adv-x="729" d="M170 387v8l2 8l6 9l39 12l47 4h59.5t106.5 -8q94 0 161.5 -7t119.5 -12q37 0 80 13l8 -2l8 -9q-6 -20 -20.5 -29t-51.5 -9h-96q-49 6 -74 8q-96 0 -165.5 6t-118.5 12l-7 2q-47 0 -81 -18h-9z" />
<glyph unicode="&#x2014;" horiz-adv-x="989" d="M109 338v59h837v-59h-837z" />
<glyph unicode="&#x2018;" horiz-adv-x="729" d="M852 1079q0 74 112.5 217.5t182.5 143.5l8 -15q-84 -51 -136 -100t-52 -106l12 -21l39 -22q12 -12 16 -43q0 -43 -38 -86t-83 -43q-29 0 -43 20t-18 55z" />
<glyph unicode="&#x2019;" horiz-adv-x="729" d="M801 1024l4 12q70 31 113 68t79 108v9q0 16 -10 32q-25 10 -38 21.5t-17 38.5q0 45 33.5 89t81.5 44q29 0 48 -21.5t21 -54.5q0 -86 -104.5 -207t-194.5 -149l-10 2z" />
<glyph unicode="&#x201a;" horiz-adv-x="301" d="M-27 -227l4 6q55 27 102.5 62.5t74.5 88.5l14 35v8q-6 18 -34 36t-32 50q0 43 35 91q39 45 82 45q68 0 68 -76q0 -72 -113 -217.5t-184 -145.5q-15 1 -17 17z" />
<glyph unicode="&#x201c;" horiz-adv-x="989" d="M866 1122q0 66 110.5 195t174.5 129l8 -10l-4 -11q-57 -25 -111 -75q-70 -63 -69 -109q0 -10 31 -33q33 -16 32 -51q0 -43 -34 -80q-31 -37 -74 -37q-33 0 -49 23q-14 29 -15 59zM1096 1116q0 68 110.5 197t175.5 129l7 -2l4 -8l-13 -13q-51 -29 -106 -73 q-68 -59 -68 -103q0 -18 30 -34.5t34 -51.5q0 -41 -32 -79t-75 -38q-67 0 -67 76z" />
<glyph unicode="&#x201d;" horiz-adv-x="989" d="M815 1047l4 8l23 14l24 10q41 18 76 60q12 14 27 35q8 12 26 45l2 18l-4 12l-39 27q-16 12 -20 43q0 39 31.5 80t72.5 41q25 0 44.5 -19.5t21.5 -48.5q0 -94 -94 -196q-74 -84 -181 -140zM1044 1044l7 11q43 25 69.5 44t38.5 29q70 59 70 105l-4 16l-6 11 q-29 14 -40.5 23t-13.5 40q0 37 34 78t71 41q29 0 47 -19.5t18 -54.5q0 -76 -105.5 -204t-176.5 -128z" />
<glyph unicode="&#x201e;" horiz-adv-x="516" d="M-16 -213l26 18q49 25 96 72q61 55 62 98q0 12 -12.5 23.5t-30.5 17.5q-19 31 -19 41q0 45 35 83t78 38q27 0 42 -18.5t20 -50.5q0 -74 -101.5 -192t-181.5 -142zM219 -215l19 16q53 25 102 72q61 55 61 102q-6 8 -10 13q-12 14 -20 20q-31 23 -31 43q0 41 34 83t77 42 q31 0 44 -21.5t15 -54.5q0 -72 -108.5 -198.5t-178.5 -126.5z" />
<glyph unicode="&#x2022;" horiz-adv-x="651" d="M72 690q0 104 78.5 180t181.5 76q100 0 175 -75t75 -181t-72 -180t-180 -74q-102 0 -180 75t-78 179z" />
<glyph unicode="&#x2026;" horiz-adv-x="1957" d="M225 0v207h203v-207h-203zM877 0v207h204v-207h-204zM1530 0v207h203v-207h-203z" />
<glyph unicode="&#x202f;" horiz-adv-x="353" />
<glyph unicode="&#x2039;" horiz-adv-x="651" d="M172 453v180l307 239v-172l-205 -157l205 -160v-172z" />
<glyph unicode="&#x203a;" horiz-adv-x="651" d="M172 211v172l207 160l-207 157v172l307 -239v-180z" />
<glyph unicode="&#x205f;" horiz-adv-x="441" />
<glyph unicode="&#x2122;" horiz-adv-x="1775" d="M53 1116l6 189h615l6 -189l-35 -2l-2 14q0 66 -40 100t-107 34h-74v-605q0 -33 27 -45q27 -8 40 -9t29 -1v-35h-309v35q53 0 78 12q16 12 20 43v605h-71q-147 0 -148 -148zM733 1268v37h223l256 -560l244 560h215v-37l-16 2q-37 0 -55.5 -7.5t-20.5 -39.5l-2 -566 q0 -33 27 -45q27 -8 40 -9t29 -1v-35h-309v35q45 0 63 6q37 12 37 49v537l-260 -627h-35l-278 596v-506q0 -33 29 -45q27 -8 40 -9t29 -1v-35h-252v35q45 0 64 6q37 12 37 49v545q0 33 -13.5 49.5t-64.5 16.5h-27z" />
<glyph unicode="&#xe000;" horiz-adv-x="696" d="M0 0v696h696v-696h-696z" />
</font>
</defs>
</svg>
